<svg width="48" height="53" viewBox="0 0 48 53" fill="none" xmlns="http://www.w3.org/2000/svg">
<path d="M24.0955 0.0913086C23.3807 0.0913086 22.6876 0.239674 22.0733 0.58496L2.64567 11.7204C1.38727 12.438 0.623535 13.7976 0.623535 15.2407V37.4713C0.623535 38.9144 1.38455 40.2713 2.64567 40.9916L7.7173 43.8995C10.1825 45.1053 11.093 45.0864 12.2127 45.0864C15.8629 45.0864 17.9475 42.8879 17.9475 39.0709V17.1209C17.9475 16.8107 17.6757 16.5895 17.3713 16.5895H14.9361C14.6235 16.5895 14.3599 16.8107 14.3599 17.1209V39.0655C14.3599 40.7596 12.5824 42.4617 9.69866 41.0293L4.41775 37.9622C4.23021 37.8624 4.08888 37.6844 4.08888 37.4713V15.2434C4.09418 15.1345 4.1271 15.0287 4.18459 14.9358C4.24208 14.8429 4.32228 14.766 4.41775 14.712L23.8047 3.61701C23.8924 3.56577 23.9923 3.53875 24.0941 3.53875C24.1959 3.53875 24.2958 3.56577 24.3836 3.61701L43.7705 14.712C43.8659 14.766 43.9461 14.8429 44.0036 14.9358C44.0611 15.0287 44.094 15.1345 44.0993 15.2434V37.4713C44.1013 37.5773 44.0759 37.6821 44.0254 37.7756C43.975 37.8691 43.9013 37.9482 43.8112 38.0054L24.3836 49.0977C24.295 49.1463 24.1954 49.1719 24.0941 49.1719C23.9929 49.1719 23.8933 49.1463 23.8047 49.0977L18.8146 46.152C18.7387 46.1109 18.6536 46.0894 18.5672 46.0894C18.4808 46.0894 18.3958 46.1109 18.3199 46.152C16.9419 46.9262 16.6837 47.0152 15.39 47.4603C15.072 47.5709 14.5882 47.7435 15.5531 48.2803L22.0733 52.0866C22.6876 52.4373 23.3834 52.6234 24.0955 52.6207C24.8021 52.6234 25.5006 52.44 26.1149 52.0893L45.5453 40.9916C46.162 40.6306 46.6729 40.1158 47.0272 39.4982C47.3814 38.8807 47.5667 38.1819 47.5647 37.4713V15.2434C47.5647 13.7976 46.8037 12.4407 45.5453 11.7204L26.1149 0.58496C25.4964 0.249441 24.8002 0.0774991 24.0955 0.0913086Z" fill="#83CD29"/>
<path d="M30.8962 16.9939C25.0528 16.9939 21.5744 19.4822 21.5744 23.615C21.5744 28.1009 25.027 29.3321 30.635 29.8889C37.3422 30.5432 37.8646 31.5305 37.8646 32.8507C37.8646 35.141 36.0392 36.1168 31.7227 36.1168C26.2984 36.1168 25.1102 34.7622 24.7113 32.0672C24.6625 31.7773 24.4386 31.542 24.143 31.542H21.4854C21.3247 31.5457 21.1716 31.6114 21.0582 31.7253C20.9448 31.8392 20.8799 31.9926 20.877 32.1533C20.877 35.6059 22.7539 39.6871 31.7256 39.6871C38.2147 39.6871 41.9601 37.1414 41.9601 32.6757C41.9601 28.2501 38.9351 27.0619 32.6383 26.2296C26.2754 25.3858 25.667 24.9754 25.667 23.4859C25.667 22.2546 26.1836 20.6101 30.8962 20.6101C35.1065 20.6101 36.662 21.517 37.2963 24.3555C37.3537 24.6224 37.589 24.8348 37.8646 24.8348H40.5222C40.6858 24.8348 40.8436 24.7343 40.9584 24.6167C41.0675 24.4904 41.1479 24.3497 41.1306 24.1804C40.7202 19.2928 37.4599 16.9939 30.8962 16.9939Z" fill="#83CD29"/>
</svg>
