<svg width="60" height="53" viewBox="0 0 60 53" fill="none" xmlns="http://www.w3.org/2000/svg">
<path d="M59.5751 26.3624C59.5751 22.4536 54.6823 18.7519 47.1836 16.4558C48.9153 8.80864 48.1456 2.72465 44.7573 0.776674C43.9748 0.318542 43.0622 0.104136 42.0635 0.104136V2.78512C42.6169 2.78512 43.0622 2.89324 43.4342 3.09665C45.0688 4.03491 45.7798 7.60467 45.2246 12.1988C45.0777 13.3863 44.8734 14.566 44.6125 15.7338C42.1003 15.1281 39.5505 14.6904 36.98 14.4235C35.4492 12.311 33.7791 10.303 31.9809 8.41282C35.8988 4.76792 39.5767 2.7723 42.0781 2.7723V0.0913086C38.7723 0.0913086 34.4457 2.44794 30.0696 6.53631C25.6953 2.47176 21.3687 0.140787 18.0647 0.140787V2.81994C20.5514 2.81994 24.2403 4.80457 28.1601 8.42381C26.37 10.3078 24.7113 12.3124 23.1958 14.4235C20.48 14.7112 17.9071 15.1565 15.5523 15.7448C15.2874 14.5938 15.0788 13.4306 14.9274 12.2593C14.363 7.66515 15.0593 4.09538 16.6811 3.1443C17.0421 2.92806 17.5113 2.83277 18.0647 2.83277V0.151782C17.055 0.151782 16.1405 0.366188 15.347 0.82432C11.9715 2.7723 11.2129 8.84346 12.9556 16.4668C5.48072 18.7758 0.613525 22.4665 0.613525 26.3624C0.613525 30.2694 5.50637 33.9729 13.0051 36.2691C11.2733 43.9162 12.043 50.0002 15.4313 51.9482C16.2138 52.4045 17.1264 52.6207 18.1362 52.6207C21.442 52.6207 25.7686 50.2641 30.1429 46.1757C34.5171 50.2403 38.8437 52.5712 42.1478 52.5712C43.1575 52.5712 44.0719 52.3568 44.8654 51.8987C48.2428 49.9507 48.9996 43.8796 47.2569 36.2562C54.7079 33.9601 59.5751 30.2584 59.5751 26.3606V26.3624ZM43.9272 18.3433C43.4602 19.9502 42.919 21.5346 42.3054 23.0914C41.3004 21.137 40.197 19.2349 38.9995 17.3922C40.7056 17.6451 42.3512 17.9585 43.9272 18.3433ZM38.4222 31.1472C37.5224 32.7182 36.5564 34.2503 35.5268 35.7395C31.9203 36.0577 28.2929 36.062 24.6856 35.7523C23.6544 34.2697 22.6842 32.7456 21.7774 31.1838C20.8758 29.625 20.0418 28.028 19.2778 26.3972C20.8044 23.121 22.6054 19.9798 24.6618 17.0074C28.2684 16.6897 31.8958 16.6861 35.503 16.9964C36.5343 18.479 37.5045 20.0031 38.4112 21.5649C39.3238 23.1408 40.1521 24.7388 40.9108 26.3496C40.154 27.9622 39.3238 29.573 38.4222 31.1472ZM42.3054 29.584C42.9541 31.1966 43.5075 32.8056 43.9638 34.3687C42.3878 34.7536 40.7312 35.0798 39.0123 35.3308C40.2043 33.4714 41.3033 31.5522 42.3054 29.584ZM30.1191 42.4117C29.0012 41.2572 27.8834 39.9726 26.7765 38.5652C27.8577 38.6129 28.9646 38.6495 30.0824 38.6495C31.2112 38.6495 32.3291 38.6257 33.4231 38.5652C32.392 39.9066 31.289 41.1895 30.1191 42.4117ZM21.1763 35.3308C19.52 35.0906 17.8757 34.7739 16.2487 34.3816C16.694 32.8312 17.2474 31.2315 17.8723 29.6317C18.3652 30.5937 18.8802 31.5558 19.4464 32.5179C20.0108 33.48 20.5881 34.4182 21.1763 35.3308ZM30.0586 10.3113C31.1764 11.4658 32.2943 12.7522 33.3993 14.1596C32.2987 14.1064 31.1971 14.0777 30.0952 14.0735C28.9646 14.0735 27.8467 14.0992 26.7527 14.1578C27.8339 12.7522 28.9517 11.4658 30.0586 10.3113ZM21.1653 17.3904C19.9731 19.2464 18.874 21.1608 17.8723 23.1262C17.2414 21.5594 16.6879 19.9626 16.2138 18.3415C17.788 17.9676 19.4464 17.6451 21.1653 17.3904ZM10.2874 32.4446C6.03414 30.6286 3.28169 28.2481 3.28169 26.3606C3.28169 24.4731 6.03414 22.0798 10.2874 20.2766C11.321 19.8313 12.4498 19.4336 13.6171 19.0616C14.3526 21.5608 15.2562 24.0073 16.322 26.3844C15.2679 28.7496 14.3765 31.184 13.6538 33.6705C12.5123 33.3166 11.3888 32.9069 10.2874 32.4428V32.4446ZM16.7544 49.6245C15.1198 48.6881 14.4088 45.1165 14.964 40.5242C15.096 39.3935 15.3122 38.2024 15.5761 36.9874C17.9327 37.5665 20.5038 38.01 23.2086 38.2995C24.7394 40.412 26.4095 42.4201 28.2077 44.3102C24.2898 47.9533 20.6119 49.9489 18.1105 49.9489C17.5717 49.9379 17.1154 49.8298 16.7544 49.6245ZM45.2612 40.4619C45.8257 45.056 45.1293 48.6276 43.5075 49.5769C43.1465 49.7931 42.6774 49.8884 42.1239 49.8884C39.6372 49.8884 35.9483 47.9056 32.0285 44.2864C33.8187 42.4024 35.4773 40.3978 36.9929 38.2867C39.7087 37.999 42.2815 37.5537 44.6363 36.9654C44.9112 38.1786 45.1293 39.3441 45.2612 40.4619ZM49.8884 32.4446C48.8548 32.8881 47.726 33.2857 46.5587 33.6577C45.8237 31.1593 44.9207 28.7134 43.8557 26.3368C44.9097 23.9715 45.8011 21.5372 46.5238 19.0506C47.6683 19.4058 48.7954 19.8149 49.9012 20.2766C54.1545 22.0908 56.9069 24.4731 56.9069 26.3606C56.8941 28.2481 54.1435 30.6395 49.8884 32.4446Z" fill="#36DFFF"/>
<path d="M29.5584 32.2525C32.5187 32.2525 34.9185 29.8527 34.9185 26.8924C34.9185 23.932 32.5187 21.5322 29.5584 21.5322C26.5981 21.5322 24.1982 23.932 24.1982 26.8924C24.1982 29.8527 26.5981 32.2525 29.5584 32.2525Z" fill="#36DFFF"/>
</svg>
