<svg width="1222" height="1208" viewBox="0 0 1222 1208" fill="none" xmlns="http://www.w3.org/2000/svg">
<g opacity="0.5">
<g opacity="0.3" filter="url(#filter0_f_1_1525)">
<path d="M610.943 1028.77C849.841 1028.77 1043.51 838.411 1043.51 603.59C1043.51 368.769 849.841 178.409 610.943 178.409C372.046 178.409 178.381 368.769 178.381 603.59C178.381 838.411 372.046 1028.77 610.943 1028.77Z" fill="#944EFA"/>
<mask id="mask0_1_1525" style="mask-type:alpha" maskUnits="userSpaceOnUse" x="178" y="178" width="866" height="851">
<path d="M610.943 1028.77C849.841 1028.77 1043.51 838.411 1043.51 603.59C1043.51 368.769 849.841 178.409 610.943 178.409C372.046 178.409 178.381 368.769 178.381 603.59C178.381 838.411 372.046 1028.77 610.943 1028.77Z" fill="#944EFA"/>
</mask>
<g mask="url(#mask0_1_1525)">
<g filter="url(#filter1_f_1_1525)">
<path d="M649.669 874.687C593.792 906.225 432.584 791.2 374.955 739.994C362.507 897.693 374.955 825.306 527.096 1070.01C679.236 1314.72 1251.49 766.842 1260.13 739.994C1268.78 713.145 1154.33 67.3872 909.174 -104.928C664.021 -277.244 824.288 108.614 935.97 401.584C1047.65 694.554 719.515 835.26 649.669 874.687Z" fill="#976CE5"/>
</g>
<g filter="url(#filter2_f_1_1525)">
<path d="M260.666 788.37C262.312 790.323 264.048 792.353 265.869 794.44C400.982 933.851 842.267 71.698 820.221 433.325C780.096 1091.49 594.318 919.172 530.013 964.654C480.072 999.977 326.369 863.743 265.869 794.44C264.08 792.594 262.345 790.57 260.666 788.37Z" fill="#2735FD"/>
</g>
<g filter="url(#filter3_f_1_1525)">
<path d="M381.429 952.365C236.657 1102.91 204.187 979.39 206.049 898.811L-241.254 816.4C-315.815 731.222 -324.573 476.34 236.873 138.243C938.683 -284.378 1320.73 759.372 1083.85 554.889C846.952 350.409 562.395 764.175 381.429 952.365Z" fill="#2BBFDA"/>
</g>
</g>
</g>
<path fill-rule="evenodd" clip-rule="evenodd" d="M143.72 143H143V143.707V1062.69H143.72V1028.03H178.987V1062.69H179.707V1028.03H214.974V1062.69H215.694V1028.03H250.961V1062.69H251.68V1028.03H286.948V1062.69H287.667V1028.03H322.935V1062.69H323.654V1028.03H358.921V1062.69H359.641V1028.03H394.909V1062.69H395.629V1028.03H430.896V1062.69H431.616V1028.03H466.883V1062.69H467.603V1028.03H502.87V1062.69H503.59V1028.03H538.857V1062.69H539.576V1028.03H574.844V1062.69H575.563V1028.03H610.831V1062.69H611.55V1028.03H646.817V1062.69H647.537V1028.03H682.804V1062.69H683.524V1028.03H718.791V1062.69H719.511V1028.03H754.778V1062.69H755.498V1028.03H790.765V1062.69H791.485V1028.03H826.751V1062.69H827.471V1028.03H862.738V1062.69H863.458V1028.03H898.725V1062.69H899.445V1028.03H934.712V1062.69H935.432V1028.03H970.699V1062.69H971.419V1028.03H1006.69V1062.69H1007.41V1028.03H1042.67V1062.69H1043.39V1028.03H1078.66V1027.32H1043.39V992.654H1078.66V991.946H1043.39V957.281H1078.66V956.574H1043.39V921.908H1078.66V921.201H1043.39V886.536H1078.66V885.828H1043.39V851.163H1078.66V850.455H1043.39V815.79H1078.66V815.083H1043.39V780.417H1078.66V779.71H1043.39V745.044H1078.66V744.337H1043.39V709.672H1078.66V708.964H1043.39V674.299H1078.66V673.592H1043.39V638.926H1078.66V638.219H1043.39V603.553H1078.66V602.846H1043.39V568.181H1078.66V567.474H1043.39V532.809H1078.66V532.101H1043.39V497.436H1078.66V496.728H1043.39V462.063H1078.66V461.356H1043.39V426.69H1078.66V425.983H1043.39V391.318H1078.66V390.61H1043.39V355.945H1078.66V355.237H1043.39V320.571H1078.66V319.864H1043.39V285.199H1078.66V284.491H1043.39V249.826H1078.66V249.118H1043.39V214.453H1078.66V213.746H1043.39V179.08H1078.66V178.373H1043.39V143.707H1078.66V143H1043.39H1042.67H1007.41H1006.69H971.419H970.699H935.432H934.712H899.445H898.725H863.458H862.738H827.471H826.751H791.486H790.766H755.498H754.778H719.511H718.791H683.524H682.804H647.537H646.817H611.55H610.831H575.563H574.844H539.576H538.857H503.59H502.87H467.603H466.883H431.616H430.896H395.629H394.909H359.642H358.922H323.654H322.935H287.667H286.948H251.68H250.961H215.694H214.974H179.707H178.987H143.72ZM143.72 143.707V178.373H178.987V143.707H143.72ZM179.707 143.707V178.373H214.974V143.707H179.707ZM215.694 143.707V178.373H250.961V143.707H215.694ZM251.68 143.707V178.373H286.948V143.707H251.68ZM287.667 143.707V178.373H322.935V143.707H287.667ZM323.654 143.707V178.373H358.922V143.707H323.654ZM359.642 143.707V178.373H394.909V143.707H359.642ZM395.629 143.707V178.373H430.896V143.707H395.629ZM431.616 143.707V178.373H466.883V143.707H431.616ZM467.603 143.707V178.373H502.87V143.707H467.603ZM503.59 143.707V178.373H538.857V143.707H503.59ZM539.576 143.707V178.373H574.844V143.707H539.576ZM575.563 143.707V178.373H610.831V143.707H575.563ZM611.55 143.707V178.373H646.817V143.707H611.55ZM647.537 143.707V178.373H682.804V143.707H647.537ZM683.524 143.707V178.373H718.791V143.707H683.524ZM719.511 143.707V178.373H754.778V143.707H719.511ZM755.498 143.707V178.373H790.766V143.707H755.498ZM791.486 143.707V178.373H826.751V143.707H791.486ZM827.471 143.707V178.373H862.738V143.707H827.471ZM863.458 143.707V178.373H898.725V143.707H863.458ZM899.445 143.707V178.373H934.712V143.707H899.445ZM935.432 143.707V178.373H970.699V143.707H935.432ZM971.419 143.707V178.373H1006.69V143.707H971.419ZM1007.41 143.707V178.373H1042.67V143.707H1007.41ZM1042.67 179.08H1007.41V213.746H1042.67V179.08ZM1042.67 214.453H1007.41V249.118H1042.67V214.453ZM1042.67 249.826H1007.41V284.491H1042.67V249.826ZM1042.67 285.199H1007.41V319.864H1042.67V285.199ZM1042.67 320.571H1007.41V355.237H1042.67V320.571ZM1042.67 355.945H1007.41V390.61H1042.67V355.945ZM1042.67 391.318H1007.41V425.983H1042.67V391.318ZM1042.67 426.69H1007.41V461.356H1042.67V426.69ZM1042.67 462.063H1007.41V496.728H1042.67V462.063ZM1042.67 497.436H1007.41V532.101H1042.67V497.436ZM1042.67 532.809H1007.41V567.474H1042.67V532.809ZM1042.67 568.181H1007.41V602.846H1042.67V568.181ZM1042.67 603.553H1007.41V638.219H1042.67V603.553ZM1042.67 638.926H1007.41V673.592H1042.67V638.926ZM1042.67 674.299H1007.41V708.964H1042.67V674.299ZM1042.67 709.672H1007.41V744.337H1042.67V709.672ZM1042.67 745.044H1007.41V779.71H1042.67V745.044ZM1042.67 780.417H1007.41V815.083H1042.67V780.417ZM1042.67 815.79H1007.41V850.455H1042.67V815.79ZM1042.67 851.163H1007.41V885.828H1042.67V851.163ZM1042.67 886.536H1007.41V921.201H1042.67V886.536ZM1042.67 921.908H1007.41V956.574H1042.67V921.908ZM1042.67 957.281H1007.41V991.946H1042.67V957.281ZM1042.67 992.654H1007.41V1027.32H1042.67V992.654ZM1006.69 1027.32V992.654H971.419V1027.32H1006.69ZM970.699 1027.32V992.654H935.432V1027.32H970.699ZM934.712 1027.32V992.654H899.445V1027.32H934.712ZM898.725 1027.32V992.654H863.458V1027.32H898.725ZM862.738 1027.32V992.654H827.471V1027.32H862.738ZM826.751 1027.32V992.654H791.485V1027.32H826.751ZM790.765 1027.32V992.654H755.498V1027.32H790.765ZM754.778 1027.32V992.654H719.511V1027.32H754.778ZM718.791 1027.32V992.654H683.524V1027.32H718.791ZM682.804 1027.32V992.654H647.537V1027.32H682.804ZM646.817 1027.32V992.654H611.55V1027.32H646.817ZM610.831 1027.32V992.654H575.563V1027.32H610.831ZM574.844 1027.32V992.654H539.576V1027.32H574.844ZM538.857 1027.32V992.654H503.59V1027.32H538.857ZM502.87 1027.32V992.654H467.603V1027.32H502.87ZM466.883 1027.32V992.654H431.616V1027.32H466.883ZM430.896 1027.32V992.654H395.629V1027.32H430.896ZM394.909 1027.32V992.654H359.641V1027.32H394.909ZM358.921 1027.32V992.654H323.654V1027.32H358.921ZM322.935 1027.32V992.654H287.667V1027.32H322.935ZM286.948 1027.32V992.654H251.68V1027.32H286.948ZM250.961 1027.32V992.654H215.694V1027.32H250.961ZM214.974 1027.32V992.654H179.707V1027.32H214.974ZM178.987 1027.32V992.654H143.72V1027.32H178.987ZM143.72 991.946H178.987V957.281H143.72V991.946ZM143.72 956.574H178.987V921.908H143.72V956.574ZM143.72 921.201H178.987V886.536H143.72V921.201ZM143.72 885.828H178.987V851.163H143.72V885.828ZM143.72 850.455H178.987V815.79H143.72V850.455ZM143.72 815.083H178.987V780.417H143.72V815.083ZM143.72 779.71H178.987V745.044H143.72V779.71ZM143.72 744.337H178.987V709.672H143.72V744.337ZM143.72 708.964H178.987V674.299H143.72V708.964ZM143.72 673.592H178.987V638.926H143.72V673.592ZM143.72 638.219H178.987V603.553H143.72V638.219ZM143.72 602.846H178.987V568.181H143.72L143.72 602.846ZM143.72 567.474H178.987V532.809H143.72V567.474ZM143.72 532.101H178.987V497.436H143.72V532.101ZM143.72 496.728H178.987V462.063H143.72V496.728ZM143.72 461.356H178.987V426.69H143.72V461.356ZM143.72 425.983H178.987V391.318H143.72V425.983ZM143.72 390.61H178.987V355.944H143.72V390.61ZM143.72 355.237H178.987V320.571H143.72V355.237ZM143.72 319.864H178.987V285.199H143.72V319.864ZM143.72 284.491H178.987V249.826H143.72V284.491ZM143.72 249.118H178.987V214.453H143.72V249.118ZM143.72 213.746H178.987V179.08H143.72V213.746ZM179.707 179.08V213.746H214.974V179.08H179.707ZM215.694 179.08V213.746H250.961V179.08H215.694ZM251.68 179.08V213.746H286.948V179.08H251.68ZM287.667 179.08V213.746H322.935V179.08H287.667ZM323.654 179.08V213.746H358.922V179.08H323.654ZM359.642 179.08V213.746H394.909V179.08H359.642ZM395.629 179.08V213.746H430.896V179.08H395.629ZM431.616 179.08V213.746H466.883V179.08H431.616ZM467.603 179.08V213.746H502.87V179.08H467.603ZM503.59 179.08V213.746H538.857V179.08H503.59ZM539.576 179.08V213.746H574.844V179.08H539.576ZM575.563 179.08V213.746H610.831V179.08H575.563ZM611.55 179.08V213.746H646.817V179.08H611.55ZM647.537 179.08V213.746H682.804V179.08H647.537ZM683.524 179.08V213.746H718.791V179.08H683.524ZM719.511 179.08V213.746H754.778V179.08H719.511ZM755.498 179.08V213.746H790.766V179.08H755.498ZM791.486 179.08V213.746H826.751V179.08H791.486ZM827.471 179.08V213.746H862.738V179.08H827.471ZM863.458 179.08V213.746H898.725V179.08H863.458ZM899.445 179.08V213.746H934.712V179.08H899.445ZM935.432 179.08V213.746H970.699V179.08H935.432ZM971.419 179.08V213.746H1006.69V179.08H971.419ZM1006.69 214.453H971.419V249.118H1006.69V214.453ZM1006.69 249.826H971.419V284.491H1006.69V249.826ZM1006.69 285.199H971.419V319.864H1006.69V285.199ZM1006.69 320.571H971.419V355.237H1006.69V320.571ZM1006.69 355.945H971.419V390.61H1006.69V355.945ZM1006.69 391.318H971.419V425.983H1006.69V391.318ZM1006.69 426.69H971.419V461.356H1006.69V426.69ZM1006.69 462.063H971.419V496.728H1006.69V462.063ZM1006.69 497.436H971.419V532.101H1006.69V497.436ZM1006.69 532.809H971.419V567.474H1006.69V532.809ZM1006.69 568.181H971.419V602.846H1006.69V568.181ZM1006.69 603.553H971.419V638.219H1006.69V603.553ZM1006.69 638.926H971.419V673.592H1006.69V638.926ZM1006.69 674.299H971.419V708.964H1006.69V674.299ZM1006.69 709.672H971.419V744.337H1006.69V709.672ZM1006.69 745.044H971.419V779.71H1006.69V745.044ZM1006.69 780.417H971.419V815.083H1006.69V780.417ZM1006.69 815.79H971.419V850.455H1006.69V815.79ZM1006.69 851.163H971.419V885.828H1006.69V851.163ZM1006.69 886.536H971.419V921.201H1006.69V886.536ZM1006.69 921.908H971.419V956.574H1006.69V921.908ZM1006.69 957.281H971.419V991.946H1006.69V957.281ZM970.699 991.946V957.281H935.432V991.946H970.699ZM934.712 991.946V957.281H899.445V991.946H934.712ZM898.725 991.946V957.281H863.458V991.946H898.725ZM862.738 991.946V957.281H827.471V991.946H862.738ZM826.751 991.946V957.281H791.485V991.946H826.751ZM790.765 991.946V957.281H755.498V991.946H790.765ZM754.778 991.946V957.281H719.511V991.946H754.778ZM718.791 991.946V957.281H683.524V991.946H718.791ZM682.804 991.946V957.281H647.537V991.946H682.804ZM646.817 991.946V957.281H611.55V991.946H646.817ZM610.831 991.946V957.281H575.563V991.946H610.831ZM574.844 991.946V957.281H539.576V991.946H574.844ZM538.857 991.946V957.281H503.59V991.946H538.857ZM502.87 991.946V957.281H467.603V991.946H502.87ZM466.883 991.946V957.281H431.616V991.946H466.883ZM430.896 991.946V957.281H395.629V991.946H430.896ZM394.909 991.946V957.281H359.641V991.946H394.909ZM358.921 991.946V957.281H323.654V991.946H358.921ZM322.935 991.946V957.281H287.667V991.946H322.935ZM286.948 991.946V957.281H251.68V991.946H286.948ZM250.961 991.946V957.281H215.694V991.946H250.961ZM214.974 991.946V957.281H179.707V991.946H214.974ZM179.707 956.574H214.974V921.908H179.707V956.574ZM179.707 921.201H214.974V886.536H179.707V921.201ZM179.707 885.828H214.974V851.163H179.707V885.828ZM179.707 850.455H214.974V815.79H179.707V850.455ZM179.707 815.083H214.974V780.417H179.707V815.083ZM179.707 779.71H214.974V745.044H179.707V779.71ZM179.707 744.337H214.974V709.672H179.707V744.337ZM179.707 708.964H214.974V674.299H179.707V708.964ZM179.707 673.592H214.974V638.926H179.707V673.592ZM179.707 638.219H214.974V603.553H179.707V638.219ZM179.707 602.846H214.974V568.181H179.707V602.846ZM179.707 567.474H214.974V532.809H179.707V567.474ZM179.707 532.101H214.974V497.436H179.707V532.101ZM179.707 496.728H214.974V462.063H179.707V496.728ZM179.707 461.356H214.974V426.69H179.707V461.356ZM179.707 425.983H214.974V391.318H179.707V425.983ZM179.707 390.61H214.974V355.944H179.707V390.61ZM179.707 355.237H214.974V320.571H179.707V355.237ZM179.707 319.864H214.974V285.199H179.707V319.864ZM179.707 284.491H214.974V249.826H179.707V284.491ZM179.707 249.118H214.974V214.453H179.707V249.118ZM215.694 214.453V249.118H250.961V214.453H215.694ZM251.68 214.453V249.118H286.948V214.453H251.68ZM287.667 214.453V249.118H322.935V214.453H287.667ZM323.654 214.453V249.118H358.922V214.453H323.654ZM359.642 214.453V249.118H394.909V214.453H359.642ZM395.629 214.453V249.118H430.896V214.453H395.629ZM431.616 214.453V249.118H466.883V214.453H431.616ZM467.603 214.453V249.118H502.87V214.453H467.603ZM503.59 214.453V249.118H538.857V214.453H503.59ZM539.576 214.453V249.118H574.844V214.453H539.576ZM575.563 214.453V249.118H610.831V214.453H575.563ZM611.55 214.453V249.118H646.817V214.453H611.55ZM647.537 214.453V249.118H682.804V214.453H647.537ZM683.524 214.453V249.118H718.791V214.453H683.524ZM719.511 214.453V249.118H754.778V214.453H719.511ZM755.498 214.453V249.118H790.766V214.453H755.498ZM791.486 214.453V249.118H826.751V214.453H791.486ZM827.471 214.453V249.118H862.738V214.453H827.471ZM863.458 214.453V249.118H898.725V214.453H863.458ZM899.445 214.453V249.118H934.712V214.453H899.445ZM935.432 214.453V249.118H970.699V214.453H935.432ZM970.699 249.826H935.432V284.491H970.699V249.826ZM970.699 285.199H935.432V319.864H970.699V285.199ZM970.699 320.571H935.432V355.237H970.699V320.571ZM970.699 355.945H935.432V390.61H970.699V355.945ZM970.699 391.318H935.432V425.983H970.699V391.318ZM970.699 426.69H935.432V461.356H970.699V426.69ZM970.699 462.063H935.432V496.728H970.699V462.063ZM970.699 497.436H935.432V532.101H970.699V497.436ZM970.699 532.809H935.432V567.474H970.699V532.809ZM970.699 568.181H935.432V602.846H970.699V568.181ZM970.699 603.553H935.432V638.219H970.699V603.553ZM970.699 638.926H935.432V673.592H970.699V638.926ZM970.699 674.299H935.432V708.964H970.699V674.299ZM970.699 709.672H935.432V744.337H970.699V709.672ZM970.699 745.044H935.432V779.71H970.699V745.044ZM970.699 780.417H935.432V815.083H970.699V780.417ZM970.699 815.79H935.432V850.455H970.699V815.79ZM970.699 851.163H935.432V885.828H970.699V851.163ZM970.699 886.536H935.432V921.201H970.699V886.536ZM970.699 921.908H935.432V956.574H970.699V921.908ZM934.712 956.574V921.908H899.445V956.574H934.712ZM898.725 956.574V921.908H863.458V956.574H898.725ZM862.738 956.574V921.908H827.471V956.574H862.738ZM826.751 956.574V921.908H791.485V956.574H826.751ZM790.765 956.574V921.908H755.498V956.574H790.765ZM754.778 956.574V921.908H719.511V956.574H754.778ZM718.791 956.574V921.908H683.524V956.574H718.791ZM682.804 956.574V921.908H647.537V956.574H682.804ZM646.817 956.574V921.908H611.55V956.574H646.817ZM610.831 956.574V921.908H575.563V956.574H610.831ZM574.844 956.574V921.908H539.576V956.574H574.844ZM538.857 956.574V921.908H503.59V956.574H538.857ZM502.87 956.574V921.908H467.603V956.574H502.87ZM466.883 956.574V921.908H431.616V956.574H466.883ZM430.896 956.574V921.908H395.629V956.574H430.896ZM394.909 956.574V921.908H359.641V956.574H394.909ZM358.921 956.574V921.908H323.654V956.574H358.921ZM322.935 956.574V921.908H287.667V956.574H322.935ZM286.948 956.574V921.908H251.68V956.574H286.948ZM250.961 956.574V921.908H215.694V956.574H250.961ZM215.694 921.201H250.961V886.536H215.694V921.201ZM215.694 885.828H250.961V851.163H215.694V885.828ZM215.694 850.455H250.961V815.79H215.694V850.455ZM215.694 815.083H250.961V780.417H215.694V815.083ZM215.694 779.71H250.961V745.044H215.694V779.71ZM215.694 744.337H250.961V709.672H215.694V744.337ZM215.694 708.964H250.961V674.299H215.694V708.964ZM215.694 673.592H250.961V638.926H215.694V673.592ZM215.694 638.219H250.961V603.553H215.694V638.219ZM215.694 602.846H250.961V568.181H215.694V602.846ZM215.694 567.474H250.961V532.809H215.694V567.474ZM215.694 532.101H250.961V497.436H215.694V532.101ZM215.694 496.728H250.961V462.063H215.694V496.728ZM215.694 461.356H250.961V426.69H215.694V461.356ZM215.694 425.983H250.961V391.318H215.694V425.983ZM215.694 390.61H250.961V355.944H215.694V390.61ZM215.694 355.237H250.961V320.571H215.694V355.237ZM215.694 319.864H250.961V285.199H215.694V319.864ZM215.694 284.491H250.961V249.826H215.694V284.491ZM251.68 249.826V284.491H286.948V249.826H251.68ZM287.667 249.826V284.491H322.935V249.826H287.667ZM323.654 249.826V284.491H358.922V249.826H323.654ZM359.642 249.826V284.491H394.909V249.826H359.642ZM395.629 249.826V284.491H430.896V249.826H395.629ZM431.616 249.826V284.491H466.883V249.826H431.616ZM467.603 249.826V284.491H502.87V249.826H467.603ZM503.59 249.826V284.491H538.857V249.826H503.59ZM539.576 249.826V284.491H574.844V249.826H539.576ZM575.563 249.826V284.491H610.831V249.826H575.563ZM611.55 249.826V284.491H646.817V249.826H611.55ZM647.537 249.826V284.491H682.804V249.826H647.537ZM683.524 249.826V284.491H718.791V249.826H683.524ZM719.511 249.826V284.491H754.778V249.826H719.511ZM755.498 249.826V284.491H790.766V249.826H755.498ZM791.486 249.826V284.491H826.751V249.826H791.486ZM827.471 249.826V284.491H862.738V249.826H827.471ZM863.458 249.826V284.491H898.725V249.826H863.458ZM899.445 249.826V284.491H934.712V249.826H899.445ZM934.712 285.199H899.445V319.864H934.712V285.199ZM934.712 320.571H899.445V355.237H934.712V320.571ZM934.712 355.945H899.445V390.61H934.712V355.945ZM934.712 391.318H899.445V425.983H934.712V391.318ZM934.712 426.69H899.445V461.356H934.712V426.69ZM934.712 462.063H899.445V496.728H934.712V462.063ZM934.712 497.436H899.445V532.101H934.712V497.436ZM934.712 532.809H899.445V567.474H934.712V532.809ZM934.712 568.181H899.445V602.846H934.712V568.181ZM934.712 603.553H899.445V638.219H934.712V603.553ZM934.712 638.926H899.445V673.592H934.712V638.926ZM934.712 674.299H899.445V708.964H934.712V674.299ZM934.712 709.672H899.445V744.337H934.712V709.672ZM934.712 745.044H899.445V779.71H934.712V745.044ZM934.712 780.417H899.445V815.083H934.712V780.417ZM934.712 815.79H899.445V850.455H934.712V815.79ZM934.712 851.163H899.445V885.828H934.712V851.163ZM934.712 886.536H899.445V921.201H934.712V886.536ZM898.725 921.201V886.536H863.458V921.201H898.725ZM862.738 921.201V886.536H827.471V921.201H862.738ZM826.751 921.201V886.536H791.485V921.201H826.751ZM790.765 921.201V886.536H755.498V921.201H790.765ZM754.778 921.201V886.536H719.511V921.201H754.778ZM718.791 921.201V886.536H683.524V921.201H718.791ZM682.804 921.201V886.536H647.537V921.201H682.804ZM646.817 921.201V886.536H611.55V921.201H646.817ZM610.831 921.201V886.536H575.563V921.201H610.831ZM574.844 921.201V886.536H539.576V921.201H574.844ZM538.857 921.201V886.536H503.59V921.201H538.857ZM502.87 921.201V886.536H467.603V921.201H502.87ZM466.883 921.201V886.536H431.616V921.201H466.883ZM430.896 921.201V886.536H395.629V921.201H430.896ZM394.909 921.201V886.536H359.641V921.201H394.909ZM358.921 921.201V886.536H323.654V921.201H358.921ZM322.935 921.201V886.536H287.667V921.201H322.935ZM286.948 921.201V886.536H251.68V921.201H286.948ZM251.68 885.828H286.948V851.163H251.68V885.828ZM251.68 850.455H286.948V815.79H251.68V850.455ZM251.68 815.083H286.948V780.417H251.68V815.083ZM251.68 779.71H286.948V745.044H251.68V779.71ZM251.68 744.337H286.948V709.672H251.68V744.337ZM251.68 708.964H286.948V674.299H251.68V708.964ZM251.68 673.592H286.948V638.926H251.68V673.592ZM251.68 638.219H286.948V603.553H251.68V638.219ZM251.68 602.846H286.948V568.181H251.68V602.846ZM251.68 567.474H286.948V532.809H251.68V567.474ZM251.68 532.101H286.948V497.436H251.68V532.101ZM251.68 496.728H286.948V462.063H251.68V496.728ZM251.68 461.356H286.948V426.69H251.68V461.356ZM251.68 425.983H286.948V391.318H251.68V425.983ZM251.68 390.61H286.948V355.944H251.68V390.61ZM251.68 355.237H286.948V320.571H251.68V355.237ZM251.68 319.864H286.948V285.199H251.68V319.864ZM287.667 285.199V319.864H322.935V285.199H287.667ZM323.654 285.199V319.864H358.922V285.199H323.654ZM359.642 285.199V319.864H394.909V285.199H359.642ZM395.629 285.199V319.864H430.896V285.199H395.629ZM431.616 285.199V319.864H466.883V285.199H431.616ZM467.603 285.199V319.864H502.87V285.199H467.603ZM503.59 285.199V319.864H538.857V285.199H503.59ZM539.576 285.199V319.864H574.844V285.199H539.576ZM575.563 285.199V319.864H610.831V285.199H575.563ZM611.55 285.199V319.864H646.817V285.199H611.55ZM647.537 285.199V319.864H682.804V285.199H647.537ZM683.524 285.199V319.864H718.791V285.199H683.524ZM719.511 285.199V319.864H754.778V285.199H719.511ZM755.498 285.199V319.864H790.766V285.199H755.498ZM791.486 285.199V319.864H826.751V285.199H791.486ZM827.471 285.199V319.864H862.738V285.199H827.471ZM863.458 285.199V319.864H898.725V285.199H863.458ZM898.725 320.571H863.458V355.237H898.725V320.571ZM898.725 355.945H863.458V390.61H898.725V355.945ZM898.725 391.318H863.458V425.983H898.725V391.318ZM898.725 426.69H863.458V461.356H898.725V426.69ZM898.725 462.063H863.458V496.728H898.725V462.063ZM898.725 497.436H863.458V532.101H898.725V497.436ZM898.725 532.809H863.458V567.474H898.725V532.809ZM898.725 568.181H863.458V602.846H898.725V568.181ZM898.725 603.553H863.458V638.219H898.725V603.553ZM898.725 638.926H863.458V673.592H898.725V638.926ZM898.725 674.299H863.458V708.964H898.725V674.299ZM898.725 709.672H863.458V744.337H898.725V709.672ZM898.725 745.044H863.458V779.71H898.725V745.044ZM898.725 780.417H863.458V815.083H898.725V780.417ZM898.725 815.79H863.458V850.455H898.725V815.79ZM898.725 851.163H863.458V885.828H898.725V851.163ZM862.738 885.828V851.163H827.471V885.828H862.738ZM826.751 885.828V851.163H791.485V885.828H826.751ZM790.765 885.828V851.163H755.498V885.828H790.765ZM754.778 885.828V851.163H719.511V885.828H754.778ZM718.791 885.828V851.163H683.524V885.828H718.791ZM682.804 885.828V851.163H647.537V885.828H682.804ZM646.817 885.828V851.163H611.55V885.828H646.817ZM610.831 885.828V851.163H575.563V885.828H610.831ZM574.844 885.828V851.163H539.576V885.828H574.844ZM538.857 885.828V851.163H503.59V885.828H538.857ZM502.87 885.828V851.163H467.603V885.828H502.87ZM466.883 885.828V851.163H431.616V885.828H466.883ZM430.896 885.828V851.163H395.629V885.828H430.896ZM394.909 885.828V851.163H359.641V885.828H394.909ZM358.921 885.828V851.163H323.654V885.828H358.921ZM322.935 885.828V851.163H287.667V885.828H322.935ZM287.667 850.455H322.935V815.79H287.667V850.455ZM287.667 815.083H322.935V780.417H287.667V815.083ZM287.667 779.71H322.935V745.044H287.667V779.71ZM287.667 744.337H322.935V709.672H287.667V744.337ZM287.667 708.964H322.935V674.299H287.667V708.964ZM287.667 673.592H322.935V638.926H287.667V673.592ZM287.667 638.219H322.935V603.553H287.667V638.219ZM287.667 602.846H322.935V568.181H287.667V602.846ZM287.667 567.474H322.935V532.809H287.667V567.474ZM287.667 532.101H322.935V497.436H287.667V532.101ZM287.667 496.728H322.935V462.063H287.667V496.728ZM287.667 461.356H322.935V426.69H287.667V461.356ZM287.667 425.983H322.935V391.318H287.667V425.983ZM287.667 390.61H322.935V355.944H287.667V390.61ZM287.667 355.237H322.935V320.571H287.667V355.237ZM323.654 320.571V355.237H358.922V320.571H323.654ZM359.642 320.571V355.237H394.909V320.571H359.642ZM395.629 320.571V355.237H430.896V320.571H395.629ZM431.616 320.571V355.237H466.883V320.571H431.616ZM467.603 320.571V355.237H502.87V320.571H467.603ZM503.59 320.571V355.237H538.857V320.571H503.59ZM539.576 320.571V355.237H574.844V320.571H539.576ZM575.563 320.571V355.237L610.831 355.237V320.571H575.563ZM611.55 320.571V355.237H646.817V320.571H611.55ZM647.537 320.571V355.237H682.804V320.571H647.537ZM683.524 320.571V355.237H718.791V320.571H683.524ZM719.511 320.571V355.237H754.778V320.571H719.511ZM755.498 320.571V355.237H790.766V320.571H755.498ZM791.486 320.571V355.237H826.751V320.571H791.486ZM827.471 320.571V355.237H862.738V320.571H827.471ZM862.738 355.945H827.471V390.61H862.738V355.945ZM862.738 391.318H827.471V425.983H862.738V391.318ZM862.738 426.69H827.471V461.356H862.738V426.69ZM862.738 462.063H827.471V496.728H862.738V462.063ZM862.738 497.436H827.471V532.101H862.738V497.436ZM862.738 532.809H827.471V567.474H862.738V532.809ZM862.738 568.181H827.471V602.846H862.738V568.181ZM862.738 603.553H827.471V638.219H862.738V603.553ZM862.738 638.926H827.471V673.592H862.738V638.926ZM862.738 674.299H827.471V708.964H862.738V674.299ZM862.738 709.672H827.471V744.337H862.738V709.672ZM862.738 745.044H827.471V779.71H862.738V745.044ZM862.738 780.417H827.471V815.083H862.738V780.417ZM862.738 815.79H827.471V850.455H862.738V815.79ZM826.751 850.455V815.79H791.485V850.455H826.751ZM790.765 850.455V815.79H755.498V850.455H790.765ZM754.778 850.455V815.79H719.511V850.455H754.778ZM718.791 850.455V815.79H683.524V850.455H718.791ZM682.804 850.455V815.79H647.537V850.455H682.804ZM646.817 850.455V815.79H611.55V850.455H646.817ZM610.831 850.455V815.79H575.563V850.455H610.831ZM574.844 850.455V815.79H539.576V850.455H574.844ZM538.857 850.455V815.79H503.59V850.455H538.857ZM502.87 850.455V815.79H467.603V850.455H502.87ZM466.883 850.455V815.79H431.616V850.455H466.883ZM430.896 850.455V815.79H395.629V850.455H430.896ZM394.909 850.455V815.79H359.641V850.455H394.909ZM358.921 850.455V815.79H323.654V850.455H358.921ZM323.654 815.083H358.921V780.417H323.654V815.083ZM323.654 779.71H358.921V745.044H323.654V779.71ZM323.654 744.337H358.921V709.672H323.654V744.337ZM323.654 708.964H358.921V674.299H323.654V708.964ZM323.654 673.592H358.921V638.926H323.654V673.592ZM323.654 638.219H358.921V603.553H323.654V638.219ZM323.654 602.846H358.921L358.922 568.181H323.654V602.846ZM323.654 567.474H358.922V532.809H323.654V567.474ZM323.654 532.101H358.922V497.436H323.654V532.101ZM323.654 496.728H358.922V462.063H323.654V496.728ZM323.654 461.356H358.922V426.69H323.654V461.356ZM323.654 425.983H358.922V391.318H323.654V425.983ZM323.654 390.61H358.922V355.944H323.654V390.61ZM359.642 355.944V390.61H394.909V355.944H359.642ZM395.629 355.944V390.61H430.896V355.944H395.629ZM431.616 355.944V390.61H466.883V355.944H431.616ZM467.603 355.944V390.61H502.87V355.944H467.603ZM503.59 355.944V390.61H538.857V355.944H503.59ZM539.576 355.944V390.61H574.844V355.944H539.576ZM575.563 355.944V390.61H610.831V355.945L575.563 355.944ZM611.55 355.945V390.61H646.817V355.945H611.55ZM647.537 355.945V390.61H682.804V355.945H647.537ZM683.524 355.945V390.61H718.791V355.945H683.524ZM719.511 355.945V390.61H754.778V355.945H719.511ZM755.498 355.945V390.61H790.766V355.945H755.498ZM791.486 355.945V390.61H826.751V355.945H791.486ZM826.751 391.318H791.486V425.983H826.751V391.318ZM826.751 426.69H791.486V461.356H826.751V426.69ZM826.751 462.063H791.486V496.728H826.751V462.063ZM826.751 497.436H791.486V532.101H826.751V497.436ZM826.751 532.809H791.486V567.474H826.751V532.809ZM826.751 568.181H791.486L791.485 602.846H826.751V568.181ZM826.751 603.553H791.485V638.219H826.751V603.553ZM826.751 638.926H791.485V673.592H826.751V638.926ZM826.751 674.299H791.485V708.964H826.751V674.299ZM826.751 709.672H791.485V744.337H826.751V709.672ZM826.751 745.044H791.485V779.71H826.751V745.044ZM826.751 780.417H791.485V815.083H826.751V780.417ZM790.765 815.083V780.417H755.498V815.083H790.765ZM754.778 815.083V780.417H719.511V815.083H754.778ZM718.791 815.083V780.417H683.524V815.083H718.791ZM682.804 815.083V780.417H647.537V815.083H682.804ZM646.817 815.083V780.417H611.55V815.083H646.817ZM610.831 815.083V780.417H575.563V815.083H610.831ZM574.844 815.083V780.417H539.576V815.083H574.844ZM538.857 815.083V780.417H503.59V815.083H538.857ZM502.87 815.083V780.417H467.603V815.083H502.87ZM466.883 815.083V780.417H431.616V815.083H466.883ZM430.896 815.083V780.417H395.629V815.083H430.896ZM394.909 815.083V780.417H359.641V815.083H394.909ZM359.641 779.71H394.909V745.044H359.641V779.71ZM359.641 744.337H394.909V709.672H359.641V744.337ZM359.641 708.964H394.909V674.299H359.641V708.964ZM359.641 673.592H394.909V638.926H359.641V673.592ZM359.641 638.219H394.909V603.553H359.641V638.219ZM359.641 602.846H394.909V568.181H359.642L359.641 602.846ZM359.642 567.474H394.909V532.809H359.642V567.474ZM359.642 532.101H394.909V497.436H359.642V532.101ZM359.642 496.728H394.909V462.063H359.642V496.728ZM359.642 461.356H394.909V426.69H359.642V461.356ZM359.642 425.983H394.909V391.318H359.642V425.983ZM395.629 391.318V425.983H430.896V391.318H395.629ZM431.616 391.318V425.983H466.883V391.318H431.616ZM467.603 391.318V425.983H502.87V391.318H467.603ZM503.59 391.318V425.983H538.857V391.318H503.59ZM539.576 391.318V425.983H574.844V391.318H539.576ZM575.563 391.318V425.983H610.831V391.318H575.563ZM611.55 391.318V425.983H646.817V391.318H611.55ZM647.537 391.318V425.983H682.804V391.318H647.537ZM683.524 391.318V425.983H718.791V391.318H683.524ZM719.511 391.318V425.983H754.778V391.318H719.511ZM755.498 391.318V425.983H790.766V391.318H755.498ZM790.766 426.69H755.498V461.356H790.766V426.69ZM790.766 462.063H755.498V496.728H790.766V462.063ZM790.766 497.436H755.498V532.101H790.766V497.436ZM790.766 532.809H755.498V567.474H790.766V532.809ZM790.766 568.181H755.498V602.846H790.765L790.766 568.181ZM790.765 603.553H755.498V638.219H790.765V603.553ZM790.765 638.926H755.498V673.592H790.765V638.926ZM790.765 674.299H755.498V708.964H790.765V674.299ZM790.765 709.672H755.498V744.337H790.765V709.672ZM790.765 745.044H755.498V779.71H790.765V745.044ZM754.778 779.71V745.044H719.511V779.71H754.778ZM718.791 779.71V745.044H683.524V779.71H718.791ZM682.804 779.71V745.044H647.537V779.71H682.804ZM646.817 779.71V745.044H611.55V779.71H646.817ZM610.831 779.71V745.044H575.563V779.71H610.831ZM574.844 779.71V745.044H539.576V779.71H574.844ZM538.857 779.71V745.044H503.59V779.71H538.857ZM502.87 779.71V745.044H467.603V779.71H502.87ZM466.883 779.71V745.044H431.616V779.71H466.883ZM430.896 779.71V745.044H395.629V779.71H430.896ZM395.629 744.337H430.896V709.672H395.629V744.337ZM395.629 708.964H430.896V674.299H395.629V708.964ZM395.629 673.592H430.896V638.926H395.629V673.592ZM395.629 638.219H430.896V603.553H395.629V638.219ZM395.629 602.846H430.896V568.181H395.629V602.846ZM395.629 567.474H430.896V532.809H395.629V567.474ZM395.629 532.101H430.896V497.436H395.629V532.101ZM395.629 496.728H430.896V462.063H395.629V496.728ZM395.629 461.356H430.896V426.69H395.629V461.356ZM431.616 426.69V461.356H466.883V426.69H431.616ZM467.603 426.69V461.356H502.87V426.69H467.603ZM503.59 426.69V461.356H538.857V426.69H503.59ZM539.576 426.69V461.356H574.844V426.69H539.576ZM575.563 426.69V461.356H610.831V426.69H575.563ZM611.55 426.69V461.356H646.817V426.69H611.55ZM647.537 426.69V461.356H682.804V426.69H647.537ZM683.524 426.69V461.356H718.791V426.69H683.524ZM719.511 426.69V461.356H754.778V426.69H719.511ZM754.778 462.063H719.511V496.728H754.778V462.063ZM754.778 497.436H719.511V532.101H754.778V497.436ZM754.778 532.809H719.511V567.474H754.778V532.809ZM754.778 568.181H719.511V602.846H754.778V568.181ZM754.778 603.553H719.511V638.219H754.778V603.553ZM754.778 638.926H719.511V673.592H754.778V638.926ZM754.778 674.299H719.511V708.964H754.778V674.299ZM754.778 709.672H719.511V744.337H754.778V709.672ZM718.791 744.337V709.672H683.524V744.337H718.791ZM682.804 744.337V709.672H647.537V744.337H682.804ZM646.817 744.337V709.672H611.55V744.337H646.817ZM610.831 744.337V709.672H575.563V744.337H610.831ZM574.844 744.337V709.672H539.576V744.337H574.844ZM538.857 744.337V709.672H503.59V744.337H538.857ZM502.87 744.337V709.672H467.603V744.337H502.87ZM466.883 744.337V709.672H431.616V744.337H466.883ZM431.616 708.964H466.883V674.299H431.616V708.964ZM431.616 673.592H466.883V638.926H431.616V673.592ZM431.616 638.219H466.883V603.553H431.616V638.219ZM431.616 602.846H466.883V568.181H431.616V602.846ZM431.616 567.474H466.883V532.809H431.616V567.474ZM431.616 532.101H466.883V497.436H431.616V532.101ZM431.616 496.728H466.883V462.063H431.616V496.728ZM467.603 462.063V496.728H502.87V462.063H467.603ZM503.59 462.063V496.728H538.857V462.063H503.59ZM539.576 462.063V496.728H574.844V462.063H539.576ZM575.563 462.063V496.728H610.831V462.063H575.563ZM611.55 462.063V496.728H646.817V462.063H611.55ZM647.537 462.063V496.728H682.804V462.063H647.537ZM683.524 462.063V496.728H718.791V462.063H683.524ZM718.791 497.436H683.524V532.101H718.791V497.436ZM718.791 532.809H683.524V567.474H718.791V532.809ZM718.791 568.181H683.524V602.846H718.791V568.181ZM718.791 603.553H683.524V638.219H718.791V603.553ZM718.791 638.926H683.524V673.592H718.791V638.926ZM718.791 674.299H683.524V708.964H718.791V674.299ZM682.804 708.964V674.299H647.537V708.964H682.804ZM646.817 708.964V674.299H611.55V708.964H646.817ZM610.831 708.964V674.299H575.563V708.964H610.831ZM574.844 708.964V674.299H539.576V708.964H574.844ZM538.857 708.964V674.299H503.59V708.964H538.857ZM502.87 708.964V674.299H467.603V708.964H502.87ZM467.603 673.592H502.87V638.926H467.603V673.592ZM467.603 638.219H502.87V603.553H467.603V638.219ZM467.603 602.846H502.87V568.181H467.603V602.846ZM467.603 567.474H502.87V532.809H467.603V567.474ZM467.603 532.101H502.87V497.436H467.603V532.101ZM503.59 497.436V532.101H538.857V497.436H503.59ZM539.576 497.436V532.101H574.844V497.436H539.576ZM575.563 497.436V532.101H610.831V497.436H575.563ZM611.55 497.436V532.101H646.817V497.436H611.55ZM647.537 497.436V532.101H682.804V497.436H647.537ZM682.804 532.809H647.537V567.474H682.804V532.809ZM682.804 568.181H647.537V602.846H682.804V568.181ZM682.804 603.553H647.537V638.219H682.804V603.553ZM682.804 638.926H647.537V673.592H682.804V638.926ZM646.817 673.592V638.926H611.55V673.592H646.817ZM610.831 673.592V638.926H575.563V673.592H610.831ZM574.844 673.592V638.926H539.576V673.592H574.844ZM538.857 673.592V638.926H503.59V673.592H538.857ZM503.59 638.219H538.857V603.553H503.59V638.219ZM503.59 602.846H538.857V568.181H503.59V602.846ZM503.59 567.474H538.857V532.809H503.59V567.474ZM539.576 532.809V567.474H574.844V532.809H539.576ZM575.563 532.809V567.474H610.831V532.809H575.563ZM611.55 532.809V567.474H646.817V532.809H611.55ZM646.817 568.181H611.55V602.846H646.817V568.181ZM646.817 603.553H611.55V638.219H646.817V603.553ZM610.831 638.219V603.553H575.563V638.219H610.831ZM574.844 638.219V603.553H539.576V638.219H574.844ZM539.576 602.846H574.844V568.181H539.576V602.846ZM575.563 568.181V602.846H610.831V568.181H575.563ZM143 1062.69H1078.66V1063.4H143L143 1062.69ZM1078.66 1062.69V143H1079.38V1062.69H1078.66Z" fill="url(#paint0_radial_1_1525)" fill-opacity="0.5"/>
</g>
<defs>
<filter id="filter0_f_1_1525" x="0.133316" y="0.16188" width="1221.62" height="1206.86" filterUnits="userSpaceOnUse" color-interpolation-filters="sRGB">
<feFlood flood-opacity="0" result="BackgroundImageFix"/>
<feBlend mode="normal" in="SourceGraphic" in2="BackgroundImageFix" result="shape"/>
<feGaussianBlur stdDeviation="89.1236" result="effect1_foregroundBlur_1_1525"/>
</filter>
<filter id="filter1_f_1_1525" x="239.173" y="-279.766" width="1153.56" height="1544.69" filterUnits="userSpaceOnUse" color-interpolation-filters="sRGB">
<feFlood flood-opacity="0" result="BackgroundImageFix"/>
<feBlend mode="normal" in="SourceGraphic" in2="BackgroundImageFix" result="shape"/>
<feGaussianBlur stdDeviation="66.0744" result="effect1_foregroundBlur_1_1525"/>
</filter>
<filter id="filter2_f_1_1525" x="128.517" y="211.829" width="824.651" height="890.722" filterUnits="userSpaceOnUse" color-interpolation-filters="sRGB">
<feFlood flood-opacity="0" result="BackgroundImageFix"/>
<feBlend mode="normal" in="SourceGraphic" in2="BackgroundImageFix" result="shape"/>
<feGaussianBlur stdDeviation="66.0744" result="effect1_foregroundBlur_1_1525"/>
</filter>
<filter id="filter3_f_1_1525" x="-455.595" y="-141.748" width="1787.95" height="1343.33" filterUnits="userSpaceOnUse" color-interpolation-filters="sRGB">
<feFlood flood-opacity="0" result="BackgroundImageFix"/>
<feBlend mode="normal" in="SourceGraphic" in2="BackgroundImageFix" result="shape"/>
<feGaussianBlur stdDeviation="89.1236" result="effect1_foregroundBlur_1_1525"/>
</filter>
<radialGradient id="paint0_radial_1_1525" cx="0" cy="0" r="1" gradientUnits="userSpaceOnUse" gradientTransform="translate(611.19 603.2) rotate(90) scale(490.973 499.498)">
<stop stop-color="white" stop-opacity="0.69"/>
<stop offset="1" stop-color="#F0F3F9" stop-opacity="0"/>
</radialGradient>
</defs>
</svg>
