<svg width="19" height="18" viewBox="0 0 19 18" fill="none" xmlns="http://www.w3.org/2000/svg">
<path d="M9.05682 1.125C5.93169 1.125 3.396 3.39293 3.396 6.1875C3.396 10.6875 9.05682 16.875 9.05682 16.875C9.05682 16.875 14.7177 10.6875 14.7177 6.1875C14.7177 3.39293 12.182 1.125 9.05682 1.125ZM9.05682 9C8.60898 9 8.1712 8.86804 7.79883 8.62081C7.42646 8.37357 7.13624 8.02217 6.96485 7.61104C6.79347 7.1999 6.74863 6.7475 6.836 6.31105C6.92337 5.87459 7.13903 5.47368 7.4557 5.15901C7.77237 4.84434 8.17584 4.63005 8.61508 4.54323C9.05431 4.45642 9.50959 4.50097 9.92335 4.67127C10.3371 4.84157 10.6907 5.12996 10.9395 5.49997C11.1884 5.86998 11.3212 6.30499 11.3212 6.75C11.3205 7.34654 11.0817 7.91846 10.6572 8.34027C10.2327 8.76209 9.65716 8.99935 9.05682 9Z" fill="#333333"/>
</svg>
