<svg width="384" height="32" viewBox="0 0 384 32" fill="none" xmlns="http://www.w3.org/2000/svg">
<path d="M18.0464 3.80933C19.445 2.29995 21.3924 1.36302 23.5453 1.36302C26.4081 1.36302 28.9056 3.01676 30.2353 5.47165C31.4251 4.92119 32.7136 4.63746 34.0164 4.63906C39.1796 4.63906 43.3653 9.01354 43.3653 14.4086C43.3653 19.8036 39.1796 24.1788 34.0164 24.1788C33.3981 24.1791 32.7813 24.1155 32.1752 23.9887C31.004 26.1534 28.7719 27.6156 26.2103 27.6156C25.1376 27.6156 24.1236 27.3591 23.2206 26.9024C22.0335 29.7961 19.2672 31.825 16.0431 31.825C12.686 31.825 9.82454 29.6239 8.72572 26.5379C8.23663 26.6452 7.73804 26.6991 7.23812 26.6987C3.24061 26.698 0 23.3062 0 19.1218C0 16.3174 1.4559 13.869 3.61906 12.559C3.16073 11.4655 2.92488 10.2858 2.92627 9.09358C2.92627 4.28101 6.69767 0.379639 11.3494 0.379639C14.0806 0.379639 16.5077 1.72464 18.0464 3.80933Z" fill="#00A1E0"/>
<path d="M6.28046 16.6869C6.25358 16.7605 6.29011 16.7762 6.29907 16.7884C6.38041 16.8498 6.46314 16.8941 6.54655 16.9434C6.98911 17.1864 7.40616 17.2579 7.8432 17.2579C8.73246 17.2579 9.28531 16.7676 9.28531 15.9786V15.9636C9.28531 15.234 8.66214 14.9688 8.07689 14.778L8.00106 14.7523C7.55988 14.6036 7.17936 14.4757 7.17936 14.1748V14.1591C7.17936 13.9018 7.40202 13.7124 7.7467 13.7124C8.14073 13.7209 8.52758 13.8233 8.87722 14.0119C8.87722 14.0119 8.96339 14.0698 8.99441 13.9833L9.17571 13.4787C9.19225 13.4301 9.16261 13.3944 9.13228 13.3751C8.79795 13.1643 8.33609 13.0206 7.85768 13.0206L7.76875 13.0214C6.95464 13.0214 6.38593 13.5309 6.38593 14.2613V14.2763C6.38593 15.046 7.01323 15.2961 7.60055 15.4698L7.69499 15.4998C8.12308 15.6363 8.49188 15.7535 8.49188 16.0658V16.0816C8.49188 16.3667 8.25198 16.5797 7.86526 16.5797C7.71499 16.5797 7.23658 16.5761 6.71957 16.2381L6.57274 16.143C6.54724 16.1266 6.48382 16.0973 6.45624 16.1845L6.28046 16.689V16.6869ZM19.3036 16.6869C19.276 16.7605 19.3132 16.7762 19.3222 16.7884C19.4035 16.8498 19.4869 16.8941 19.5696 16.9434C20.0122 17.1864 20.4293 17.2579 20.8663 17.2579C21.7556 17.2579 22.3084 16.7676 22.3084 15.9786V15.9636C22.3084 15.234 21.6852 14.9688 21.1 14.778L21.0242 14.7523C20.583 14.6036 20.2025 14.4757 20.2025 14.1748V14.1591C20.2025 13.9018 20.4251 13.7124 20.7698 13.7124C21.1638 13.7209 21.5507 13.8233 21.9003 14.0119C21.9003 14.0119 21.9865 14.0698 22.0175 13.9833L22.1988 13.4787C22.2153 13.4301 22.1857 13.3944 22.1554 13.3751C21.821 13.1643 21.3592 13.0206 20.8808 13.0206L20.7919 13.0214C19.9777 13.0214 19.409 13.5309 19.409 14.2613V14.2763C19.409 15.046 20.0363 15.2961 20.6236 15.4698L20.7181 15.4998C21.1462 15.6363 21.5157 15.7535 21.5157 16.0658V16.0816C21.5157 16.3667 21.2751 16.5797 20.8884 16.5797C20.7381 16.5797 20.2597 16.5761 19.7427 16.2381L19.5965 16.143C19.5807 16.1323 19.5048 16.1023 19.4793 16.1845L19.3036 16.689V16.6869ZM28.194 15.1411C28.194 15.587 28.1141 15.9386 27.9555 16.1866C27.797 16.4346 27.5626 16.5518 27.2331 16.5518C26.9036 16.5518 26.6671 16.4325 26.5134 16.1866C26.3597 15.9408 26.2783 15.587 26.2783 15.1411C26.2783 14.6951 26.3576 14.3449 26.5134 14.0991C26.6692 13.8532 26.9029 13.7374 27.2331 13.7374C27.5633 13.7374 27.7997 13.8561 27.9562 14.0991C28.1127 14.3421 28.194 14.6958 28.194 15.1411ZM28.9365 14.3142C28.8634 14.059 28.7496 13.8332 28.5987 13.646C28.4431 13.4543 28.2483 13.3007 28.0286 13.1964C27.8018 13.0871 27.5336 13.0314 27.2331 13.0314C26.9593 13.0257 26.6875 13.082 26.4369 13.1964C26.217 13.3008 26.0221 13.4543 25.8661 13.646C25.711 13.8426 25.596 14.07 25.5283 14.3142C25.4541 14.583 25.4174 14.8615 25.4194 15.1411C25.4173 15.4207 25.454 15.6991 25.5283 15.9679C25.6007 16.2216 25.7151 16.4482 25.8668 16.6361C26.0219 16.8274 26.2168 16.9796 26.4369 17.0814C26.6644 17.1886 26.9318 17.2429 27.2331 17.2429C27.5343 17.2429 27.8011 17.1886 28.0286 17.0814C28.2561 16.9742 28.4477 16.8241 28.5987 16.6361C28.7543 16.4398 28.8693 16.2123 28.9365 15.9679C29.0112 15.6992 29.0482 15.4207 29.0461 15.1411C29.0461 14.8466 29.0095 14.5686 28.9365 14.3142ZM35.0344 16.4332C35.0096 16.3581 34.94 16.3867 34.94 16.3867C34.8286 16.4332 34.7128 16.4674 34.5946 16.4889C34.4726 16.5089 34.334 16.5189 34.1872 16.5189C33.8274 16.5189 33.5427 16.4082 33.3379 16.1895C33.1332 15.9708 33.0181 15.617 33.0194 15.1382C33.0208 14.7022 33.1222 14.3749 33.3041 14.1248C33.4861 13.8747 33.7605 13.7489 34.1279 13.7489C34.4347 13.7489 34.6677 13.7853 34.9124 13.8654C34.9124 13.8654 34.971 13.8918 34.9986 13.8125L35.1805 13.2865C35.2005 13.2286 35.1523 13.2036 35.135 13.1964C35.0385 13.1571 34.811 13.0942 34.6394 13.0671C34.4788 13.0414 34.2913 13.0278 34.0824 13.0278C33.7701 13.0278 33.4923 13.0828 33.2545 13.1929C33.026 13.2957 32.8218 13.4488 32.6562 13.6417C32.4962 13.8304 32.3756 14.0548 32.2949 14.3099C32.2125 14.5776 32.1716 14.8572 32.1736 15.1382C32.1736 15.7764 32.3397 16.2917 32.6679 16.6697C32.996 17.0478 33.4903 17.2415 34.1341 17.2415C34.5146 17.2415 34.9048 17.1614 35.1854 17.0471C35.1854 17.0471 35.2391 17.0199 35.2157 16.9556L35.0337 16.4339L35.0344 16.4332ZM36.3338 14.7137C36.369 14.4664 36.4351 14.2599 36.5372 14.0991C36.6909 13.8554 36.926 13.7217 37.2555 13.7217C37.585 13.7217 37.8035 13.8561 37.96 14.0991C38.0641 14.2599 38.1089 14.475 38.1268 14.7137H36.3338ZM38.8341 14.1691C38.7713 13.9225 38.6149 13.6738 38.5121 13.5602C38.3501 13.3794 38.1923 13.2536 38.0351 13.1836C37.8072 13.0836 37.5622 13.0323 37.3147 13.0328C37.0011 13.0328 36.7164 13.0871 36.4855 13.2C36.2545 13.3129 36.0595 13.4666 35.9064 13.6574C35.7494 13.8562 35.6335 14.0863 35.5659 14.3335C35.4928 14.5915 35.4556 14.8695 35.4556 15.1646C35.453 15.4461 35.4916 15.7263 35.57 15.9958C35.6458 16.2474 35.7692 16.4725 35.9347 16.6576C36.1103 16.8508 36.3267 16.9992 36.5668 17.0914C36.8219 17.1929 37.1266 17.245 37.4795 17.2443C38.2054 17.2415 38.588 17.0742 38.7451 16.9842C38.7727 16.9685 38.7996 16.9399 38.7658 16.8598L38.6018 16.3831C38.5769 16.3124 38.5073 16.3381 38.5073 16.3381C38.3274 16.4074 38.0716 16.5311 37.4754 16.5304C37.0859 16.5297 36.7964 16.411 36.6151 16.2245C36.4289 16.0337 36.3386 15.7535 36.3221 15.3583L38.8354 15.3612C38.8354 15.3612 38.9016 15.3597 38.9085 15.2933C38.9113 15.2654 38.9954 14.7587 38.8341 14.1713V14.1691ZM16.2036 14.7137C16.2394 14.4664 16.3049 14.2599 16.4069 14.0991C16.5607 13.8554 16.7957 13.7217 17.1252 13.7217C17.4547 13.7217 17.6733 13.8561 17.8297 14.0991C17.9331 14.2599 17.9779 14.475 17.9959 14.7137H16.2029H16.2036ZM18.7031 14.1691C18.6404 13.9225 18.4846 13.6738 18.3819 13.5602C18.2199 13.3794 18.062 13.2536 17.9049 13.1836C17.677 13.0836 17.432 13.0323 17.1845 13.0328C16.8715 13.0328 16.5862 13.0871 16.3552 13.2C16.1243 13.3129 15.9292 13.4666 15.7762 13.6574C15.6191 13.8562 15.5032 14.0863 15.4356 14.3335C15.3608 14.6037 15.3237 14.8835 15.3253 15.1646C15.3253 15.4648 15.3633 15.7442 15.4398 15.9958C15.5163 16.2474 15.639 16.4725 15.8044 16.6576C15.9699 16.8427 16.1822 16.9899 16.4366 17.0914C16.6909 17.1929 16.9963 17.245 17.3493 17.2443C18.0751 17.2415 18.4577 17.0742 18.6149 16.9842C18.6425 16.9685 18.6694 16.9399 18.6356 16.8598L18.4715 16.3831C18.446 16.3124 18.3764 16.3381 18.3764 16.3381C18.1965 16.4074 17.9414 16.5311 17.3444 16.5304C16.9556 16.5297 16.6661 16.411 16.4848 16.2245C16.2987 16.0337 16.2084 15.7535 16.1919 15.3583L18.7052 15.3612C18.7052 15.3612 18.7714 15.3597 18.7783 15.2933C18.7803 15.2654 18.8644 14.7587 18.7031 14.1713V14.1691ZM10.7708 16.4189C10.6723 16.3374 10.6592 16.3174 10.6254 16.2645C10.5758 16.1845 10.5509 16.0708 10.5509 15.9258C10.5509 15.6964 10.624 15.532 10.775 15.4212C10.7729 15.4219 10.9914 15.2261 11.5036 15.2332C11.7319 15.2376 11.9597 15.2577 12.1854 15.2933V16.4775C12.1854 16.4775 11.8669 16.5482 11.5071 16.5711C10.9956 16.6033 10.7681 16.4182 10.7702 16.4189H10.7708ZM11.7711 14.5893L11.3789 14.5772C11.1699 14.5764 10.9618 14.604 10.7598 14.6594C10.5715 14.7099 10.3935 14.7954 10.2345 14.9116C10.0828 15.0239 9.95799 15.1708 9.86988 15.3412C9.78095 15.5127 9.73614 15.7149 9.73614 15.9415C9.73614 16.168 9.77475 16.3724 9.85126 16.5361C9.92607 16.698 10.0389 16.8378 10.1794 16.9427C10.3193 17.0485 10.4917 17.1257 10.6916 17.1729C10.8915 17.22 11.1121 17.2429 11.3568 17.2429C11.6146 17.2429 11.871 17.2215 12.1206 17.1771L12.7541 17.0506L12.9299 17.0042C12.9926 16.9885 12.9871 16.9191 12.9871 16.9191L12.9857 14.5379C12.9857 14.0155 12.8513 13.6288 12.5859 13.3887C12.3205 13.1486 11.9338 13.0285 11.4312 13.0285C11.2054 13.0311 10.9802 13.0529 10.7578 13.0935C10.7578 13.0935 10.2083 13.2036 9.98224 13.3865C9.98224 13.3865 9.93261 13.4187 9.96018 13.4902L10.138 13.9854C10.1601 14.0498 10.2201 14.0276 10.2201 14.0276C10.2201 14.0276 10.2394 14.0197 10.2614 14.0062C10.7453 13.7339 11.3568 13.7417 11.3568 13.7417C11.6284 13.7417 11.8373 13.7982 11.9786 13.9097C12.1158 14.0183 12.1854 14.1827 12.1854 14.53V14.6401L11.7711 14.5893ZM32.0447 13.2472C32.064 13.1886 32.0233 13.16 32.0068 13.1536C31.8691 13.1143 31.728 13.0892 31.5856 13.0785C31.2699 13.0585 31.0948 13.1135 30.9376 13.1864C30.7805 13.2593 30.6088 13.3773 30.5123 13.5109V13.1943C30.5123 13.15 30.482 13.115 30.4399 13.115H29.7954C29.7533 13.115 29.723 13.15 29.723 13.1943V17.0785C29.723 17.1221 29.7575 17.1578 29.7995 17.1578H30.4599C30.4799 17.1578 30.4992 17.1493 30.5137 17.1343C30.5207 17.1269 30.5263 17.1182 30.5301 17.1087C30.5338 17.0991 30.5358 17.0889 30.5357 17.0785V15.1382C30.5357 14.8781 30.5633 14.6179 30.6191 14.455C30.675 14.292 30.7474 14.1641 30.839 14.0719C30.9264 13.9829 31.033 13.9168 31.1499 13.879C31.2664 13.8418 31.396 13.8296 31.487 13.8296C31.5801 13.8318 31.6727 13.8436 31.7635 13.8647C31.8117 13.8704 31.8386 13.8396 31.8551 13.7946L32.044 13.2479M25.8447 11.4469C25.7641 11.4212 25.6917 11.4041 25.5966 11.3855C25.4836 11.3657 25.3692 11.3566 25.2547 11.3583C24.7997 11.3583 24.4419 11.4912 24.1903 11.7535C23.9387 12.0158 23.7698 12.4117 23.685 12.9349L23.654 13.1107H23.0832C23.0832 13.1107 23.0143 13.1085 22.9991 13.1864L22.9061 13.7282C22.8992 13.7796 22.9212 13.8118 22.9874 13.8118H23.543L22.9798 17.0707C22.9357 17.3329 22.8854 17.5488 22.8289 17.7124C22.7723 17.8761 22.7199 17.9947 22.6531 18.0826C22.589 18.167 22.5283 18.2299 22.4235 18.2663C22.3279 18.2974 22.228 18.3123 22.1278 18.3106C22.0602 18.3094 21.9928 18.3017 21.9265 18.2877C21.8665 18.2749 21.8355 18.262 21.7907 18.242C21.7907 18.242 21.7259 18.2163 21.6997 18.2835L21.5129 18.813C21.4957 18.8652 21.5205 18.9052 21.5515 18.9174C21.626 18.9445 21.6804 18.9624 21.7811 18.9874C21.9019 19.0148 22.0255 19.0268 22.1492 19.0231C22.3801 19.0231 22.5917 18.9895 22.7661 18.9238C22.9452 18.8534 23.1048 18.7382 23.2308 18.5886C23.3769 18.4207 23.4693 18.2456 23.5568 18.0054C23.6561 17.7217 23.7302 17.4291 23.7781 17.1314L24.3447 13.8118H25.1726C25.1726 13.8118 25.2423 13.8146 25.2567 13.7353L25.3505 13.1936C25.3567 13.1414 25.336 13.11 25.2685 13.11H24.4647C24.4688 13.0914 24.5053 12.7984 24.5977 12.5225C24.637 12.4053 24.7115 12.3103 24.7735 12.2445C24.8355 12.1788 24.9065 12.1352 24.9844 12.1087C25.0623 12.0823 25.1547 12.0694 25.2547 12.0694C25.3239 12.0693 25.3929 12.0762 25.4608 12.0901L25.5897 12.123C25.6717 12.1487 25.6827 12.1237 25.6993 12.083L25.8916 11.5363C25.9116 11.4777 25.8627 11.4527 25.8454 11.4455L25.8447 11.4469ZM14.6153 17.0785C14.6153 17.1221 14.585 17.1571 14.5429 17.1571H13.8763C13.8343 17.1571 13.8047 17.1221 13.8047 17.0785V11.5213C13.8047 11.4777 13.8343 11.4427 13.8763 11.4427H14.5429C14.585 11.4427 14.6153 11.4777 14.6153 11.5213V17.0785Z" fill="white"/>
<path d="M47.387 18.2816H48.1908V15.0849C48.3955 15.3414 48.6531 15.5469 48.9447 15.6864C49.2364 15.8258 49.5544 15.8955 49.8755 15.8903C51.2963 15.8903 52.3971 14.5882 52.3971 12.9188C52.3971 11.2607 51.3183 9.9586 49.9196 9.9586C49.2041 9.9586 48.5871 10.2781 48.1797 10.8584V10.0294H47.387V18.2816ZM49.7211 10.7162C50.7999 10.7162 51.6037 11.6631 51.6037 12.9302C51.6037 14.1973 50.7999 15.1442 49.7211 15.1442C49.1048 15.1442 48.543 14.8484 48.1908 14.3388V11.5094C48.532 11.0006 49.0828 10.7162 49.7211 10.7162ZM55.5226 15.9139C56.183 15.9139 56.7559 15.6531 57.2294 15.1321V15.8067H58.0222V11.9704C58.0222 10.6561 57.2736 9.93359 55.9411 9.93359C55.2917 9.93359 54.6527 10.1108 53.9151 10.4903L54.2122 11.1535C54.8395 10.8105 55.3462 10.6561 55.8418 10.6561C56.7559 10.6561 57.2294 11.1414 57.2294 12.089V12.8823C56.7559 12.5743 56.2058 12.4321 55.5888 12.4321C54.3776 12.4321 53.5739 13.1189 53.5739 14.1487C53.5739 15.1907 54.3776 15.9139 55.5226 15.9139ZM54.3445 14.1258C54.3445 13.4862 54.8843 13.0603 55.7101 13.0603C56.3154 13.0603 56.7779 13.1903 57.2294 13.4748V14.5875C56.7889 15.0377 56.2933 15.2507 55.6881 15.2507C54.8843 15.2507 54.3445 14.8005 54.3445 14.1258ZM59.6559 15.8074H60.4597V11.8532C60.7348 11.1071 61.2414 10.6811 61.9018 10.6811C62.0783 10.6811 62.2872 10.7283 62.4636 10.7876V10.0058C62.3007 9.94768 62.1292 9.91962 61.957 9.92287C61.2745 9.92287 60.7348 10.3967 60.4597 11.2014V10.0294H59.6559V15.8074ZM64.187 14.5046C64.187 15.428 64.6716 15.9139 65.5967 15.9139C65.9048 15.9139 66.235 15.8668 66.5328 15.7603V14.9906C66.2927 15.0962 66.034 15.1486 65.7732 15.1442C65.2114 15.1442 64.9915 14.8955 64.9915 14.2802V10.7397H66.5328V10.0294H64.9915V8.24126L64.1877 8.44279V10.0294H63.0751V10.7397H64.187V14.5046ZM67.7095 15.8074H68.5133V11.5452C68.8325 10.9649 69.3281 10.6568 69.9223 10.6568C70.8033 10.6568 71.3651 11.2965 71.3651 12.3141V15.8067H72.1689V12.0654C72.1689 10.7983 71.3762 9.9343 70.2201 9.9343C69.5039 9.9343 68.9207 10.2773 68.5133 10.9641V10.0286H67.7095V15.8074ZM78.2221 15.1442L77.7154 14.5639C77.3521 14.9313 76.8013 15.1557 76.2402 15.1557C75.2158 15.1557 74.401 14.2795 74.3245 13.1074H78.5412V12.8473C78.5412 11.1893 77.4845 9.9343 76.0747 9.9343C74.6437 9.9343 73.5428 11.225 73.5428 12.918C73.5428 14.6111 74.6988 15.9139 76.2071 15.9139C76.9557 15.9139 77.6051 15.6652 78.2221 15.1442ZM76.0637 10.6804C76.9447 10.6804 77.6271 11.4501 77.7485 12.4921H74.3466C74.4892 11.4265 75.1717 10.6804 76.0637 10.6804ZM79.9137 15.8074H80.7175V11.8532C80.9925 11.1071 81.4992 10.6811 82.1596 10.6811C82.3361 10.6811 82.5449 10.7283 82.7214 10.7876V10.0058C82.556 9.94645 82.4022 9.92287 82.2147 9.92287C81.5323 9.92287 80.9925 10.3967 80.7175 11.2014V10.0294H79.9137V15.8074ZM48.3279 22.2745C47.753 22.2745 47.3084 21.7578 47.3084 21.0824C47.3084 20.4192 47.753 19.8968 48.3224 19.8968C48.625 19.8968 48.9332 20.0433 49.1407 20.2856L49.4192 19.9604C49.2741 19.8064 49.1007 19.6841 48.9092 19.6009C48.7178 19.5177 48.5121 19.4751 48.3045 19.4758C47.498 19.4758 46.8755 20.1834 46.8755 21.0824C46.8755 21.9879 47.5042 22.6954 48.3045 22.6954C48.7257 22.6954 49.1228 22.5103 49.4012 22.1916L49.1345 21.905C49.034 22.0236 48.9098 22.1182 48.7705 22.182C48.6312 22.2458 48.4802 22.2774 48.3279 22.2745ZM49.8052 21.0824C49.8052 22.0008 50.416 22.7018 51.2101 22.7018C52.0104 22.7018 52.6212 22.0072 52.6212 21.0824C52.6212 20.1641 52.0166 19.4758 51.2101 19.4758C50.4098 19.4758 49.8052 20.1641 49.8052 21.0824ZM51.2101 22.2873C50.6469 22.2873 50.2319 21.7835 50.2319 21.0888C50.2319 20.4006 50.6469 19.8839 51.2101 19.8839C51.7733 19.8839 52.1945 20.4006 52.1945 21.0888C52.1945 21.7771 51.7733 22.2873 51.2101 22.2873Z" fill="#31547E"/>
<path d="M53.3809 22.6382H53.8138V20.3242C53.9854 20.0183 54.2225 19.8653 54.519 19.8653C54.9574 19.8653 55.2366 20.2034 55.2366 20.7451V22.6382H55.6695V20.63C55.6708 20.538 55.663 20.446 55.646 20.3556C55.8239 20.024 56.0672 19.8646 56.3692 19.8646C56.8076 19.8646 57.0806 20.2027 57.0806 20.7444V22.6375H57.5135V20.6293C57.5135 19.9475 57.1102 19.4751 56.5291 19.4751C56.1079 19.4751 55.7881 19.6788 55.5626 20.0812C55.4027 19.7117 55.0822 19.4751 54.6734 19.4751C54.3177 19.4751 54.033 19.6538 53.8138 20.0104V19.5259H53.3809V22.6368V22.6382Z" fill="#31547E"/>
<path d="M58.3889 22.6382H58.8218V20.3242C58.9935 20.0183 59.2306 19.8653 59.527 19.8653C59.9654 19.8653 60.2446 20.2034 60.2446 20.7451V22.6382H60.6775V20.63C60.6789 20.538 60.671 20.446 60.6541 20.3556C60.832 20.024 61.0753 19.8646 61.3772 19.8646C61.8157 19.8646 62.0886 20.2027 62.0886 20.7444V22.6375H62.5215V20.6293C62.5215 19.9475 62.1183 19.4751 61.5372 19.4751C61.116 19.4751 60.7961 19.6788 60.5707 20.0812C60.4108 19.7117 60.0902 19.4751 59.6814 19.4751C59.3257 19.4751 59.041 19.6538 58.8218 20.0104V19.5259H58.3889V22.6368V22.6382Z" fill="#31547E"/>
<path d="M63.7892 19.5266H63.3501V21.5348C63.3501 22.2173 63.7768 22.689 64.3993 22.689C64.7908 22.689 65.099 22.5039 65.3182 22.1344V22.6383H65.7511V19.5273H65.3182V21.8286C65.1465 22.1344 64.8798 22.3002 64.5592 22.3002C64.0849 22.3002 63.7885 21.9558 63.7885 21.4012L63.7892 19.5266ZM66.6396 22.6383H67.0726V20.3428C67.2442 20.0304 67.511 19.8646 67.8315 19.8646C68.3058 19.8646 68.6084 20.2091 68.6084 20.7573V22.6383H69.0413V20.6236C69.0413 19.9411 68.6139 19.4759 67.9921 19.4759C67.6068 19.4759 67.2925 19.661 67.0732 20.0304V19.5266H66.6403V22.6376L66.6396 22.6383ZM70.1298 18.7619C70.3021 18.7619 70.4379 18.6154 70.4379 18.4239C70.4379 18.2452 70.2959 18.0923 70.1298 18.0923C69.9582 18.0923 69.8155 18.2452 69.8155 18.4239C69.8155 18.6154 69.9519 18.7619 70.1298 18.7619ZM70.3435 19.5266H69.9106V22.6376H70.3435V19.5266ZM71.5747 21.9365C71.5747 22.4339 71.8352 22.6954 72.3336 22.6954C72.4998 22.6954 72.6776 22.6697 72.8375 22.6125V22.198C72.7081 22.255 72.5687 22.2833 72.4281 22.2809C72.1261 22.2809 72.0076 22.1473 72.0076 21.8157V19.9097H72.8375V19.5273H72.0076V18.5647L71.5747 18.6733V19.5273H70.9756V19.9097H71.5747V21.9372V21.9365ZM74.0984 23.135C73.9915 23.4151 73.855 23.5302 73.6358 23.5302C73.571 23.5302 73.5172 23.5302 73.3987 23.5044V23.919C73.4889 23.9479 73.5827 23.9628 73.6772 23.9633C74.1046 23.9633 74.3238 23.7782 74.5078 23.275L75.9424 19.5266H75.4619L74.5313 22.083L73.6537 19.5266H73.1733L74.2879 22.6311L74.0984 23.135Z" fill="#31547E"/>
<path d="M127.652 12.3581H118.657V15.1253H125.037C124.72 18.9981 121.608 20.6611 118.667 20.6611C117.735 20.6652 116.813 20.4769 115.953 20.1073C115.092 19.7378 114.312 19.1939 113.656 18.5086C113.001 17.8232 112.484 17.0085 112.136 16.1137C111.788 15.219 111.614 14.2606 111.626 13.2951C111.61 12.3253 111.78 11.3619 112.127 10.4614C112.475 9.56087 112.992 8.74127 113.648 8.0507C114.305 7.36013 115.088 6.81251 115.952 6.43997C116.816 6.06763 117.742 5.87753 118.678 5.88039C120.469 5.87681 122.193 6.59363 123.485 7.88074L125.353 5.87395C124.455 4.97362 123.394 4.26573 122.232 3.79079C121.069 3.31584 119.828 3.08316 118.578 3.10605C115.982 3.12922 113.497 4.20182 111.651 6.09565C109.806 7.98948 108.747 10.555 108.698 13.2465C108.726 15.9744 109.798 18.5793 111.677 20.4896C113.555 22.4 116.088 23.4595 118.72 23.4355C123.969 23.4355 127.812 19.7071 127.812 14.1941C127.824 13.578 127.769 12.9624 127.649 12.3589H127.652L127.652 12.3581Z" fill="#4885ED"/>
<path d="M135.02 10.3543C133.775 10.3586 132.56 10.7452 131.526 11.4649C130.493 12.1846 129.689 13.2051 129.214 14.3986C128.74 15.5921 128.617 16.9035 128.861 18.1692C129.104 19.4349 129.704 20.5969 130.585 21.5088C131.465 22.4207 132.586 23.0432 133.807 23.2955C135.028 23.5478 136.292 23.4206 137.444 22.9289C138.595 22.4373 139.579 21.6032 140.273 20.532C140.968 19.4608 141.34 18.2004 141.344 16.9099C141.357 16.0452 141.202 15.1869 140.889 14.385C140.576 13.5832 140.11 12.8556 139.521 12.2439C138.931 11.6321 138.229 11.1504 137.455 10.8253C136.682 10.5001 135.854 10.34 135.02 10.3536V10.3543ZM135.056 12.9207C135.542 12.9321 136.022 13.045 136.465 13.253C136.908 13.461 137.306 13.759 137.637 14.1299C137.967 14.5008 138.221 14.9367 138.385 15.4113C138.549 15.8858 138.619 16.3904 138.591 16.8942C138.625 17.4025 138.557 17.9127 138.393 18.3928C138.228 18.873 137.97 19.3129 137.635 19.685C137.299 20.0571 136.893 20.3535 136.442 20.5558C135.991 20.7581 135.504 20.8618 135.013 20.8606C134.522 20.8593 134.036 20.753 133.586 20.5484C133.135 20.3438 132.731 20.0453 132.397 19.6714C132.063 19.2974 131.807 18.8562 131.645 18.3752C131.483 17.8942 131.419 17.3837 131.455 16.8756C131.432 16.368 131.507 15.8607 131.677 15.3841C131.848 14.9074 132.109 14.4715 132.445 14.102C132.782 13.7325 133.188 13.4381 133.637 13.2351C134.087 13.0322 134.571 12.9257 135.061 12.9221H135.056V12.9207Z" fill="#DB3236"/>
<path d="M148.801 10.3543C147.556 10.3586 146.341 10.7452 145.308 11.4649C144.274 12.1846 143.47 13.2051 142.996 14.3986C142.521 15.5921 142.399 16.9035 142.642 18.1692C142.885 19.4349 143.486 20.5969 144.366 21.5088C145.246 22.4207 146.367 23.0432 147.588 23.2955C148.809 23.5478 150.074 23.4206 151.225 22.9289C152.376 22.4373 153.36 21.6032 154.055 20.532C154.749 19.4608 155.121 18.2004 155.125 16.9099C155.138 16.0452 154.983 15.1869 154.67 14.385C154.357 13.5832 153.891 12.8556 153.302 12.2439C152.713 11.6321 152.01 11.1504 151.237 10.8253C150.463 10.5001 149.635 10.34 148.801 10.3536V10.3543ZM148.837 12.9207C149.324 12.9321 149.803 13.045 150.246 13.253C150.689 13.461 151.088 13.759 151.418 14.1299C151.748 14.5008 152.002 14.9367 152.166 15.4113C152.329 15.8858 152.4 16.3904 152.372 16.8942C152.406 17.4025 152.339 17.9127 152.174 18.3928C152.01 18.873 151.752 19.3129 151.416 19.685C151.08 20.0571 150.674 20.3535 150.223 20.5558C149.772 20.7581 149.286 20.8618 148.794 20.8606C148.303 20.8593 147.817 20.753 147.367 20.5484C146.917 20.3438 146.512 20.0453 146.178 19.6714C145.844 19.2974 145.589 18.8562 145.427 18.3752C145.265 17.8942 145.2 17.3837 145.237 16.8756C145.212 16.3682 145.288 15.8608 145.459 15.3841C145.629 14.9074 145.89 14.4715 146.226 14.102C146.563 13.7325 146.969 13.4381 147.418 13.2351C147.868 13.0322 148.352 12.9257 148.843 12.9221H148.837V12.9207Z" fill="#F4C20D"/>
<path d="M162.317 10.3617C158.928 10.3617 156.266 13.4376 156.266 16.8909C156.241 18.5772 156.854 20.2066 157.974 21.4296C159.094 22.6527 160.632 23.3719 162.258 23.433C162.913 23.4708 163.567 23.3465 164.167 23.0704C164.766 22.7942 165.294 22.3742 165.706 21.845V23.1335C165.706 25.3883 164.384 26.7383 162.393 26.7383C161.692 26.7297 161.01 26.5032 160.433 26.0887C159.857 25.6742 159.414 25.0903 159.161 24.4121L156.738 25.4541C157.206 26.6086 157.997 27.5916 159.008 28.2773C160.019 28.963 161.205 29.32 162.413 29.3026C165.79 29.3026 168.349 27.1028 168.349 22.4896V10.7576H165.717V11.8639C165.287 11.3766 164.761 10.9906 164.175 10.7319C163.589 10.4733 162.956 10.348 162.319 10.3646L162.317 10.3617ZM162.561 12.9238C164.222 12.9238 165.926 14.3946 165.926 16.9052C165.926 19.4594 164.223 20.8638 162.523 20.8638C162.041 20.8516 161.569 20.7387 161.13 20.5329C160.692 20.327 160.299 20.0312 159.973 19.6638C159.648 19.2965 159.398 18.8648 159.237 18.3953C159.075 17.9258 159.008 17.4269 159.037 16.9288C159.037 14.4203 160.779 12.9231 162.559 12.9231L162.561 12.9238Z" fill="#4885ED"/>
<path d="M180.114 10.3459C176.918 10.3459 174.235 12.9823 174.235 16.8708C174.204 17.7278 174.341 18.5825 174.639 19.3828C174.936 20.1833 175.387 20.9122 175.966 21.5261C176.544 22.1396 177.236 22.6246 178.001 22.9516C178.766 23.2785 179.587 23.4406 180.415 23.4279C181.453 23.4314 182.477 23.1727 183.397 22.6732C184.318 22.1736 185.106 21.4489 185.695 20.562L183.516 19.0591C183.2 19.6144 182.747 20.0732 182.206 20.3891C181.663 20.705 181.05 20.8667 180.428 20.8579C179.781 20.8858 179.141 20.7121 178.589 20.3584C178.038 20.0046 177.602 19.4893 177.337 18.8761L185.787 15.2406L185.356 14.1758C184.952 13.0666 184.237 12.1082 183.302 11.4257C182.368 10.7429 181.257 10.3667 180.114 10.3459ZM180.224 12.8586C180.7 12.8379 181.172 12.958 181.585 13.2052C181.998 13.4525 182.335 13.8163 182.556 14.2544L176.912 16.7C176.884 16.2226 176.948 15.7437 177.099 15.2921C177.25 14.84 177.486 14.4235 177.794 14.0664C178.101 13.7091 178.473 13.4189 178.889 13.2117C179.305 13.0044 179.756 12.8844 180.217 12.8586H180.224Z" fill="#DB3236"/>
<path d="M170.199 23.0398H172.975V3.78093H170.199V23.0398Z" fill="#3CBA54"/>
<path d="M247.436 18.0744H252.493L249.819 13.4391L244.912 21.82H242.678L248.647 11.7525C248.906 11.3458 249.339 11.1 249.819 11.1C250.283 11.1 250.715 11.3372 250.966 11.7353L256.958 21.82H254.725L253.671 19.9468H248.552L247.435 18.0744H247.436ZM270.633 19.9475V11.2014H268.738V20.803C268.737 21.0683 268.836 21.3236 269.013 21.5148C269.194 21.7099 269.438 21.82 269.705 21.82H278.346L279.463 19.9468H270.633L270.633 19.9475ZM239.282 18.3796C241.122 18.3796 242.616 16.778 242.616 14.7948C242.616 12.8116 241.123 11.2014 239.282 11.2014H230.991V21.82H232.886V13.0746H239.156C240.037 13.0746 240.744 13.8457 240.744 14.7948C240.744 15.7439 240.036 16.515 239.156 16.515L233.813 16.5064L239.47 21.82H242.223L238.417 18.3796H239.282ZM219.33 21.82C216.61 21.82 214.403 19.4473 214.403 16.515C214.403 13.5827 216.61 11.2014 219.33 11.2014H225.057C227.778 11.2014 229.984 13.5827 229.984 16.515C229.984 19.4473 227.777 21.82 225.057 21.82H219.33ZM224.93 19.9468C226.692 19.9468 228.119 18.4132 228.119 16.515C228.119 14.6168 226.692 13.0746 224.93 13.0746H219.457C217.696 13.0746 216.268 14.6168 216.268 16.515C216.268 18.4132 217.696 19.9468 219.457 19.9468H224.93ZM260.914 21.82C258.193 21.82 255.983 19.4473 255.983 16.515C255.983 13.5827 258.193 11.2014 260.914 11.2014H267.715L266.607 13.0746H261.04C259.278 13.0746 257.847 14.6168 257.847 16.515C257.847 18.4132 259.278 19.9468 261.04 19.9468H267.873L266.756 21.82H260.914ZM284.087 19.9468C282.632 19.9468 281.397 18.8963 281.02 17.4469H289.12L290.236 15.5745H281.02C281.397 14.1337 282.632 13.0746 284.087 13.0746H289.646L290.77 11.2022H283.961C281.24 11.2022 279.031 13.5834 279.031 16.5157C279.031 19.448 281.24 21.82 283.961 21.82H289.803L290.92 19.9468H284.087Z" fill="#EA1B22"/>
<path d="M348.391 12.2539C348.391 12.8864 348.457 13.3988 348.572 13.7754C348.704 14.1514 348.868 14.5616 349.098 15.0061C349.18 15.1426 349.213 15.2798 349.213 15.3992C349.213 15.57 349.114 15.7408 348.901 15.9123L347.865 16.6305C347.718 16.7327 347.57 16.7842 347.438 16.7842C347.274 16.7842 347.109 16.6984 346.945 16.5448C346.724 16.2972 346.526 16.0282 346.354 15.7415L345.844 14.7331C344.563 16.3054 342.952 17.0922 341.013 17.0922C339.633 17.0922 338.532 16.682 337.727 15.8616C336.921 15.0411 336.51 13.947 336.51 12.5798C336.51 11.1269 337.003 9.94767 338.006 9.05863C339.008 8.16958 340.339 7.72506 342.031 7.72506C342.614 7.72991 343.196 7.77551 343.773 7.86156C344.381 7.94732 345.006 8.08382 345.663 8.23747V6.98966C345.663 5.6904 345.4 4.78491 344.891 4.25463C344.365 3.72506 343.478 3.46849 342.212 3.46849C341.614 3.46846 341.018 3.54308 340.437 3.69076C339.829 3.84441 339.238 4.03237 338.663 4.27178C338.4 4.39113 338.202 4.45974 338.088 4.49404C337.973 4.52835 337.891 4.5455 337.825 4.5455C337.595 4.5455 337.48 4.37469 337.48 4.01593V3.17763C337.48 2.90391 337.513 2.6988 337.595 2.57945C337.677 2.4601 337.825 2.34003 338.055 2.22068C338.63 1.91266 339.32 1.65681 340.125 1.4517C340.931 1.22944 341.785 1.12724 342.689 1.12724C344.645 1.12724 346.074 1.58892 346.994 2.51155C347.898 3.43491 348.358 4.83637 348.358 6.71666V12.2546L348.391 12.2539ZM341.72 14.8524C342.262 14.8524 342.821 14.7502 343.412 14.5444C344.004 14.3386 344.53 13.9634 344.974 13.4503C345.236 13.1258 345.434 12.7663 345.533 12.3561C345.631 11.9459 345.697 11.4499 345.697 10.8689V10.1506C345.198 10.0244 344.694 9.92729 344.185 9.85977C343.659 9.79116 343.15 9.75686 342.64 9.75686C341.539 9.75686 340.734 9.97912 340.192 10.4408C339.649 10.9025 339.386 11.5521 339.386 12.4061C339.386 13.2094 339.584 13.8076 339.994 14.2178C340.389 14.6452 340.964 14.8503 341.72 14.8503V14.8524ZM354.915 16.6984C354.62 16.6984 354.422 16.647 354.291 16.5276C354.159 16.4254 354.044 16.186 353.945 15.8608L350.084 2.64734C349.985 2.30573 349.936 2.08347 349.936 1.9634C349.936 1.68969 350.068 1.53603 350.33 1.53603H351.941C352.253 1.53603 352.467 1.58749 352.582 1.70684C352.714 1.80904 352.812 2.04845 352.911 2.37362L355.672 13.689L358.234 2.37362C358.316 2.03201 358.414 1.80975 358.546 1.70684C358.678 1.60393 358.907 1.53603 359.203 1.53603H360.518C360.83 1.53603 361.044 1.58749 361.175 1.70684C361.306 1.80904 361.421 2.04845 361.487 2.37362L364.083 13.8262L366.927 2.37362C367.026 2.03201 367.141 1.80975 367.256 1.70684C367.388 1.60393 367.601 1.53603 367.897 1.53603H369.425C369.688 1.53603 369.836 1.67253 369.836 1.9634C369.836 2.04916 369.82 2.13421 369.803 2.23712C369.787 2.34003 369.753 2.47654 369.688 2.66449L365.728 15.8773C365.629 16.2189 365.514 16.4411 365.382 16.5441C365.251 16.647 365.037 16.7149 364.758 16.7149H363.345C363.032 16.7149 362.819 16.6634 362.687 16.5441C362.555 16.4247 362.44 16.2024 362.375 15.8601L359.828 4.83494L357.298 15.843C357.216 16.1846 357.117 16.4068 356.985 16.5269C356.854 16.647 356.624 16.6977 356.328 16.6977L354.915 16.6984ZM376.031 17.1601C375.176 17.1601 374.322 17.0579 373.5 16.8528C372.678 16.6477 372.037 16.4254 371.611 16.1689C371.348 16.0152 371.167 15.8444 371.101 15.69C371.037 15.5391 371.004 15.3761 371.003 15.2112V14.3393C371.003 13.9805 371.134 13.8097 371.38 13.8097C371.479 13.8097 371.577 13.8269 371.676 13.8612C371.775 13.8955 371.923 13.9634 372.087 14.032C372.667 14.2975 373.273 14.498 373.894 14.6302C374.552 14.7667 375.192 14.8353 375.85 14.8353C376.885 14.8353 377.691 14.6473 378.249 14.2714C378.807 13.8955 379.104 13.3481 379.104 12.6477C379.104 12.1689 378.956 11.7758 378.66 11.4513C378.364 11.1269 377.805 10.836 377 10.5623L374.617 9.79331C373.417 9.40024 372.53 8.81921 371.988 8.04952C371.445 7.29769 371.166 6.46009 371.166 5.57105C371.166 4.85281 371.314 4.22104 371.61 3.6736C371.906 3.12617 372.3 2.64806 372.793 2.27214C373.286 1.87907 373.845 1.5882 374.502 1.38309C375.159 1.17798 375.849 1.09222 376.572 1.09222C376.934 1.09222 377.312 1.10938 377.673 1.16083L378.741 1.34879L379.678 1.62251C379.974 1.72542 380.204 1.82762 380.368 1.93053C380.598 2.06703 380.762 2.20425 380.861 2.3579C380.959 2.4944 381.009 2.68236 381.009 2.92177V3.72435C381.009 4.08311 380.877 4.27107 380.631 4.27107C380.5 4.27107 380.286 4.20246 380.007 4.06596C379.07 3.62143 378.019 3.39917 376.852 3.39917C375.915 3.39917 375.176 3.55283 374.666 3.878C374.157 4.20317 373.894 4.69844 373.894 5.39953C373.89 5.62634 373.931 5.85163 374.016 6.06072C374.101 6.2698 374.227 6.45799 374.387 6.61303C374.716 6.93749 375.324 7.26267 376.195 7.55282L378.528 8.3218C379.711 8.71487 380.566 9.26231 381.075 9.96268C381.585 10.6631 381.831 11.4671 381.831 12.3554C381.831 13.0908 381.683 13.7569 381.404 14.3379C381.108 14.9189 380.714 15.432 380.205 15.8423C379.695 16.2696 379.087 16.5769 378.381 16.7992C377.641 17.0386 376.869 17.158 376.031 17.158V17.1601Z" fill="#252F3E"/>
<path d="M379.137 25.4667C373.73 29.6203 365.876 31.8251 359.122 31.8251C349.657 31.8251 341.128 28.1846 334.687 22.1335C334.178 21.6546 334.638 21.005 335.246 21.3816C342.213 25.5867 350.807 28.1331 359.697 28.1331C365.695 28.1331 372.284 26.8338 378.348 24.1674C379.251 23.74 380.024 24.7827 379.137 25.4667ZM381.388 22.8002C380.698 21.8776 376.82 22.3557 375.061 22.578C374.535 22.6466 374.453 22.1678 374.93 21.809C378.019 19.5528 383.096 20.2024 383.688 20.9543C384.279 21.7232 383.524 27.0053 380.631 29.5346C380.187 29.9276 379.761 29.7225 379.958 29.2101C380.615 27.5178 382.078 23.7064 381.388 22.8002Z" fill="#FF9900"/>
</svg>
