<svg width="19" height="18" viewBox="0 0 19 18" fill="none" xmlns="http://www.w3.org/2000/svg">
<path d="M16.6046 5.65137V12.7501C16.6046 13.324 16.3839 13.8763 15.9877 14.2938C15.5915 14.7114 15.0497 14.9627 14.4731 14.9964L14.3402 15.0001H3.77336C3.1958 15.0001 2.64006 14.7809 2.21984 14.3872C1.79962 13.9934 1.54669 13.455 1.51281 12.8821L1.50903 12.7501V5.65137L8.6379 10.3741L8.72546 10.4236C8.82864 10.4737 8.94196 10.4998 9.0568 10.4998C9.17164 10.4998 9.28497 10.4737 9.38815 10.4236L9.4757 10.3741L16.6046 5.65137Z" fill="#333333"/>
<path d="M14.3403 3C15.1555 3 15.8702 3.4275 16.2688 4.07025L9.05687 8.84775L1.84497 4.07025C2.03422 3.76483 2.29422 3.5088 2.6033 3.32354C2.91238 3.13827 3.26156 3.02914 3.62172 3.00525L3.77343 3H14.3403Z" fill="#333333"/>
</svg>
