<svg width="19" height="18" viewBox="0 0 19 18" fill="none" xmlns="http://www.w3.org/2000/svg">
<path d="M17.138 13.2036L15.3789 11.4556C15.0605 11.1394 14.6617 10.915 14.2251 10.8064C13.7885 10.6977 13.3303 10.7088 12.8996 10.8386C12.4688 10.9683 12.0815 11.2118 11.7791 11.5431C11.4767 11.8744 11.2704 12.281 11.1823 12.7196C8.28144 12.1806 5.46008 9.38861 5.28447 6.89311C5.77763 6.80297 6.23149 6.56579 6.5857 6.21311C7.05208 5.74962 7.31408 5.12104 7.31408 4.46561C7.31408 3.81018 7.05208 3.1816 6.5857 2.71811L4.82707 0.970109C4.36063 0.506683 3.72804 0.246338 3.06844 0.246338C2.40884 0.246338 1.77625 0.506683 1.30981 0.970109C-3.96658 6.21311 11.8616 21.9411 17.138 16.6981C17.6041 16.2346 17.8659 15.6061 17.8659 14.9509C17.8659 14.2956 17.6041 13.6671 17.138 13.2036Z" fill="#31373D"/>
</svg>
