<svg width="22" height="23" viewBox="0 0 22 23" fill="none" xmlns="http://www.w3.org/2000/svg">
<path d="M9.06005 10.1418H12.9403M8.45356 11.6169H13.5468M9.88121 13.092H12.1192M16.3645 11.5C16.3645 17.5751 14.0199 22.5 11.1278 22.5C8.23559 22.5 5.89103 17.5751 5.89103 11.5C5.89103 5.42487 8.23559 0.5 11.1278 0.5C14.0199 0.5 16.3645 5.42487 16.3645 11.5ZM13.6179 7.13882C18.9464 10.1759 22.0941 14.6435 20.648 17.1166C19.2018 19.5897 13.7097 19.132 8.38113 16.0944C3.05256 13.0574 -0.094583 8.59028 1.35155 6.11662C1.92978 5.1277 3.15473 4.60721 4.75738 4.5337C7.16325 4.42209 10.4202 5.3155 13.6179 7.13882ZM13.6185 16.0947C8.28998 19.1323 2.79838 19.59 1.3517 17.1169C-0.0949735 14.6438 3.05271 10.1767 8.38182 7.13911C11.4589 5.38448 14.5902 4.49107 16.9657 4.52541C18.7036 4.55009 20.0373 5.07165 20.6487 6.11692C22.0943 8.59004 18.9477 13.0571 13.6185 16.0947Z" stroke="#333333" stroke-width="0.666667" stroke-linecap="round" stroke-linejoin="round"/>
</svg>
