<svg width="61" height="48" viewBox="0 0 61 48" fill="none" xmlns="http://www.w3.org/2000/svg">
<path d="M28.0798 45.3448C35.8458 43.9757 42.2492 42.8303 42.3132 42.8303L42.4381 42.799L35.1169 34.0461C31.0904 29.2409 27.7942 25.2947 27.7942 25.2634C27.7942 25.2321 35.3698 4.32291 35.4025 4.2259C35.4025 4.19461 40.5684 13.1056 47.8598 25.8345C54.7065 37.7388 60.3484 47.5714 60.4124 47.6668L60.506 47.8264H13.9744L28.0814 45.3448H28.0798ZM0.153076 42.6707C0.153076 42.6707 3.60841 36.656 7.8238 29.305L15.4945 15.969L24.4341 8.42714C29.3471 4.28849 33.3736 0.885254 33.4049 0.885254C33.4361 0.885254 33.3424 1.04485 33.2457 1.23575C33.152 1.42664 28.7775 10.8462 23.5461 22.1121L14.0056 42.6394H7.06375C3.25882 42.702 0.153076 42.6707 0.153076 42.6707Z" fill="#0089D6"/>
</svg>
