<svg width="24" height="25" viewBox="0 0 24 25" fill="none" xmlns="http://www.w3.org/2000/svg">
<path d="M11.3623 19.22C9.56096 19.1348 7.86168 18.3586 6.61742 17.0527C5.37315 15.7468 4.67953 14.0115 4.68064 12.2073C4.68064 8.33219 7.82838 5.18293 11.7016 5.18293C15.4695 5.18293 18.5353 8.14488 18.7109 11.8678L16.2535 11.1302C16.0623 10.3187 15.6578 9.57293 15.082 8.9701C14.5062 8.36727 13.78 7.92924 12.9783 7.70127C12.1766 7.4733 11.3287 7.46368 10.522 7.6734C9.7154 7.88311 8.97938 8.30455 8.39006 8.89416C7.80075 9.48376 7.37951 10.2201 7.1699 11.0272C6.96029 11.8342 6.9699 12.6826 7.19776 13.4846C7.42561 14.2867 7.86344 15.0133 8.46597 15.5894C9.0685 16.1655 9.81388 16.5701 10.6251 16.7615L11.3623 19.22ZM23.4032 12.2073C23.4032 12.5585 23.3915 12.9098 23.3564 13.261L21.0512 12.5702C21.0629 12.4532 21.0629 12.3244 21.0629 12.2073C21.0629 7.03268 16.8737 2.84146 11.7016 2.84146C6.5295 2.84146 2.34032 7.03268 2.34032 12.2073C2.34032 17.382 6.5295 21.5732 11.7016 21.5732C11.8186 21.5732 11.9473 21.5732 12.0644 21.5615L12.7548 23.8678C12.4037 23.9029 12.0527 23.9146 11.7016 23.9146C5.24232 23.9146 0 18.6698 0 12.2073C0 5.74488 5.24232 0.5 11.7016 0.5C18.1609 0.5 23.4032 5.74488 23.4032 12.2073ZM18.9917 17.1946L23.4032 15.7195L11.7016 12.2073L15.2121 23.9146L16.6865 19.501L21.6831 24.5L24 22.182L18.9917 17.1946Z" fill="#333333"/>
</svg>
