<svg width="24" height="25" viewBox="0 0 24 25" fill="none" xmlns="http://www.w3.org/2000/svg">
<path d="M21.3333 0.5H2.66667C1.2 0.5 0 1.7 0 3.16667V12.5C0 13.9667 1.2 15.1667 2.66667 15.1667H21.3333C22.8 15.1667 24 13.9667 24 12.5V3.16667C24 1.7 22.8 0.5 21.3333 0.5ZM21.3333 8.5H16C16 10.66 14.16 12.5 12 12.5C9.84 12.5 8 10.66 8 8.5H2.66667V3.16667H21.3333V8.5ZM16 17.8333H24V21.8333C24 23.3 22.8 24.5 21.3333 24.5H2.66667C1.2 24.5 0 23.3 0 21.8333V17.8333H8C8 20.0467 9.78667 21.8333 12 21.8333C14.2133 21.8333 16 20.0467 16 17.8333Z" fill="#333333"/>
</svg>
