<svg width="71" height="70" viewBox="0 0 71 70" fill="none" xmlns="http://www.w3.org/2000/svg">
<path d="M11.1851 60.1746C7.84223 56.946 5.17585 53.0839 3.34154 48.8138C1.50722 44.5436 0.541705 39.9509 0.501321 35.3036C0.460938 30.6564 1.3465 26.0476 3.10633 21.7462C4.86616 17.4448 7.46502 13.537 10.7513 10.2508C14.0375 6.96453 17.9453 4.36567 22.2467 2.60584C26.5481 0.846009 31.1569 -0.0395504 35.8041 0.000833205C40.4514 0.0412168 45.0441 1.00673 49.3142 2.84105C53.5844 4.67536 57.4464 7.34174 60.6751 10.6846C67.0506 17.2857 70.5784 26.1268 70.4987 35.3036C70.4189 44.4805 66.738 53.259 60.2487 59.7482C53.7595 66.2375 44.981 69.9184 35.8041 69.9982C26.6272 70.0779 17.7862 66.5501 11.1851 60.1746ZM55.7401 55.2396C60.994 49.9857 63.9457 42.8598 63.9457 35.4296C63.9457 27.9994 60.994 20.8735 55.7401 15.6196C50.4861 10.3657 43.3603 7.41403 35.9301 7.41403C28.4999 7.41403 21.374 10.3657 16.1201 15.6196C10.8661 20.8735 7.91452 27.9994 7.91452 35.4296C7.91452 42.8598 10.8661 49.9857 16.1201 55.2396C21.374 60.4935 28.4999 63.4452 35.9301 63.4452C43.3603 63.4452 50.4861 60.4935 55.7401 55.2396ZM25.4301 21.4296L53.4301 35.4296L25.4301 49.4296V21.4296Z" fill="white" fill-opacity="0.9"/>
</svg>
