<svg width="90" height="39" viewBox="0 0 90 39" fill="none" xmlns="http://www.w3.org/2000/svg">
<circle opacity="0.7" cx="70.5" cy="19.5" r="19.5" fill="#112D5A"/>
<path d="M68.31 14.71C68.2173 14.8025 68.1438 14.9124 68.0936 15.0334C68.0434 15.1544 68.0176 15.2841 68.0176 15.415C68.0176 15.546 68.0434 15.6757 68.0936 15.7966C68.1438 15.9176 68.2173 16.0275 68.31 16.12L72.19 20L68.31 23.88C68.123 24.067 68.018 24.3206 68.018 24.585C68.018 24.8494 68.123 25.103 68.31 25.29C68.497 25.477 68.7506 25.582 69.015 25.582C69.2794 25.582 69.533 25.477 69.72 25.29L74.31 20.7C74.4027 20.6075 74.4763 20.4976 74.5265 20.3766C74.5766 20.2557 74.6025 20.126 74.6025 19.995C74.6025 19.8641 74.5766 19.7344 74.5265 19.6134C74.4763 19.4924 74.4027 19.3825 74.31 19.29L69.72 14.7C69.34 14.32 68.7 14.32 68.31 14.71Z" fill="white"/>
<circle opacity="0.7" cx="19.5" cy="19.5" r="19.5" transform="matrix(-1 0 0 1 39 0)" fill="#112D5A"/>
<path d="M21.69 14.71C21.7827 14.8025 21.8562 14.9124 21.9064 15.0334C21.9566 15.1544 21.9824 15.2841 21.9824 15.415C21.9824 15.546 21.9566 15.6757 21.9064 15.7966C21.8562 15.9176 21.7827 16.0275 21.69 16.12L17.81 20L21.69 23.88C21.877 24.067 21.982 24.3206 21.982 24.585C21.982 24.8494 21.877 25.103 21.69 25.29C21.503 25.477 21.2494 25.582 20.985 25.582C20.7206 25.582 20.467 25.477 20.28 25.29L15.69 20.7C15.5973 20.6075 15.5237 20.4976 15.4735 20.3766C15.4234 20.2557 15.3975 20.126 15.3975 19.995C15.3975 19.8641 15.4234 19.7344 15.4735 19.6134C15.5237 19.4924 15.5973 19.3825 15.69 19.29L20.28 14.7C20.66 14.32 21.3 14.32 21.69 14.71Z" fill="white"/>
</svg>
