<svg width="186" height="40" viewBox="0 0 186 40" fill="none" xmlns="http://www.w3.org/2000/svg">
<ellipse cx="20.1269" cy="20" rx="20.1274" ry="20" fill="#057AFF"/>
<ellipse cx="68.4326" cy="20" rx="20.1274" ry="20" fill="#057AFF"/>
<ellipse cx="116.738" cy="20" rx="20.1274" ry="20" fill="#057AFF"/>
<ellipse cx="165.044" cy="20" rx="20.1274" ry="20" fill="#057AFF"/>
<path d="M22.4539 19.8125C22.4539 20.307 22.3063 20.7903 22.0299 21.2014C21.7534 21.6125 21.3605 21.933 20.9007 22.1222C20.441 22.3114 19.9352 22.3609 19.4471 22.2645C18.9591 22.168 18.5108 21.9299 18.1589 21.5803C17.8071 21.2306 17.5674 20.7852 17.4704 20.3002C17.3733 19.8153 17.4231 19.3126 17.6135 18.8558C17.804 18.399 18.1264 18.0085 18.5402 17.7338C18.9539 17.4591 19.4403 17.3125 19.9379 17.3125C20.605 17.3133 21.2445 17.5769 21.7161 18.0456C22.1878 18.5142 22.4531 19.1497 22.4539 19.8125ZM27.8002 16.375V23.25C27.7989 24.4099 27.3346 25.522 26.5092 26.3421C25.6838 27.1623 24.5646 27.6237 23.3973 27.625H16.4786C15.3112 27.6237 14.1921 27.1623 13.3667 26.3421C12.5413 25.522 12.077 24.4099 12.0757 23.25V16.375C12.077 15.2151 12.5413 14.103 13.3667 13.2829C14.1921 12.4627 15.3112 12.0013 16.4786 12H23.3973C24.5646 12.0013 25.6838 12.4627 26.5092 13.2829C27.3346 14.103 27.7989 15.2151 27.8002 16.375ZM23.7118 19.8125C23.7118 19.0708 23.4905 18.3458 23.0758 17.7291C22.6611 17.1124 22.0717 16.6318 21.3821 16.348C20.6926 16.0641 19.9338 15.9899 19.2017 16.1346C18.4696 16.2793 17.7972 16.6364 17.2694 17.1608C16.7416 17.6853 16.3822 18.3535 16.2366 19.0809C16.091 19.8083 16.1657 20.5623 16.4513 21.2476C16.737 21.9328 17.2207 22.5185 17.8413 22.9305C18.4619 23.3426 19.1915 23.5625 19.9379 23.5625C20.9385 23.5614 21.8977 23.1659 22.6052 22.4629C23.3127 21.7599 23.7107 20.8067 23.7118 19.8125ZM24.9698 15.75C24.9698 15.5646 24.9145 15.3833 24.8108 15.2292C24.7071 15.075 24.5598 14.9548 24.3874 14.8839C24.215 14.8129 24.0253 14.7943 23.8423 14.8305C23.6592 14.8667 23.4911 14.956 23.3592 15.0871C23.2272 15.2182 23.1374 15.3852 23.101 15.5671C23.0646 15.749 23.0833 15.9375 23.1547 16.1088C23.2261 16.2801 23.347 16.4265 23.5022 16.5295C23.6573 16.6325 23.8397 16.6875 24.0263 16.6875C24.2765 16.6875 24.5165 16.5887 24.6935 16.4129C24.8704 16.2371 24.9698 15.9986 24.9698 15.75Z" fill="white"/>
<path d="M72.3743 15.5H69.8584C69.3952 15.5 69.0198 15.8731 69.0198 16.3333V18.8333H72.3743C72.4697 18.8312 72.5602 18.8753 72.6169 18.9516C72.6735 19.0278 72.6895 19.1267 72.6595 19.2167L72.0389 21.05C71.9817 21.2182 71.8234 21.332 71.6447 21.3333H69.0198V27.5833C69.0198 27.8134 68.832 28 68.6004 28H66.5038C66.2722 28 66.0845 27.8134 66.0845 27.5833V21.3333H64.8265C64.595 21.3333 64.4072 21.1467 64.4072 20.9167V19.25C64.4072 19.0199 64.595 18.8333 64.8265 18.8333H66.0845V16.3333C66.0845 14.4924 67.5864 13 69.4391 13H72.3743C72.6059 13 72.7936 13.1865 72.7936 13.4167V15.0833C72.7936 15.3134 72.6059 15.5 72.3743 15.5Z" fill="white"/>
<path d="M124.767 15.8478C124.378 16.3641 123.907 16.8144 123.373 17.1815C123.373 17.3163 123.373 17.4512 123.373 17.5935C123.377 20.0426 122.393 22.3909 120.64 24.1121C118.888 25.8333 116.513 26.7833 114.05 26.7491C112.626 26.7538 111.22 26.4308 109.943 25.8051C109.874 25.7752 109.83 25.7075 109.83 25.6328V25.5503C109.83 25.4428 109.918 25.3556 110.026 25.3556C111.426 25.3097 112.776 24.8274 113.884 23.977C112.617 23.9516 111.477 23.2058 110.953 22.0589C110.926 21.9963 110.935 21.9244 110.975 21.8693C111.015 21.8143 111.081 21.7839 111.149 21.7893C111.534 21.8277 111.923 21.7921 112.294 21.6843C110.896 21.3958 109.845 20.242 109.694 18.8298C109.689 18.762 109.719 18.6964 109.775 18.6566C109.83 18.6168 109.903 18.6086 109.966 18.635C110.341 18.7996 110.746 18.8863 111.156 18.8897C109.931 18.0904 109.401 16.57 109.868 15.1885C109.916 15.0543 110.031 14.9551 110.172 14.9275C110.313 14.8998 110.457 14.9477 110.553 15.0537C112.207 16.8027 114.48 17.845 116.891 17.9607C116.83 17.7157 116.799 17.464 116.801 17.2114C116.824 15.8873 117.648 14.7077 118.889 14.2249C120.129 13.7421 121.54 14.0517 122.461 15.0087C123.089 14.8899 123.695 14.6804 124.262 14.3868C124.304 14.3611 124.356 14.3611 124.398 14.3868C124.424 14.4281 124.424 14.4804 124.398 14.5217C124.123 15.1463 123.66 15.6701 123.071 16.0202C123.586 15.9608 124.093 15.8401 124.579 15.6605C124.62 15.6329 124.673 15.6329 124.714 15.6605C124.749 15.6761 124.774 15.7059 124.784 15.742C124.795 15.7781 124.788 15.8168 124.767 15.8478Z" fill="white"/>
<path d="M172.517 19.5295V25.0456C172.517 25.1811 172.4 25.2973 172.264 25.2973H169.4C169.264 25.2973 169.147 25.1811 169.147 25.0456V19.9166C169.147 18.5618 168.66 17.6327 167.433 17.6327C166.498 17.6327 165.953 18.2521 165.7 18.8521C165.602 19.065 165.583 19.3747 165.583 19.665V25.0456C165.583 25.1811 165.466 25.2973 165.33 25.2973H162.486C162.349 25.2973 162.233 25.1811 162.233 25.0456C162.233 23.6715 162.271 17.0327 162.233 15.4844C162.233 15.3489 162.349 15.2327 162.486 15.2327H165.349C165.485 15.2327 165.602 15.3489 165.602 15.4844V16.665C165.602 16.6844 165.583 16.6844 165.583 16.7037H165.602V16.665C166.05 15.9876 166.849 15.0005 168.641 15.0005C170.861 15.0005 172.517 16.4521 172.517 19.5295ZM157.246 25.3166H160.109C160.246 25.3166 160.363 25.2005 160.363 25.065V15.4844C160.363 15.3489 160.246 15.2327 160.109 15.2327H157.246C157.11 15.2327 156.993 15.3489 156.993 15.4844V25.065C157.012 25.2005 157.11 25.3166 157.246 25.3166Z" fill="white"/>
<path d="M158.985 16.1288C159.986 16.1288 160.797 15.3229 160.797 14.3288C160.797 13.3347 159.986 12.5288 158.985 12.5288C157.985 12.5288 157.174 13.3347 157.174 14.3288C157.174 15.3229 157.985 16.1288 158.985 16.1288Z" fill="#171717"/>
</svg>
