<svg width="1004" height="993" viewBox="0 0 1004 993" fill="none" xmlns="http://www.w3.org/2000/svg">
<g opacity="0.5">
<g opacity="0.3" filter="url(#filter0_f_1_1567)">
<path d="M502.006 814.525C680.693 814.525 825.548 672.143 825.548 496.505C825.548 320.867 680.693 178.484 502.006 178.484C323.319 178.484 178.464 320.867 178.464 496.505C178.464 672.143 323.319 814.525 502.006 814.525Z" fill="#944EFA"/>
<mask id="mask0_1_1567" style="mask-type:alpha" maskUnits="userSpaceOnUse" x="178" y="178" width="648" height="637">
<path d="M502.006 814.525C680.693 814.525 825.548 672.143 825.548 496.505C825.548 320.867 680.693 178.484 502.006 178.484C323.319 178.484 178.464 320.867 178.464 496.505C178.464 672.143 323.319 814.525 502.006 814.525Z" fill="#944EFA"/>
</mask>
<g mask="url(#mask0_1_1567)">
<g filter="url(#filter1_f_1_1567)">
<path d="M530.971 699.277C489.177 722.866 368.598 636.832 325.494 598.532C316.183 716.485 325.494 662.342 439.29 845.37C553.086 1028.4 981.111 618.613 987.576 598.532C994.041 578.449 908.44 95.4447 725.071 -33.4411C541.706 -162.327 661.579 126.281 745.113 345.412C828.647 564.544 583.213 669.787 530.971 699.277Z" fill="#976CE5"/>
</g>
<g filter="url(#filter2_f_1_1567)">
<path d="M240.01 634.715C241.241 636.175 242.539 637.694 243.901 639.255C344.961 743.53 675.027 98.6686 658.538 369.153C628.525 861.435 489.57 732.55 441.472 766.569C404.118 792.989 289.153 691.091 243.901 639.255C242.564 637.874 241.266 636.36 240.01 634.715Z" fill="#2735FD"/>
</g>
<g filter="url(#filter3_f_1_1567)">
<path d="M330.336 757.378C222.052 869.982 197.765 777.592 199.158 717.321L-135.409 655.681C-191.178 591.971 -197.729 401.328 222.213 148.443C747.143 -167.663 1032.9 613.026 855.721 460.08C678.532 307.136 465.692 616.619 330.336 757.378Z" fill="#2BBFDA"/>
</g>
</g>
</g>
<path fill-rule="evenodd" clip-rule="evenodd" d="M152.538 152H152V152.529V839.898H152.538V813.969H178.917V839.898H179.455V813.969H205.834V839.898H206.372V813.969H232.751V839.898H233.289V813.969H259.668V839.898H260.206V813.969H286.585V839.898H287.123V813.969H313.502V839.898H314.04V813.969H340.419V839.898H340.958V813.969H367.336V839.898H367.875V813.969H394.253V839.898H394.792V813.969H421.17V839.898H421.708V813.969H448.087V839.898H448.625V813.969H475.004V839.898H475.542V813.969H501.921V839.898H502.459V813.969H528.838V839.898H529.376V813.969H555.755V839.898H556.293V813.969H582.672V839.898H583.21V813.969H609.589V839.898H610.127V813.969H636.506V839.898H637.044V813.969H663.422V839.898H663.961V813.969H690.339V839.898H690.878V813.969H717.256V839.898H717.795V813.969H744.173V839.898H744.712V813.969H771.09V839.898H771.628V813.969H798.007V839.898H798.545V813.969H824.924V839.898H825.462V813.969H851.841V813.44H825.462V787.512H851.841V786.983H825.462V761.054H851.841V760.525H825.462V734.597H851.841V734.067H825.462V708.139H851.841V707.61H825.462V681.681H851.841V681.152H825.462V655.224H851.841V654.695H825.462V628.766H851.841V628.237H825.462V602.308H851.841V601.779H825.462V575.851H851.841V575.322H825.462V549.393H851.841V548.864H825.462V522.936H851.841V522.407H825.462V496.478H851.841V495.949H825.462V470.021H851.841V469.492H825.462V443.563H851.841V443.034H825.462V417.106H851.841V416.577H825.462V390.648H851.841V390.119H825.462V364.191H851.841V363.661H825.462V337.733H851.841V337.204H825.462V311.275H851.841V310.746H825.462V284.817H851.841V284.288H825.462V258.36H851.841V257.83H825.462V231.902H851.841V231.373H825.462V205.444H851.841V204.915H825.462V178.987H851.841V178.458H825.462V152.529H851.841V152H825.462H824.924H798.545H798.007H771.628H771.09H744.712H744.173H717.795H717.256H690.878H690.339H663.961H663.422H637.045H636.506H610.127H609.589H583.21H582.672H556.293H555.755H529.376H528.838H502.459H501.921H475.542H475.004H448.625H448.087H421.708H421.17H394.792H394.253H367.875H367.336H340.958H340.419H314.041H313.502H287.123H286.585H260.206H259.668H233.289H232.751H206.372H205.834H179.455H178.917H152.538ZM152.538 152.529V178.458H178.917V152.529H152.538ZM179.455 152.529V178.458H205.834V152.529H179.455ZM206.372 152.529V178.458H232.751V152.529H206.372ZM233.289 152.529V178.458H259.668V152.529H233.289ZM260.206 152.529V178.458H286.585V152.529H260.206ZM287.123 152.529V178.458H313.502V152.529H287.123ZM314.041 152.529V178.458H340.419V152.529H314.041ZM340.958 152.529V178.458H367.336V152.529H340.958ZM367.875 152.529V178.458H394.253V152.529H367.875ZM394.792 152.529V178.458H421.17V152.529H394.792ZM421.708 152.529V178.458H448.087V152.529H421.708ZM448.625 152.529V178.458H475.004V152.529H448.625ZM475.542 152.529V178.458H501.921V152.529H475.542ZM502.459 152.529V178.458H528.838V152.529H502.459ZM529.376 152.529V178.458H555.755V152.529H529.376ZM556.293 152.529V178.458H582.672V152.529H556.293ZM583.21 152.529V178.458H609.589V152.529H583.21ZM610.127 152.529V178.458H636.506V152.529H610.127ZM637.045 152.529V178.458H663.422V152.529H637.045ZM663.961 152.529V178.458H690.339V152.529H663.961ZM690.878 152.529V178.458H717.256V152.529H690.878ZM717.795 152.529V178.458H744.173V152.529H717.795ZM744.712 152.529V178.458H771.09V152.529H744.712ZM771.628 152.529V178.458H798.007V152.529H771.628ZM798.545 152.529V178.458H824.924V152.529H798.545ZM824.924 178.987H798.545V204.915H824.924V178.987ZM824.924 205.444H798.545V231.373H824.924V205.444ZM824.924 231.902H798.545V257.83H824.924V231.902ZM824.924 258.36H798.545V284.288H824.924V258.36ZM824.924 284.817H798.545V310.746H824.924V284.817ZM824.924 311.275H798.545V337.204H824.924V311.275ZM824.924 337.733H798.545V363.661H824.924V337.733ZM824.924 364.191H798.545V390.119H824.924V364.191ZM824.924 390.648H798.545V416.577H824.924V390.648ZM824.924 417.106H798.545V443.034H824.924V417.106ZM824.924 443.563H798.545V469.492H824.924V443.563ZM824.924 470.021H798.545V495.949H824.924V470.021ZM824.924 496.478H798.545V522.407H824.924V496.478ZM824.924 522.936H798.545V548.864H824.924V522.936ZM824.924 549.393H798.545V575.322H824.924V549.393ZM824.924 575.851H798.545V601.779H824.924V575.851ZM824.924 602.308H798.545V628.237H824.924V602.308ZM824.924 628.766H798.545V654.695H824.924V628.766ZM824.924 655.224H798.545V681.152H824.924V655.224ZM824.924 681.681H798.545V707.61H824.924V681.681ZM824.924 708.139H798.545V734.067H824.924V708.139ZM824.924 734.597H798.545V760.525H824.924V734.597ZM824.924 761.054H798.545V786.983H824.924V761.054ZM824.924 787.512H798.545V813.44H824.924V787.512ZM798.007 813.44V787.512H771.628V813.44H798.007ZM771.09 813.44V787.512H744.712V813.44H771.09ZM744.173 813.44V787.512H717.795V813.44H744.173ZM717.256 813.44V787.512H690.878V813.44H717.256ZM690.339 813.44V787.512H663.961V813.44H690.339ZM663.422 813.44V787.512H637.044V813.44H663.422ZM636.506 813.44V787.512H610.127V813.44H636.506ZM609.589 813.44V787.512H583.21V813.44H609.589ZM582.672 813.44V787.512H556.293V813.44H582.672ZM555.755 813.44V787.512H529.376V813.44H555.755ZM528.838 813.44V787.512H502.459V813.44H528.838ZM501.921 813.44V787.512H475.542V813.44H501.921ZM475.004 813.44V787.512H448.625V813.44H475.004ZM448.087 813.44V787.512H421.708V813.44H448.087ZM421.17 813.44V787.512H394.792V813.44H421.17ZM394.253 813.44V787.512H367.875V813.44H394.253ZM367.336 813.44V787.512H340.958V813.44H367.336ZM340.419 813.44V787.512H314.04V813.44H340.419ZM313.502 813.44V787.512H287.123V813.44H313.502ZM286.585 813.44V787.512H260.206V813.44H286.585ZM259.668 813.44V787.512H233.289V813.44H259.668ZM232.751 813.44V787.512H206.372V813.44H232.751ZM205.834 813.44V787.512H179.455V813.44H205.834ZM178.917 813.44V787.512H152.538V813.44H178.917ZM152.538 786.983H178.917V761.054H152.538V786.983ZM152.538 760.525H178.917V734.597H152.538V760.525ZM152.538 734.067H178.917V708.139H152.538V734.067ZM152.538 707.61H178.917V681.681H152.538V707.61ZM152.538 681.152H178.917V655.224H152.538V681.152ZM152.538 654.695H178.917V628.766H152.538V654.695ZM152.538 628.237H178.917V602.308H152.538V628.237ZM152.538 601.779H178.917V575.851H152.538V601.779ZM152.538 575.322H178.917V549.393H152.538V575.322ZM152.538 548.864H178.917V522.936H152.538V548.864ZM152.538 522.407H178.917V496.478H152.538V522.407ZM152.538 495.949H178.917V470.021H152.538L152.538 495.949ZM152.538 469.492H178.917V443.563H152.538V469.492ZM152.538 443.034H178.917V417.106H152.538V443.034ZM152.538 416.577H178.917V390.648H152.538V416.577ZM152.538 390.119H178.917V364.191H152.538V390.119ZM152.538 363.661H178.917V337.733H152.538V363.661ZM152.538 337.204H178.917V311.275H152.538V337.204ZM152.538 310.746H178.917V284.817H152.538V310.746ZM152.538 284.288H178.917V258.36H152.538V284.288ZM152.538 257.83H178.917V231.902H152.538V257.83ZM152.538 231.373H178.917V205.444H152.538V231.373ZM152.538 204.915H178.917V178.987H152.538V204.915ZM179.455 178.987V204.915H205.834V178.987H179.455ZM206.372 178.987V204.915H232.751V178.987H206.372ZM233.289 178.987V204.915H259.668V178.987H233.289ZM260.206 178.987V204.915H286.585V178.987H260.206ZM287.123 178.987V204.915H313.502V178.987H287.123ZM314.041 178.987V204.915H340.419V178.987H314.041ZM340.958 178.987V204.915H367.336V178.987H340.958ZM367.875 178.987V204.915H394.253V178.987H367.875ZM394.792 178.987V204.915H421.17V178.987H394.792ZM421.708 178.987V204.915H448.087V178.987H421.708ZM448.625 178.987V204.915H475.004V178.987H448.625ZM475.542 178.987V204.915H501.921V178.987H475.542ZM502.459 178.987V204.915H528.838V178.987H502.459ZM529.376 178.987V204.915H555.755V178.987H529.376ZM556.293 178.987V204.915H582.672V178.987H556.293ZM583.21 178.987V204.915H609.589V178.987H583.21ZM610.127 178.987V204.915H636.506V178.987H610.127ZM637.045 178.987V204.915H663.422V178.987H637.045ZM663.961 178.987V204.915H690.339V178.987H663.961ZM690.878 178.987V204.915H717.256V178.987H690.878ZM717.795 178.987V204.915H744.173V178.987H717.795ZM744.712 178.987V204.915H771.09V178.987H744.712ZM771.628 178.987V204.915H798.007V178.987H771.628ZM798.007 205.444H771.628V231.373H798.007V205.444ZM798.007 231.902H771.628V257.83H798.007V231.902ZM798.007 258.36H771.628V284.288H798.007V258.36ZM798.007 284.817H771.628V310.746H798.007V284.817ZM798.007 311.275H771.628V337.204H798.007V311.275ZM798.007 337.733H771.628V363.661H798.007V337.733ZM798.007 364.191H771.628V390.119H798.007V364.191ZM798.007 390.648H771.628V416.577H798.007V390.648ZM798.007 417.106H771.628V443.034H798.007V417.106ZM798.007 443.563H771.628V469.492H798.007V443.563ZM798.007 470.021H771.628V495.949H798.007V470.021ZM798.007 496.478H771.628V522.407H798.007V496.478ZM798.007 522.936H771.628V548.864H798.007V522.936ZM798.007 549.393H771.628V575.322H798.007V549.393ZM798.007 575.851H771.628V601.779H798.007V575.851ZM798.007 602.308H771.628V628.237H798.007V602.308ZM798.007 628.766H771.628V654.695H798.007V628.766ZM798.007 655.224H771.628V681.152H798.007V655.224ZM798.007 681.681H771.628V707.61H798.007V681.681ZM798.007 708.139H771.628V734.067H798.007V708.139ZM798.007 734.597H771.628V760.525H798.007V734.597ZM798.007 761.054H771.628V786.983H798.007V761.054ZM771.09 786.983V761.054H744.712V786.983H771.09ZM744.173 786.983V761.054H717.795V786.983H744.173ZM717.256 786.983V761.054H690.878V786.983H717.256ZM690.339 786.983V761.054H663.961V786.983H690.339ZM663.422 786.983V761.054H637.044V786.983H663.422ZM636.506 786.983V761.054H610.127V786.983H636.506ZM609.589 786.983V761.054H583.21V786.983H609.589ZM582.672 786.983V761.054H556.293V786.983H582.672ZM555.755 786.983V761.054H529.376V786.983H555.755ZM528.838 786.983V761.054H502.459V786.983H528.838ZM501.921 786.983V761.054H475.542V786.983H501.921ZM475.004 786.983V761.054H448.625V786.983H475.004ZM448.087 786.983V761.054H421.708V786.983H448.087ZM421.17 786.983V761.054H394.792V786.983H421.17ZM394.253 786.983V761.054H367.875V786.983H394.253ZM367.336 786.983V761.054H340.958V786.983H367.336ZM340.419 786.983V761.054H314.04V786.983H340.419ZM313.502 786.983V761.054H287.123V786.983H313.502ZM286.585 786.983V761.054H260.206V786.983H286.585ZM259.668 786.983V761.054H233.289V786.983H259.668ZM232.751 786.983V761.054H206.372V786.983H232.751ZM205.834 786.983V761.054H179.455V786.983H205.834ZM179.455 760.525H205.834V734.597H179.455V760.525ZM179.455 734.067H205.834V708.139H179.455V734.067ZM179.455 707.61H205.834V681.681H179.455V707.61ZM179.455 681.152H205.834V655.224H179.455V681.152ZM179.455 654.695H205.834V628.766H179.455V654.695ZM179.455 628.237H205.834V602.308H179.455V628.237ZM179.455 601.779H205.834V575.851H179.455V601.779ZM179.455 575.322H205.834V549.393H179.455V575.322ZM179.455 548.864H205.834V522.936H179.455V548.864ZM179.455 522.407H205.834V496.478H179.455V522.407ZM179.455 495.949H205.834V470.021H179.455V495.949ZM179.455 469.492H205.834V443.563H179.455V469.492ZM179.455 443.034H205.834V417.106H179.455V443.034ZM179.455 416.577H205.834V390.648H179.455V416.577ZM179.455 390.119H205.834V364.191H179.455V390.119ZM179.455 363.661H205.834V337.733H179.455V363.661ZM179.455 337.204H205.834V311.275H179.455V337.204ZM179.455 310.746H205.834V284.817H179.455V310.746ZM179.455 284.288H205.834V258.36H179.455V284.288ZM179.455 257.83H205.834V231.902H179.455V257.83ZM179.455 231.373H205.834V205.444H179.455V231.373ZM206.372 205.444V231.373H232.751V205.444H206.372ZM233.289 205.444V231.373H259.668V205.444H233.289ZM260.206 205.444V231.373H286.585V205.444H260.206ZM287.123 205.444V231.373H313.502V205.444H287.123ZM314.041 205.444V231.373H340.419V205.444H314.041ZM340.958 205.444V231.373H367.336V205.444H340.958ZM367.875 205.444V231.373H394.253V205.444H367.875ZM394.792 205.444V231.373H421.17V205.444H394.792ZM421.708 205.444V231.373H448.087V205.444H421.708ZM448.625 205.444V231.373H475.004V205.444H448.625ZM475.542 205.444V231.373H501.921V205.444H475.542ZM502.459 205.444V231.373H528.838V205.444H502.459ZM529.376 205.444V231.373H555.755V205.444H529.376ZM556.293 205.444V231.373H582.672V205.444H556.293ZM583.21 205.444V231.373H609.589V205.444H583.21ZM610.127 205.444V231.373H636.506V205.444H610.127ZM637.045 205.444V231.373H663.422V205.444H637.045ZM663.961 205.444V231.373H690.339V205.444H663.961ZM690.878 205.444V231.373H717.256V205.444H690.878ZM717.795 205.444V231.373H744.173V205.444H717.795ZM744.712 205.444V231.373H771.09V205.444H744.712ZM771.09 231.902H744.712V257.83H771.09V231.902ZM771.09 258.36H744.712V284.288H771.09V258.36ZM771.09 284.817H744.712V310.746H771.09V284.817ZM771.09 311.275H744.712V337.204H771.09V311.275ZM771.09 337.733H744.712V363.661H771.09V337.733ZM771.09 364.191H744.712V390.119H771.09V364.191ZM771.09 390.648H744.712V416.577H771.09V390.648ZM771.09 417.106H744.712V443.034H771.09V417.106ZM771.09 443.563H744.712V469.492H771.09V443.563ZM771.09 470.021H744.712V495.949H771.09V470.021ZM771.09 496.478H744.712V522.407H771.09V496.478ZM771.09 522.936H744.712V548.864H771.09V522.936ZM771.09 549.393H744.712V575.322H771.09V549.393ZM771.09 575.851H744.712V601.779H771.09V575.851ZM771.09 602.308H744.712V628.237H771.09V602.308ZM771.09 628.766H744.712V654.695H771.09V628.766ZM771.09 655.224H744.712V681.152H771.09V655.224ZM771.09 681.681H744.712V707.61H771.09V681.681ZM771.09 708.139H744.712V734.067H771.09V708.139ZM771.09 734.597H744.712V760.525H771.09V734.597ZM744.173 760.525V734.597H717.795V760.525H744.173ZM717.256 760.525V734.597H690.878V760.525H717.256ZM690.339 760.525V734.597H663.961V760.525H690.339ZM663.422 760.525V734.597H637.044V760.525H663.422ZM636.506 760.525V734.597H610.127V760.525H636.506ZM609.589 760.525V734.597H583.21V760.525H609.589ZM582.672 760.525V734.597H556.293V760.525H582.672ZM555.755 760.525V734.597H529.376V760.525H555.755ZM528.838 760.525V734.597H502.459V760.525H528.838ZM501.921 760.525V734.597H475.542V760.525H501.921ZM475.004 760.525V734.597H448.625V760.525H475.004ZM448.087 760.525V734.597H421.708V760.525H448.087ZM421.17 760.525V734.597H394.792V760.525H421.17ZM394.253 760.525V734.597H367.875V760.525H394.253ZM367.336 760.525V734.597H340.958V760.525H367.336ZM340.419 760.525V734.597H314.04V760.525H340.419ZM313.502 760.525V734.597H287.123V760.525H313.502ZM286.585 760.525V734.597H260.206V760.525H286.585ZM259.668 760.525V734.597H233.289V760.525H259.668ZM232.751 760.525V734.597H206.372V760.525H232.751ZM206.372 734.067H232.751V708.139H206.372V734.067ZM206.372 707.61H232.751V681.681H206.372V707.61ZM206.372 681.152H232.751V655.224H206.372V681.152ZM206.372 654.695H232.751V628.766H206.372V654.695ZM206.372 628.237H232.751V602.308H206.372V628.237ZM206.372 601.779H232.751V575.851H206.372V601.779ZM206.372 575.322H232.751V549.393H206.372V575.322ZM206.372 548.864H232.751V522.936H206.372V548.864ZM206.372 522.407H232.751V496.478H206.372V522.407ZM206.372 495.949H232.751V470.021H206.372V495.949ZM206.372 469.492H232.751V443.563H206.372V469.492ZM206.372 443.034H232.751V417.106H206.372V443.034ZM206.372 416.577H232.751V390.648H206.372V416.577ZM206.372 390.119H232.751V364.191H206.372V390.119ZM206.372 363.661H232.751V337.733H206.372V363.661ZM206.372 337.204H232.751V311.275H206.372V337.204ZM206.372 310.746H232.751V284.817H206.372V310.746ZM206.372 284.288H232.751V258.36H206.372V284.288ZM206.372 257.83H232.751V231.902H206.372V257.83ZM233.289 231.902V257.83H259.668V231.902H233.289ZM260.206 231.902V257.83H286.585V231.902H260.206ZM287.123 231.902V257.83H313.502V231.902H287.123ZM314.041 231.902V257.83H340.419V231.902H314.041ZM340.958 231.902V257.83H367.336V231.902H340.958ZM367.875 231.902V257.83H394.253V231.902H367.875ZM394.792 231.902V257.83H421.17V231.902H394.792ZM421.708 231.902V257.83H448.087V231.902H421.708ZM448.625 231.902V257.83H475.004V231.902H448.625ZM475.542 231.902V257.83H501.921V231.902H475.542ZM502.459 231.902V257.83H528.838V231.902H502.459ZM529.376 231.902V257.83H555.755V231.902H529.376ZM556.293 231.902V257.83H582.672V231.902H556.293ZM583.21 231.902V257.83H609.589V231.902H583.21ZM610.127 231.902V257.83H636.506V231.902H610.127ZM637.045 231.902V257.83H663.422V231.902H637.045ZM663.961 231.902V257.83H690.339V231.902H663.961ZM690.878 231.902V257.83H717.256V231.902H690.878ZM717.795 231.902V257.83H744.173V231.902H717.795ZM744.173 258.36H717.795V284.288H744.173V258.36ZM744.173 284.817H717.795V310.746H744.173V284.817ZM744.173 311.275H717.795V337.204H744.173V311.275ZM744.173 337.733H717.795V363.661H744.173V337.733ZM744.173 364.191H717.795V390.119H744.173V364.191ZM744.173 390.648H717.795V416.577H744.173V390.648ZM744.173 417.106H717.795V443.034H744.173V417.106ZM744.173 443.563H717.795V469.492H744.173V443.563ZM744.173 470.021H717.795V495.949H744.173V470.021ZM744.173 496.478H717.795V522.407H744.173V496.478ZM744.173 522.936H717.795V548.864H744.173V522.936ZM744.173 549.393H717.795V575.322H744.173V549.393ZM744.173 575.851H717.795V601.779H744.173V575.851ZM744.173 602.308H717.795V628.237H744.173V602.308ZM744.173 628.766H717.795V654.695H744.173V628.766ZM744.173 655.224H717.795V681.152H744.173V655.224ZM744.173 681.681H717.795V707.61H744.173V681.681ZM744.173 708.139H717.795V734.067H744.173V708.139ZM717.256 734.067V708.139H690.878V734.067H717.256ZM690.339 734.067V708.139H663.961V734.067H690.339ZM663.422 734.067V708.139H637.044V734.067H663.422ZM636.506 734.067V708.139H610.127V734.067H636.506ZM609.589 734.067V708.139H583.21V734.067H609.589ZM582.672 734.067V708.139H556.293V734.067H582.672ZM555.755 734.067V708.139H529.376V734.067H555.755ZM528.838 734.067V708.139H502.459V734.067H528.838ZM501.921 734.067V708.139H475.542V734.067H501.921ZM475.004 734.067V708.139H448.625V734.067H475.004ZM448.087 734.067V708.139H421.708V734.067H448.087ZM421.17 734.067V708.139H394.792V734.067H421.17ZM394.253 734.067V708.139H367.875V734.067H394.253ZM367.336 734.067V708.139H340.958V734.067H367.336ZM340.419 734.067V708.139H314.04V734.067H340.419ZM313.502 734.067V708.139H287.123V734.067H313.502ZM286.585 734.067V708.139H260.206V734.067H286.585ZM259.668 734.067V708.139H233.289V734.067H259.668ZM233.289 707.61H259.668V681.681H233.289V707.61ZM233.289 681.152H259.668V655.224H233.289V681.152ZM233.289 654.695H259.668V628.766H233.289V654.695ZM233.289 628.237H259.668V602.308H233.289V628.237ZM233.289 601.779H259.668V575.851H233.289V601.779ZM233.289 575.322H259.668V549.393H233.289V575.322ZM233.289 548.864H259.668V522.936H233.289V548.864ZM233.289 522.407H259.668V496.478H233.289V522.407ZM233.289 495.949H259.668V470.021H233.289V495.949ZM233.289 469.492H259.668V443.563H233.289V469.492ZM233.289 443.034H259.668V417.106H233.289V443.034ZM233.289 416.577H259.668V390.648H233.289V416.577ZM233.289 390.119H259.668V364.191H233.289V390.119ZM233.289 363.661H259.668V337.733H233.289V363.661ZM233.289 337.204H259.668V311.275H233.289V337.204ZM233.289 310.746H259.668V284.817H233.289V310.746ZM233.289 284.288H259.668V258.36H233.289V284.288ZM260.206 258.36V284.288H286.585V258.36H260.206ZM287.123 258.36V284.288H313.502V258.36H287.123ZM314.041 258.36V284.288H340.419V258.36H314.041ZM340.958 258.36V284.288H367.336V258.36H340.958ZM367.875 258.36V284.288H394.253V258.36H367.875ZM394.792 258.36V284.288H421.17V258.36H394.792ZM421.708 258.36V284.288H448.087V258.36H421.708ZM448.625 258.36V284.288H475.004V258.36H448.625ZM475.542 258.36V284.288H501.921V258.36H475.542ZM502.459 258.36V284.288H528.838V258.36H502.459ZM529.376 258.36V284.288H555.755V258.36H529.376ZM556.293 258.36V284.288H582.672V258.36H556.293ZM583.21 258.36V284.288H609.589V258.36H583.21ZM610.127 258.36V284.288H636.506V258.36H610.127ZM637.045 258.36V284.288H663.422V258.36H637.045ZM663.961 258.36V284.288H690.339V258.36H663.961ZM690.878 258.36V284.288H717.256V258.36H690.878ZM717.256 284.817H690.878V310.746H717.256V284.817ZM717.256 311.275H690.878V337.204H717.256V311.275ZM717.256 337.733H690.878V363.661H717.256V337.733ZM717.256 364.191H690.878V390.119H717.256V364.191ZM717.256 390.648H690.878V416.577H717.256V390.648ZM717.256 417.106H690.878V443.034H717.256V417.106ZM717.256 443.563H690.878V469.492H717.256V443.563ZM717.256 470.021H690.878V495.949H717.256V470.021ZM717.256 496.478H690.878V522.407H717.256V496.478ZM717.256 522.936H690.878V548.864H717.256V522.936ZM717.256 549.393H690.878V575.322H717.256V549.393ZM717.256 575.851H690.878V601.779H717.256V575.851ZM717.256 602.308H690.878V628.237H717.256V602.308ZM717.256 628.766H690.878V654.695H717.256V628.766ZM717.256 655.224H690.878V681.152H717.256V655.224ZM717.256 681.681H690.878V707.61H717.256V681.681ZM690.339 707.61V681.681H663.961V707.61H690.339ZM663.422 707.61V681.681H637.044V707.61H663.422ZM636.506 707.61V681.681H610.127V707.61H636.506ZM609.589 707.61V681.681H583.21V707.61H609.589ZM582.672 707.61V681.681H556.293V707.61H582.672ZM555.755 707.61V681.681H529.376V707.61H555.755ZM528.838 707.61V681.681H502.459V707.61H528.838ZM501.921 707.61V681.681H475.542V707.61H501.921ZM475.004 707.61V681.681H448.625V707.61H475.004ZM448.087 707.61V681.681H421.708V707.61H448.087ZM421.17 707.61V681.681H394.792V707.61H421.17ZM394.253 707.61V681.681H367.875V707.61H394.253ZM367.336 707.61V681.681H340.958V707.61H367.336ZM340.419 707.61V681.681H314.04V707.61H340.419ZM313.502 707.61V681.681H287.123V707.61H313.502ZM286.585 707.61V681.681H260.206V707.61H286.585ZM260.206 681.152H286.585V655.224H260.206V681.152ZM260.206 654.695H286.585V628.766H260.206V654.695ZM260.206 628.237H286.585V602.308H260.206V628.237ZM260.206 601.779H286.585V575.851H260.206V601.779ZM260.206 575.322H286.585V549.393H260.206V575.322ZM260.206 548.864H286.585V522.936H260.206V548.864ZM260.206 522.407H286.585V496.478H260.206V522.407ZM260.206 495.949H286.585V470.021H260.206V495.949ZM260.206 469.492H286.585V443.563H260.206V469.492ZM260.206 443.034H286.585V417.106H260.206V443.034ZM260.206 416.577H286.585V390.648H260.206V416.577ZM260.206 390.119H286.585V364.191H260.206V390.119ZM260.206 363.661H286.585V337.733H260.206V363.661ZM260.206 337.204H286.585V311.275H260.206V337.204ZM260.206 310.746H286.585V284.817H260.206V310.746ZM287.123 284.817V310.746H313.502V284.817H287.123ZM314.041 284.817V310.746H340.419V284.817H314.041ZM340.958 284.817V310.746H367.336V284.817H340.958ZM367.875 284.817V310.746H394.253V284.817H367.875ZM394.792 284.817V310.746H421.17V284.817H394.792ZM421.708 284.817V310.746H448.087V284.817H421.708ZM448.625 284.817V310.746H475.004V284.817H448.625ZM475.542 284.817V310.746L501.921 310.746V284.817H475.542ZM502.459 284.817V310.746H528.838V284.817H502.459ZM529.376 284.817V310.746H555.755V284.817H529.376ZM556.293 284.817V310.746H582.672V284.817H556.293ZM583.21 284.817V310.746H609.589V284.817H583.21ZM610.127 284.817V310.746H636.506V284.817H610.127ZM637.045 284.817V310.746H663.422V284.817H637.045ZM663.961 284.817V310.746H690.339V284.817H663.961ZM690.339 311.275H663.961V337.204H690.339V311.275ZM690.339 337.733H663.961V363.661H690.339V337.733ZM690.339 364.191H663.961V390.119H690.339V364.191ZM690.339 390.648H663.961V416.577H690.339V390.648ZM690.339 417.106H663.961V443.034H690.339V417.106ZM690.339 443.563H663.961V469.492H690.339V443.563ZM690.339 470.021H663.961V495.949H690.339V470.021ZM690.339 496.478H663.961V522.407H690.339V496.478ZM690.339 522.936H663.961V548.864H690.339V522.936ZM690.339 549.393H663.961V575.322H690.339V549.393ZM690.339 575.851H663.961V601.779H690.339V575.851ZM690.339 602.308H663.961V628.237H690.339V602.308ZM690.339 628.766H663.961V654.695H690.339V628.766ZM690.339 655.224H663.961V681.152H690.339V655.224ZM663.422 681.152V655.224H637.044V681.152H663.422ZM636.506 681.152V655.224H610.127V681.152H636.506ZM609.589 681.152V655.224H583.21V681.152H609.589ZM582.672 681.152V655.224H556.293V681.152H582.672ZM555.755 681.152V655.224H529.376V681.152H555.755ZM528.838 681.152V655.224H502.459V681.152H528.838ZM501.921 681.152V655.224H475.542V681.152H501.921ZM475.004 681.152V655.224H448.625V681.152H475.004ZM448.087 681.152V655.224H421.708V681.152H448.087ZM421.17 681.152V655.224H394.792V681.152H421.17ZM394.253 681.152V655.224H367.875V681.152H394.253ZM367.336 681.152V655.224H340.958V681.152H367.336ZM340.419 681.152V655.224H314.04V681.152H340.419ZM313.502 681.152V655.224H287.123V681.152H313.502ZM287.123 654.695H313.502V628.766H287.123V654.695ZM287.123 628.237H313.502V602.308H287.123V628.237ZM287.123 601.779H313.502V575.851H287.123V601.779ZM287.123 575.322H313.502V549.393H287.123V575.322ZM287.123 548.864H313.502V522.936H287.123V548.864ZM287.123 522.407H313.502V496.478H287.123V522.407ZM287.123 495.949H313.502L313.502 470.021H287.123V495.949ZM287.123 469.492H313.502V443.563H287.123V469.492ZM287.123 443.034H313.502V417.106H287.123V443.034ZM287.123 416.577H313.502V390.648H287.123V416.577ZM287.123 390.119H313.502V364.191H287.123V390.119ZM287.123 363.661H313.502V337.733H287.123V363.661ZM287.123 337.204H313.502V311.275H287.123V337.204ZM314.041 311.275V337.204H340.419V311.275H314.041ZM340.958 311.275V337.204H367.336V311.275H340.958ZM367.875 311.275V337.204H394.253V311.275H367.875ZM394.792 311.275V337.204H421.17V311.275H394.792ZM421.708 311.275V337.204H448.087V311.275H421.708ZM448.625 311.275V337.204H475.004V311.275H448.625ZM475.542 311.275V337.204H501.921V311.275L475.542 311.275ZM502.459 311.275V337.204H528.838V311.275H502.459ZM529.376 311.275V337.204H555.755V311.275H529.376ZM556.293 311.275V337.204H582.672V311.275H556.293ZM583.21 311.275V337.204H609.589V311.275H583.21ZM610.127 311.275V337.204H636.506V311.275H610.127ZM637.045 311.275V337.204H663.422V311.275H637.045ZM663.422 337.733H637.045V363.661H663.422V337.733ZM663.422 364.191H637.045V390.119H663.422V364.191ZM663.422 390.648H637.045V416.577H663.422V390.648ZM663.422 417.106H637.045V443.034H663.422V417.106ZM663.422 443.563H637.045V469.492H663.422V443.563ZM663.422 470.021H637.045L637.044 495.949H663.422V470.021ZM663.422 496.478H637.044V522.407H663.422V496.478ZM663.422 522.936H637.044V548.864H663.422V522.936ZM663.422 549.393H637.044V575.322H663.422V549.393ZM663.422 575.851H637.044V601.779H663.422V575.851ZM663.422 602.308H637.044V628.237H663.422V602.308ZM663.422 628.766H637.044V654.695H663.422V628.766ZM636.506 654.695V628.766H610.127V654.695H636.506ZM609.589 654.695V628.766H583.21V654.695H609.589ZM582.672 654.695V628.766H556.293V654.695H582.672ZM555.755 654.695V628.766H529.376V654.695H555.755ZM528.838 654.695V628.766H502.459V654.695H528.838ZM501.921 654.695V628.766H475.542V654.695H501.921ZM475.004 654.695V628.766H448.625V654.695H475.004ZM448.087 654.695V628.766H421.708V654.695H448.087ZM421.17 654.695V628.766H394.792V654.695H421.17ZM394.253 654.695V628.766H367.875V654.695H394.253ZM367.336 654.695V628.766H340.958V654.695H367.336ZM340.419 654.695V628.766H314.04V654.695H340.419ZM314.04 628.237H340.419V602.308H314.04V628.237ZM314.04 601.779H340.419V575.851H314.04V601.779ZM314.04 575.322H340.419V549.393H314.04V575.322ZM314.04 548.864H340.419V522.936H314.04V548.864ZM314.04 522.407H340.419V496.478H314.04V522.407ZM314.04 495.949H340.419V470.021H314.041L314.04 495.949ZM314.041 469.492H340.419V443.563H314.041V469.492ZM314.041 443.034H340.419V417.106H314.041V443.034ZM314.041 416.577H340.419V390.648H314.041V416.577ZM314.041 390.119H340.419V364.191H314.041V390.119ZM314.041 363.661H340.419V337.733H314.041V363.661ZM340.958 337.733V363.661H367.336V337.733H340.958ZM367.875 337.733V363.661H394.253V337.733H367.875ZM394.792 337.733V363.661H421.17V337.733H394.792ZM421.708 337.733V363.661H448.087V337.733H421.708ZM448.625 337.733V363.661H475.004V337.733H448.625ZM475.542 337.733V363.661H501.921V337.733H475.542ZM502.459 337.733V363.661H528.838V337.733H502.459ZM529.376 337.733V363.661H555.755V337.733H529.376ZM556.293 337.733V363.661H582.672V337.733H556.293ZM583.21 337.733V363.661H609.589V337.733H583.21ZM610.127 337.733V363.661H636.506V337.733H610.127ZM636.506 364.191H610.127V390.119H636.506V364.191ZM636.506 390.648H610.127V416.577H636.506V390.648ZM636.506 417.106H610.127V443.034H636.506V417.106ZM636.506 443.563H610.127V469.492H636.506V443.563ZM636.506 470.021H610.127V495.949H636.506L636.506 470.021ZM636.506 496.478H610.127V522.407H636.506V496.478ZM636.506 522.936H610.127V548.864H636.506V522.936ZM636.506 549.393H610.127V575.322H636.506V549.393ZM636.506 575.851H610.127V601.779H636.506V575.851ZM636.506 602.308H610.127V628.237H636.506V602.308ZM609.589 628.237V602.308H583.21V628.237H609.589ZM582.672 628.237V602.308H556.293V628.237H582.672ZM555.755 628.237V602.308H529.376V628.237H555.755ZM528.838 628.237V602.308H502.459V628.237H528.838ZM501.921 628.237V602.308H475.542V628.237H501.921ZM475.004 628.237V602.308H448.625V628.237H475.004ZM448.087 628.237V602.308H421.708V628.237H448.087ZM421.17 628.237V602.308H394.792V628.237H421.17ZM394.253 628.237V602.308H367.875V628.237H394.253ZM367.336 628.237V602.308H340.958V628.237H367.336ZM340.958 601.779H367.336V575.851H340.958V601.779ZM340.958 575.322H367.336V549.393H340.958V575.322ZM340.958 548.864H367.336V522.936H340.958V548.864ZM340.958 522.407H367.336V496.478H340.958V522.407ZM340.958 495.949H367.336V470.021H340.958V495.949ZM340.958 469.492H367.336V443.563H340.958V469.492ZM340.958 443.034H367.336V417.106H340.958V443.034ZM340.958 416.577H367.336V390.648H340.958V416.577ZM340.958 390.119H367.336V364.191H340.958V390.119ZM367.875 364.191V390.119H394.253V364.191H367.875ZM394.792 364.191V390.119H421.17V364.191H394.792ZM421.708 364.191V390.119H448.087V364.191H421.708ZM448.625 364.191V390.119H475.004V364.191H448.625ZM475.542 364.191V390.119H501.921V364.191H475.542ZM502.459 364.191V390.119H528.838V364.191H502.459ZM529.376 364.191V390.119H555.755V364.191H529.376ZM556.293 364.191V390.119H582.672V364.191H556.293ZM583.21 364.191V390.119H609.589V364.191H583.21ZM609.589 390.648H583.21V416.577H609.589V390.648ZM609.589 417.106H583.21V443.034H609.589V417.106ZM609.589 443.563H583.21V469.492H609.589V443.563ZM609.589 470.021H583.21V495.949H609.589V470.021ZM609.589 496.478H583.21V522.407H609.589V496.478ZM609.589 522.936H583.21V548.864H609.589V522.936ZM609.589 549.393H583.21V575.322H609.589V549.393ZM609.589 575.851H583.21V601.779H609.589V575.851ZM582.672 601.779V575.851H556.293V601.779H582.672ZM555.755 601.779V575.851H529.376V601.779H555.755ZM528.838 601.779V575.851H502.459V601.779H528.838ZM501.921 601.779V575.851H475.542V601.779H501.921ZM475.004 601.779V575.851H448.625V601.779H475.004ZM448.087 601.779V575.851H421.708V601.779H448.087ZM421.17 601.779V575.851H394.792V601.779H421.17ZM394.253 601.779V575.851H367.875V601.779H394.253ZM367.875 575.322H394.253V549.393H367.875V575.322ZM367.875 548.864H394.253V522.936H367.875V548.864ZM367.875 522.407H394.253V496.478H367.875V522.407ZM367.875 495.949H394.253V470.021H367.875V495.949ZM367.875 469.492H394.253V443.563H367.875V469.492ZM367.875 443.034H394.253V417.106H367.875V443.034ZM367.875 416.577H394.253V390.648H367.875V416.577ZM394.792 390.648V416.577H421.17V390.648H394.792ZM421.708 390.648V416.577H448.087V390.648H421.708ZM448.625 390.648V416.577H475.004V390.648H448.625ZM475.542 390.648V416.577H501.921V390.648H475.542ZM502.459 390.648V416.577H528.838V390.648H502.459ZM529.376 390.648V416.577H555.755V390.648H529.376ZM556.293 390.648V416.577H582.672V390.648H556.293ZM582.672 417.106H556.293V443.034H582.672V417.106ZM582.672 443.563H556.293V469.492H582.672V443.563ZM582.672 470.021H556.293V495.949H582.672V470.021ZM582.672 496.478H556.293V522.407H582.672V496.478ZM582.672 522.936H556.293V548.864H582.672V522.936ZM582.672 549.393H556.293V575.322H582.672V549.393ZM555.755 575.322V549.393H529.376V575.322H555.755ZM528.838 575.322V549.393H502.459V575.322H528.838ZM501.921 575.322V549.393H475.542V575.322H501.921ZM475.004 575.322V549.393H448.625V575.322H475.004ZM448.087 575.322V549.393H421.708V575.322H448.087ZM421.17 575.322V549.393H394.792V575.322H421.17ZM394.792 548.864H421.17V522.936H394.792V548.864ZM394.792 522.407H421.17V496.478H394.792V522.407ZM394.792 495.949H421.17V470.021H394.792V495.949ZM394.792 469.492H421.17V443.563H394.792V469.492ZM394.792 443.034H421.17V417.106H394.792V443.034ZM421.708 417.106V443.034H448.087V417.106H421.708ZM448.625 417.106V443.034H475.004V417.106H448.625ZM475.542 417.106V443.034H501.921V417.106H475.542ZM502.459 417.106V443.034H528.838V417.106H502.459ZM529.376 417.106V443.034H555.755V417.106H529.376ZM555.755 443.563H529.376V469.492H555.755V443.563ZM555.755 470.021H529.376V495.949H555.755V470.021ZM555.755 496.478H529.376V522.407H555.755V496.478ZM555.755 522.936H529.376V548.864H555.755V522.936ZM528.838 548.864V522.936H502.459V548.864H528.838ZM501.921 548.864V522.936H475.542V548.864H501.921ZM475.004 548.864V522.936H448.625V548.864H475.004ZM448.087 548.864V522.936H421.708V548.864H448.087ZM421.708 522.407H448.087V496.478H421.708V522.407ZM421.708 495.949H448.087V470.021H421.708V495.949ZM421.708 469.492H448.087V443.563H421.708V469.492ZM448.625 443.563V469.492H475.004V443.563H448.625ZM475.542 443.563V469.492H501.921V443.563H475.542ZM502.459 443.563V469.492H528.838V443.563H502.459ZM528.838 470.021H502.459V495.949H528.838V470.021ZM528.838 496.478H502.459V522.407H528.838V496.478ZM501.921 522.407V496.478H475.542V522.407H501.921ZM475.004 522.407V496.478H448.625V522.407H475.004ZM448.625 495.949H475.004V470.021H448.625V495.949ZM475.542 470.021V495.949H501.921V470.021H475.542ZM152 839.898H851.841V840.427H152L152 839.898ZM851.841 839.898V152H852.379V839.898H851.841Z" fill="url(#paint0_radial_1_1567)" fill-opacity="0.5"/>
</g>
<defs>
<filter id="filter0_f_1_1567" x="0.216568" y="0.237076" width="1003.58" height="992.535" filterUnits="userSpaceOnUse" color-interpolation-filters="sRGB">
<feFlood flood-opacity="0" result="BackgroundImageFix"/>
<feBlend mode="normal" in="SourceGraphic" in2="BackgroundImageFix" result="shape"/>
<feGaussianBlur stdDeviation="89.1236" result="effect1_foregroundBlur_1_1567"/>
</filter>
<filter id="filter1_f_1_1567" x="190.628" y="-197.52" width="929.438" height="1221.99" filterUnits="userSpaceOnUse" color-interpolation-filters="sRGB">
<feFlood flood-opacity="0" result="BackgroundImageFix"/>
<feBlend mode="normal" in="SourceGraphic" in2="BackgroundImageFix" result="shape"/>
<feGaussianBlur stdDeviation="66.0744" result="effect1_foregroundBlur_1_1567"/>
</filter>
<filter id="filter2_f_1_1567" x="107.861" y="170.175" width="683.422" height="732.841" filterUnits="userSpaceOnUse" color-interpolation-filters="sRGB">
<feFlood flood-opacity="0" result="BackgroundImageFix"/>
<feBlend mode="normal" in="SourceGraphic" in2="BackgroundImageFix" result="shape"/>
<feGaussianBlur stdDeviation="66.0744" result="effect1_foregroundBlur_1_1567"/>
</filter>
<filter id="filter3_f_1_1567" x="-340.654" y="-105.906" width="1427.17" height="1094.62" filterUnits="userSpaceOnUse" color-interpolation-filters="sRGB">
<feFlood flood-opacity="0" result="BackgroundImageFix"/>
<feBlend mode="normal" in="SourceGraphic" in2="BackgroundImageFix" result="shape"/>
<feGaussianBlur stdDeviation="89.1236" result="effect1_foregroundBlur_1_1567"/>
</filter>
<radialGradient id="paint0_radial_1_1567" cx="0" cy="0" r="1" gradientUnits="userSpaceOnUse" gradientTransform="translate(502.19 496.213) rotate(90) scale(367.231 373.607)">
<stop stop-color="white" stop-opacity="0.69"/>
<stop offset="1" stop-color="#F0F3F9" stop-opacity="0"/>
</radialGradient>
</defs>
</svg>
