<svg width="1703" height="1680" viewBox="0 0 1703 1680" fill="none" xmlns="http://www.w3.org/2000/svg">
<g opacity="0.5">
<g opacity="0.3" filter="url(#filter0_f_1_1553)">
<path d="M851.427 1500.9C1222.8 1500.9 1523.85 1204.99 1523.85 839.952C1523.85 474.918 1222.8 179 851.427 179C480.056 179 179 474.918 179 839.952C179 1204.99 480.056 1500.9 851.427 1500.9Z" fill="#944EFA"/>
<mask id="mask0_1_1553" style="mask-type:alpha" maskUnits="userSpaceOnUse" x="179" y="179" width="1345" height="1322">
<path d="M851.427 1500.9C1222.8 1500.9 1523.85 1204.99 1523.85 839.952C1523.85 474.918 1222.8 179 851.427 179C480.056 179 179 474.918 179 839.952C179 1204.99 480.056 1500.9 851.427 1500.9Z" fill="#944EFA"/>
</mask>
<g mask="url(#mask0_1_1553)">
<g filter="url(#filter1_f_1_1553)">
<path d="M911.628 1261.38C824.766 1310.4 574.164 1131.6 484.579 1052C465.229 1297.14 484.579 1184.61 721.085 1565.01C957.59 1945.41 1847.17 1093.73 1860.61 1052C1874.04 1010.26 1696.13 6.41399 1315.03 -261.453C933.939 -529.321 1183.08 70.5017 1356.69 525.929C1530.3 981.357 1020.21 1200.09 911.628 1261.38Z" fill="#976CE5"/>
</g>
<g filter="url(#filter2_f_1_1553)">
<path d="M306.914 1127.2C309.473 1130.23 312.172 1133.39 315.002 1136.63C525.038 1353.35 1211.02 13.115 1176.75 575.272C1114.38 1598.4 825.584 1330.53 725.62 1401.23C647.986 1456.14 409.05 1244.36 315.002 1136.63C312.222 1133.76 309.524 1130.62 306.914 1127.2Z" fill="#2735FD"/>
</g>
<g filter="url(#filter3_f_1_1553)">
<path d="M494.642 1382.13C269.592 1616.16 219.116 1424.14 222.01 1298.88L-473.331 1170.77C-589.237 1038.36 -602.852 642.139 269.927 116.56C1360.91 -540.413 1954.81 1082.12 1586.57 764.246C1218.31 446.378 775.957 1089.58 494.642 1382.13Z" fill="#2BBFDA"/>
</g>
</g>
</g>
<path fill-rule="evenodd" clip-rule="evenodd" d="M170.119 212.42H169V213.52V1642.1H170.119V1588.21H224.942V1642.1H226.061V1588.21H280.885V1642.1H282.004V1588.21H336.827V1642.1H337.946V1588.21H392.769V1642.1H393.888V1588.21H448.712V1642.1H449.831V1588.21H504.654V1642.1H505.773V1588.21H560.598V1642.1H561.717V1588.21H616.54V1642.1H617.659V1588.21H672.482V1642.1H673.601V1588.21H728.425V1642.1H729.544V1588.21H784.367V1642.1H785.486V1588.21H840.31V1642.1H841.428V1588.21H896.252V1642.1H897.371V1588.21H952.194V1642.1H953.313V1588.21H1008.14V1642.1H1009.26V1588.21H1064.08V1642.1H1065.2V1588.21H1120.02V1642.1H1121.14V1588.21H1175.96V1642.1H1177.08V1588.21H1231.91V1642.1H1233.02V1588.21H1287.85V1642.1H1288.97V1588.21H1343.79V1642.1H1344.91V1588.21H1399.73V1642.1H1400.85V1588.21H1455.67V1642.1H1456.79V1588.21H1511.62V1642.1H1512.74V1588.21H1567.56V1642.1H1568.68V1588.21H1623.5V1587.11H1568.68V1533.22H1623.5V1532.12H1568.68V1478.24H1623.5V1477.14H1568.68V1423.25H1623.5V1422.15H1568.68V1368.26H1623.5V1367.16H1568.68V1313.27H1623.5V1312.17H1568.68V1258.29H1623.5V1257.19H1568.68V1203.3H1623.5V1202.2H1568.68V1148.31H1623.5V1147.21H1568.68V1093.32H1623.5V1092.22H1568.68V1038.33H1623.5V1037.24H1568.68V983.347H1623.5V982.247H1568.68V928.36H1623.5V927.26H1568.68V873.373H1623.5V872.273H1568.68V818.385H1623.5V817.285H1568.68V763.398H1623.5V762.298H1568.68V708.41H1623.5V707.31H1568.68V653.422H1623.5V652.322H1568.68V598.435H1623.5V597.335H1568.68V543.447H1623.5V542.347H1568.68V488.458H1623.5V487.358H1568.68V433.47H1623.5V432.371H1568.68V378.483H1623.5V377.383H1568.68V323.495H1623.5V322.395H1568.68V268.507H1623.5V267.408H1568.68V213.52H1623.5V212.42H1568.68H1567.56H1512.74H1511.62H1456.79H1455.67H1400.85H1399.73H1344.91H1343.79H1288.97H1287.85H1233.02H1231.91H1177.08H1175.96H1121.14H1120.02H1065.2H1064.08H1009.26H1008.14H953.313H952.194H897.371H896.252H841.428H840.31H785.486H784.367H729.544H728.425H673.601H672.482H617.659H616.54H561.717H560.598H505.774H504.655H449.831H448.712H393.888H392.769H337.946H336.827H282.004H280.885H226.061H224.942H170.119ZM170.119 213.52V267.408H224.942V213.52H170.119ZM226.061 213.52V267.408H280.885V213.52H226.061ZM282.004 213.52V267.408H336.827V213.52H282.004ZM337.946 213.52V267.408H392.769V213.52H337.946ZM393.888 213.52V267.408H448.712V213.52H393.888ZM449.831 213.52V267.408H504.655V213.52H449.831ZM505.774 213.52V267.408H560.598V213.52H505.774ZM561.717 213.52V267.408H616.54V213.52H561.717ZM617.659 213.52V267.408H672.482V213.52H617.659ZM673.601 213.52V267.408H728.425V213.52H673.601ZM729.544 213.52V267.408H784.367V213.52H729.544ZM785.486 213.52V267.408H840.31V213.52H785.486ZM841.428 213.52V267.408H896.252V213.52H841.428ZM897.371 213.52V267.408H952.194V213.52H897.371ZM953.313 213.52V267.408H1008.14V213.52H953.313ZM1009.26 213.52V267.408H1064.08V213.52H1009.26ZM1065.2 213.52V267.408H1120.02V213.52H1065.2ZM1121.14 213.52V267.408H1175.96V213.52H1121.14ZM1177.08 213.52V267.408H1231.91V213.52H1177.08ZM1233.02 213.52V267.408H1287.85V213.52H1233.02ZM1288.97 213.52V267.408H1343.79V213.52H1288.97ZM1344.91 213.52V267.408H1399.73V213.52H1344.91ZM1400.85 213.52V267.408H1455.67V213.52H1400.85ZM1456.79 213.52V267.408H1511.62V213.52H1456.79ZM1512.74 213.52V267.408H1567.56V213.52H1512.74ZM1567.56 268.507H1512.74V322.395H1567.56V268.507ZM1567.56 323.495H1512.74V377.383H1567.56V323.495ZM1567.56 378.483H1512.74V432.371H1567.56V378.483ZM1567.56 433.47H1512.74V487.358H1567.56V433.47ZM1567.56 488.458H1512.74V542.347H1567.56V488.458ZM1567.56 543.447H1512.74V597.335H1567.56V543.447ZM1567.56 598.435H1512.74V652.322H1567.56V598.435ZM1567.56 653.422H1512.74V707.31H1567.56V653.422ZM1567.56 708.41H1512.74V762.298H1567.56V708.41ZM1567.56 763.398H1512.74V817.285H1567.56V763.398ZM1567.56 818.385H1512.74V872.273H1567.56V818.385ZM1567.56 873.373H1512.74V927.26H1567.56V873.373ZM1567.56 928.36H1512.74V982.247H1567.56V928.36ZM1567.56 983.347H1512.74V1037.24H1567.56V983.347ZM1567.56 1038.33H1512.74V1092.22H1567.56V1038.33ZM1567.56 1093.32H1512.74V1147.21H1567.56V1093.32ZM1567.56 1148.31H1512.74V1202.2H1567.56V1148.31ZM1567.56 1203.3H1512.74V1257.19H1567.56V1203.3ZM1567.56 1258.29H1512.74V1312.17H1567.56V1258.29ZM1567.56 1313.27H1512.74V1367.16H1567.56V1313.27ZM1567.56 1368.26H1512.74V1422.15H1567.56V1368.26ZM1567.56 1423.25H1512.74V1477.14H1567.56V1423.25ZM1567.56 1478.24H1512.74V1532.12H1567.56V1478.24ZM1567.56 1533.22H1512.74V1587.11H1567.56V1533.22ZM1511.62 1587.11V1533.22H1456.79V1587.11H1511.62ZM1455.67 1587.11V1533.22H1400.85V1587.11H1455.67ZM1399.73 1587.11V1533.22H1344.91V1587.11H1399.73ZM1343.79 1587.11V1533.22H1288.97V1587.11H1343.79ZM1287.85 1587.11V1533.22H1233.02V1587.11H1287.85ZM1231.91 1587.11V1533.22H1177.08V1587.11H1231.91ZM1175.96 1587.11V1533.22H1121.14V1587.11H1175.96ZM1120.02 1587.11V1533.22H1065.2V1587.11H1120.02ZM1064.08 1587.11V1533.22H1009.26V1587.11H1064.08ZM1008.14 1587.11V1533.22H953.313V1587.11H1008.14ZM952.194 1587.11V1533.22H897.371V1587.11H952.194ZM896.252 1587.11V1533.22H841.428V1587.11H896.252ZM840.31 1587.11V1533.22H785.486V1587.11H840.31ZM784.367 1587.11V1533.22H729.544V1587.11H784.367ZM728.425 1587.11V1533.22H673.601V1587.11H728.425ZM672.482 1587.11V1533.22H617.659V1587.11H672.482ZM616.54 1587.11V1533.22H561.717V1587.11H616.54ZM560.598 1587.11V1533.22H505.773V1587.11H560.598ZM504.654 1587.11V1533.22H449.831V1587.11H504.654ZM448.712 1587.11V1533.22H393.888V1587.11H448.712ZM392.769 1587.11V1533.22H337.946V1587.11H392.769ZM336.827 1587.11V1533.22H282.004V1587.11H336.827ZM280.885 1587.11V1533.22H226.061V1587.11H280.885ZM224.942 1587.11V1533.22H170.119V1587.11H224.942ZM170.119 1532.12H224.942V1478.24H170.119V1532.12ZM170.119 1477.14H224.942V1423.25H170.119V1477.14ZM170.119 1422.15H224.942V1368.26H170.119V1422.15ZM170.119 1367.16H224.942V1313.27H170.119V1367.16ZM170.119 1312.17H224.942V1258.29H170.119V1312.17ZM170.119 1257.19H224.942V1203.3H170.119V1257.19ZM170.119 1202.2H224.942V1148.31H170.119V1202.2ZM170.119 1147.21H224.942V1093.32H170.119V1147.21ZM170.119 1092.22H224.942V1038.33H170.119V1092.22ZM170.119 1037.24H224.942V983.347H170.119V1037.24ZM170.119 982.247H224.942V928.36H170.119V982.247ZM170.119 927.26H224.942V873.373H170.119L170.119 927.26ZM170.119 872.273H224.942V818.385H170.119V872.273ZM170.119 817.285H224.942V763.398H170.119V817.285ZM170.119 762.298H224.942V708.41H170.119V762.298ZM170.119 707.31H224.942V653.422H170.119V707.31ZM170.119 652.322H224.942V598.435H170.119V652.322ZM170.119 597.335H224.942V543.446H170.119V597.335ZM170.119 542.346H224.942V488.458H170.119V542.346ZM170.119 487.358H224.942V433.47H170.119V487.358ZM170.119 432.371H224.942V378.483H170.119V432.371ZM170.119 377.383H224.942V323.495H170.119V377.383ZM170.119 322.395H224.942V268.507H170.119V322.395ZM226.061 268.507V322.395H280.885V268.507H226.061ZM282.004 268.507V322.395H336.827V268.507H282.004ZM337.946 268.507V322.395H392.769V268.507H337.946ZM393.888 268.507V322.395H448.712V268.507H393.888ZM449.831 268.507V322.395H504.655V268.507H449.831ZM505.774 268.507V322.395H560.598V268.507H505.774ZM561.717 268.507V322.395H616.54V268.507H561.717ZM617.659 268.507V322.395H672.482V268.507H617.659ZM673.601 268.507V322.395H728.425V268.507H673.601ZM729.544 268.507V322.395H784.367V268.507H729.544ZM785.486 268.507V322.395H840.31V268.507H785.486ZM841.428 268.507V322.395H896.252V268.507H841.428ZM897.371 268.507V322.395H952.194V268.507H897.371ZM953.313 268.507V322.395H1008.14V268.507H953.313ZM1009.26 268.507V322.395H1064.08V268.507H1009.26ZM1065.2 268.507V322.395H1120.02V268.507H1065.2ZM1121.14 268.507V322.395H1175.96V268.507H1121.14ZM1177.08 268.507V322.395H1231.91V268.507H1177.08ZM1233.02 268.507V322.395H1287.85V268.507H1233.02ZM1288.97 268.507V322.395H1343.79V268.507H1288.97ZM1344.91 268.507V322.395H1399.73V268.507H1344.91ZM1400.85 268.507V322.395H1455.67V268.507H1400.85ZM1456.79 268.507V322.395H1511.62V268.507H1456.79ZM1511.62 323.495H1456.79V377.383H1511.62V323.495ZM1511.62 378.483H1456.79V432.371H1511.62V378.483ZM1511.62 433.47H1456.79V487.358H1511.62V433.47ZM1511.62 488.458H1456.79V542.347H1511.62V488.458ZM1511.62 543.447H1456.79V597.335H1511.62V543.447ZM1511.62 598.435H1456.79V652.322H1511.62V598.435ZM1511.62 653.422H1456.79V707.31H1511.62V653.422ZM1511.62 708.41H1456.79V762.298H1511.62V708.41ZM1511.62 763.398H1456.79V817.285H1511.62V763.398ZM1511.62 818.385H1456.79V872.273H1511.62V818.385ZM1511.62 873.373H1456.79V927.26H1511.62V873.373ZM1511.62 928.36H1456.79V982.247H1511.62V928.36ZM1511.62 983.347H1456.79V1037.24H1511.62V983.347ZM1511.62 1038.33H1456.79V1092.22H1511.62V1038.33ZM1511.62 1093.32H1456.79V1147.21H1511.62V1093.32ZM1511.62 1148.31H1456.79V1202.2H1511.62V1148.31ZM1511.62 1203.3H1456.79V1257.19H1511.62V1203.3ZM1511.62 1258.29H1456.79V1312.17H1511.62V1258.29ZM1511.62 1313.27H1456.79V1367.16H1511.62V1313.27ZM1511.62 1368.26H1456.79V1422.15H1511.62V1368.26ZM1511.62 1423.25H1456.79V1477.14H1511.62V1423.25ZM1511.62 1478.24H1456.79V1532.12H1511.62V1478.24ZM1455.67 1532.12V1478.24H1400.85V1532.12H1455.67ZM1399.73 1532.12V1478.24H1344.91V1532.12H1399.73ZM1343.79 1532.12V1478.24H1288.97V1532.12H1343.79ZM1287.85 1532.12V1478.24H1233.02V1532.12H1287.85ZM1231.91 1532.12V1478.24H1177.08V1532.12H1231.91ZM1175.96 1532.12V1478.24H1121.14V1532.12H1175.96ZM1120.02 1532.12V1478.24H1065.2V1532.12H1120.02ZM1064.08 1532.12V1478.24H1009.26V1532.12H1064.08ZM1008.14 1532.12V1478.24H953.313V1532.12H1008.14ZM952.194 1532.12V1478.24H897.371V1532.12H952.194ZM896.252 1532.12V1478.24H841.428V1532.12H896.252ZM840.31 1532.12V1478.24H785.486V1532.12H840.31ZM784.367 1532.12V1478.24H729.544V1532.12H784.367ZM728.425 1532.12V1478.24H673.601V1532.12H728.425ZM672.482 1532.12V1478.24H617.659V1532.12H672.482ZM616.54 1532.12V1478.24H561.717V1532.12H616.54ZM560.598 1532.12V1478.24H505.773V1532.12H560.598ZM504.654 1532.12V1478.24H449.831V1532.12H504.654ZM448.712 1532.12V1478.24H393.888V1532.12H448.712ZM392.769 1532.12V1478.24H337.946V1532.12H392.769ZM336.827 1532.12V1478.24H282.004V1532.12H336.827ZM280.885 1532.12V1478.24H226.061V1532.12H280.885ZM226.061 1477.14H280.885V1423.25H226.061V1477.14ZM226.061 1422.15H280.885V1368.26H226.061V1422.15ZM226.061 1367.16H280.885V1313.27H226.061V1367.16ZM226.061 1312.17H280.885V1258.29H226.061V1312.17ZM226.061 1257.19H280.885V1203.3H226.061V1257.19ZM226.061 1202.2H280.885V1148.31H226.061V1202.2ZM226.061 1147.21H280.885V1093.32H226.061V1147.21ZM226.061 1092.22H280.885V1038.33H226.061V1092.22ZM226.061 1037.24H280.885V983.347H226.061V1037.24ZM226.061 982.247H280.885V928.36H226.061V982.247ZM226.061 927.26H280.885V873.373H226.061V927.26ZM226.061 872.273H280.885V818.385H226.061V872.273ZM226.061 817.285H280.885V763.398H226.061V817.285ZM226.061 762.298H280.885V708.41H226.061V762.298ZM226.061 707.31H280.885V653.422H226.061V707.31ZM226.061 652.322H280.885V598.435H226.061V652.322ZM226.061 597.335H280.885V543.446H226.061V597.335ZM226.061 542.346H280.885V488.458H226.061V542.346ZM226.061 487.358H280.885V433.47H226.061V487.358ZM226.061 432.371H280.885V378.483H226.061V432.371ZM226.061 377.383H280.885V323.495H226.061V377.383ZM282.004 323.495V377.383H336.827V323.495H282.004ZM337.946 323.495V377.383H392.769V323.495H337.946ZM393.888 323.495V377.383H448.712V323.495H393.888ZM449.831 323.495V377.383H504.655V323.495H449.831ZM505.774 323.495V377.383H560.598V323.495H505.774ZM561.717 323.495V377.383H616.54V323.495H561.717ZM617.659 323.495V377.383H672.482V323.495H617.659ZM673.601 323.495V377.383H728.425V323.495H673.601ZM729.544 323.495V377.383H784.367V323.495H729.544ZM785.486 323.495V377.383H840.31V323.495H785.486ZM841.428 323.495V377.383H896.252V323.495H841.428ZM897.371 323.495V377.383H952.194V323.495H897.371ZM953.313 323.495V377.383H1008.14V323.495H953.313ZM1009.26 323.495V377.383H1064.08V323.495H1009.26ZM1065.2 323.495V377.383H1120.02V323.495H1065.2ZM1121.14 323.495V377.383H1175.96V323.495H1121.14ZM1177.08 323.495V377.383H1231.91V323.495H1177.08ZM1233.02 323.495V377.383H1287.85V323.495H1233.02ZM1288.97 323.495V377.383H1343.79V323.495H1288.97ZM1344.91 323.495V377.383H1399.73V323.495H1344.91ZM1400.85 323.495V377.383H1455.67V323.495H1400.85ZM1455.67 378.483H1400.85V432.371H1455.67V378.483ZM1455.67 433.47H1400.85V487.358H1455.67V433.47ZM1455.67 488.458H1400.85V542.347H1455.67V488.458ZM1455.67 543.447H1400.85V597.335H1455.67V543.447ZM1455.67 598.435H1400.85V652.322H1455.67V598.435ZM1455.67 653.422H1400.85V707.31H1455.67V653.422ZM1455.67 708.41H1400.85V762.298H1455.67V708.41ZM1455.67 763.398H1400.85V817.285H1455.67V763.398ZM1455.67 818.385H1400.85V872.273H1455.67V818.385ZM1455.67 873.373H1400.85V927.26H1455.67V873.373ZM1455.67 928.36H1400.85V982.247H1455.67V928.36ZM1455.67 983.347H1400.85V1037.24H1455.67V983.347ZM1455.67 1038.33H1400.85V1092.22H1455.67V1038.33ZM1455.67 1093.32H1400.85V1147.21H1455.67V1093.32ZM1455.67 1148.31H1400.85V1202.2H1455.67V1148.31ZM1455.67 1203.3H1400.85V1257.19H1455.67V1203.3ZM1455.67 1258.29H1400.85V1312.17H1455.67V1258.29ZM1455.67 1313.27H1400.85V1367.16H1455.67V1313.27ZM1455.67 1368.26H1400.85V1422.15H1455.67V1368.26ZM1455.67 1423.25H1400.85V1477.14H1455.67V1423.25ZM1399.73 1477.14V1423.25H1344.91V1477.14H1399.73ZM1343.79 1477.14V1423.25H1288.97V1477.14H1343.79ZM1287.85 1477.14V1423.25H1233.02V1477.14H1287.85ZM1231.91 1477.14V1423.25H1177.08V1477.14H1231.91ZM1175.96 1477.14V1423.25H1121.14V1477.14H1175.96ZM1120.02 1477.14V1423.25H1065.2V1477.14H1120.02ZM1064.08 1477.14V1423.25H1009.26V1477.14H1064.08ZM1008.14 1477.14V1423.25H953.313V1477.14H1008.14ZM952.194 1477.14V1423.25H897.371V1477.14H952.194ZM896.252 1477.14V1423.25H841.428V1477.14H896.252ZM840.31 1477.14V1423.25H785.486V1477.14H840.31ZM784.367 1477.14V1423.25H729.544V1477.14H784.367ZM728.425 1477.14V1423.25H673.601V1477.14H728.425ZM672.482 1477.14V1423.25H617.659V1477.14H672.482ZM616.54 1477.14V1423.25H561.717V1477.14H616.54ZM560.598 1477.14V1423.25H505.773V1477.14H560.598ZM504.654 1477.14V1423.25H449.831V1477.14H504.654ZM448.712 1477.14V1423.25H393.888V1477.14H448.712ZM392.769 1477.14V1423.25H337.946V1477.14H392.769ZM336.827 1477.14V1423.25H282.004V1477.14H336.827ZM282.004 1422.15H336.827V1368.26H282.004V1422.15ZM282.004 1367.16H336.827V1313.27H282.004V1367.16ZM282.004 1312.17H336.827V1258.29H282.004V1312.17ZM282.004 1257.19H336.827V1203.3H282.004V1257.19ZM282.004 1202.2H336.827V1148.31H282.004V1202.2ZM282.004 1147.21H336.827V1093.32H282.004V1147.21ZM282.004 1092.22H336.827V1038.33H282.004V1092.22ZM282.004 1037.24H336.827V983.347H282.004V1037.24ZM282.004 982.247H336.827V928.36H282.004V982.247ZM282.004 927.26H336.827V873.373H282.004V927.26ZM282.004 872.273H336.827V818.385H282.004V872.273ZM282.004 817.285H336.827V763.398H282.004V817.285ZM282.004 762.298H336.827V708.41H282.004V762.298ZM282.004 707.31H336.827V653.422H282.004V707.31ZM282.004 652.322H336.827V598.435H282.004V652.322ZM282.004 597.335H336.827V543.446H282.004V597.335ZM282.004 542.346H336.827V488.458H282.004V542.346ZM282.004 487.358H336.827V433.47H282.004V487.358ZM282.004 432.371H336.827V378.483H282.004V432.371ZM337.946 378.483V432.371H392.769V378.483H337.946ZM393.888 378.483V432.371H448.712V378.483H393.888ZM449.831 378.483V432.371H504.655V378.483H449.831ZM505.774 378.483V432.371H560.598V378.483H505.774ZM561.717 378.483V432.371H616.54V378.483H561.717ZM617.659 378.483V432.371H672.482V378.483H617.659ZM673.601 378.483V432.371H728.425V378.483H673.601ZM729.544 378.483V432.371H784.367V378.483H729.544ZM785.486 378.483V432.371H840.31V378.483H785.486ZM841.428 378.483V432.371H896.252V378.483H841.428ZM897.371 378.483V432.371H952.194V378.483H897.371ZM953.313 378.483V432.371H1008.14V378.483H953.313ZM1009.26 378.483V432.371H1064.08V378.483H1009.26ZM1065.2 378.483V432.371H1120.02V378.483H1065.2ZM1121.14 378.483V432.371H1175.96V378.483H1121.14ZM1177.08 378.483V432.371H1231.91V378.483H1177.08ZM1233.02 378.483V432.371H1287.85V378.483H1233.02ZM1288.97 378.483V432.371H1343.79V378.483H1288.97ZM1344.91 378.483V432.371H1399.73V378.483H1344.91ZM1399.73 433.47H1344.91V487.358H1399.73V433.47ZM1399.73 488.458H1344.91V542.347H1399.73V488.458ZM1399.73 543.447H1344.91V597.335H1399.73V543.447ZM1399.73 598.435H1344.91V652.322H1399.73V598.435ZM1399.73 653.422H1344.91V707.31H1399.73V653.422ZM1399.73 708.41H1344.91V762.298H1399.73V708.41ZM1399.73 763.398H1344.91V817.285H1399.73V763.398ZM1399.73 818.385H1344.91V872.273H1399.73V818.385ZM1399.73 873.373H1344.91V927.26H1399.73V873.373ZM1399.73 928.36H1344.91V982.247H1399.73V928.36ZM1399.73 983.347H1344.91V1037.24H1399.73V983.347ZM1399.73 1038.33H1344.91V1092.22H1399.73V1038.33ZM1399.73 1093.32H1344.91V1147.21H1399.73V1093.32ZM1399.73 1148.31H1344.91V1202.2H1399.73V1148.31ZM1399.73 1203.3H1344.91V1257.19H1399.73V1203.3ZM1399.73 1258.29H1344.91V1312.17H1399.73V1258.29ZM1399.73 1313.27H1344.91V1367.16H1399.73V1313.27ZM1399.73 1368.26H1344.91V1422.15H1399.73V1368.26ZM1343.79 1422.15V1368.26H1288.97V1422.15H1343.79ZM1287.85 1422.15V1368.26H1233.02V1422.15H1287.85ZM1231.91 1422.15V1368.26H1177.08V1422.15H1231.91ZM1175.96 1422.15V1368.26H1121.14V1422.15H1175.96ZM1120.02 1422.15V1368.26H1065.2V1422.15H1120.02ZM1064.08 1422.15V1368.26H1009.26V1422.15H1064.08ZM1008.14 1422.15V1368.26H953.313V1422.15H1008.14ZM952.194 1422.15V1368.26H897.371V1422.15H952.194ZM896.252 1422.15V1368.26H841.428V1422.15H896.252ZM840.31 1422.15V1368.26H785.486V1422.15H840.31ZM784.367 1422.15V1368.26H729.544V1422.15H784.367ZM728.425 1422.15V1368.26H673.601V1422.15H728.425ZM672.482 1422.15V1368.26H617.659V1422.15H672.482ZM616.54 1422.15V1368.26H561.717V1422.15H616.54ZM560.598 1422.15V1368.26H505.773V1422.15H560.598ZM504.654 1422.15V1368.26H449.831V1422.15H504.654ZM448.712 1422.15V1368.26H393.888V1422.15H448.712ZM392.769 1422.15V1368.26H337.946V1422.15H392.769ZM337.946 1367.16H392.769V1313.27H337.946V1367.16ZM337.946 1312.17H392.769V1258.29H337.946V1312.17ZM337.946 1257.19H392.769V1203.3H337.946V1257.19ZM337.946 1202.2H392.769V1148.31H337.946V1202.2ZM337.946 1147.21H392.769V1093.32H337.946V1147.21ZM337.946 1092.22H392.769V1038.33H337.946V1092.22ZM337.946 1037.24H392.769V983.347H337.946V1037.24ZM337.946 982.247H392.769V928.36H337.946V982.247ZM337.946 927.26H392.769V873.373H337.946V927.26ZM337.946 872.273H392.769V818.385H337.946V872.273ZM337.946 817.285H392.769V763.398H337.946V817.285ZM337.946 762.298H392.769V708.41H337.946V762.298ZM337.946 707.31H392.769V653.422H337.946V707.31ZM337.946 652.322H392.769V598.435H337.946V652.322ZM337.946 597.335H392.769V543.446H337.946V597.335ZM337.946 542.346H392.769V488.458H337.946V542.346ZM337.946 487.358H392.769V433.47H337.946V487.358ZM393.888 433.47V487.358H448.712V433.47H393.888ZM449.831 433.47V487.358H504.655V433.47H449.831ZM505.774 433.47V487.358H560.598V433.47H505.774ZM561.717 433.47V487.358H616.54V433.47H561.717ZM617.659 433.47V487.358H672.482V433.47H617.659ZM673.601 433.47V487.358H728.425V433.47H673.601ZM729.544 433.47V487.358H784.367V433.47H729.544ZM785.486 433.47V487.358H840.31V433.47H785.486ZM841.428 433.47V487.358H896.252V433.47H841.428ZM897.371 433.47V487.358H952.194V433.47H897.371ZM953.313 433.47V487.358H1008.14V433.47H953.313ZM1009.26 433.47V487.358H1064.08V433.47H1009.26ZM1065.2 433.47V487.358H1120.02V433.47H1065.2ZM1121.14 433.47V487.358H1175.96V433.47H1121.14ZM1177.08 433.47V487.358H1231.91V433.47H1177.08ZM1233.02 433.47V487.358H1287.85V433.47H1233.02ZM1288.97 433.47V487.358H1343.79V433.47H1288.97ZM1343.79 488.458H1288.97V542.347H1343.79V488.458ZM1343.79 543.447H1288.97V597.335H1343.79V543.447ZM1343.79 598.435H1288.97V652.322H1343.79V598.435ZM1343.79 653.422H1288.97V707.31H1343.79V653.422ZM1343.79 708.41H1288.97V762.298H1343.79V708.41ZM1343.79 763.398H1288.97V817.285H1343.79V763.398ZM1343.79 818.385H1288.97V872.273H1343.79V818.385ZM1343.79 873.373H1288.97V927.26H1343.79V873.373ZM1343.79 928.36H1288.97V982.247H1343.79V928.36ZM1343.79 983.347H1288.97V1037.24H1343.79V983.347ZM1343.79 1038.33H1288.97V1092.22H1343.79V1038.33ZM1343.79 1093.32H1288.97V1147.21H1343.79V1093.32ZM1343.79 1148.31H1288.97V1202.2H1343.79V1148.31ZM1343.79 1203.3H1288.97V1257.19H1343.79V1203.3ZM1343.79 1258.29H1288.97V1312.17H1343.79V1258.29ZM1343.79 1313.27H1288.97V1367.16H1343.79V1313.27ZM1287.85 1367.16V1313.27H1233.02V1367.16H1287.85ZM1231.91 1367.16V1313.27H1177.08V1367.16H1231.91ZM1175.96 1367.16V1313.27H1121.14V1367.16H1175.96ZM1120.02 1367.16V1313.27H1065.2V1367.16H1120.02ZM1064.08 1367.16V1313.27H1009.26V1367.16H1064.08ZM1008.14 1367.16V1313.27H953.313V1367.16H1008.14ZM952.194 1367.16V1313.27H897.371V1367.16H952.194ZM896.252 1367.16V1313.27H841.428V1367.16H896.252ZM840.31 1367.16V1313.27H785.486V1367.16H840.31ZM784.367 1367.16V1313.27H729.544V1367.16H784.367ZM728.425 1367.16V1313.27H673.601V1367.16H728.425ZM672.482 1367.16V1313.27H617.659V1367.16H672.482ZM616.54 1367.16V1313.27H561.717V1367.16H616.54ZM560.598 1367.16V1313.27H505.773V1367.16H560.598ZM504.654 1367.16V1313.27H449.831V1367.16H504.654ZM448.712 1367.16V1313.27H393.888V1367.16H448.712ZM393.888 1312.17H448.712V1258.29H393.888V1312.17ZM393.888 1257.19H448.712V1203.3H393.888V1257.19ZM393.888 1202.2H448.712V1148.31H393.888V1202.2ZM393.888 1147.21H448.712V1093.32H393.888V1147.21ZM393.888 1092.22H448.712V1038.33H393.888V1092.22ZM393.888 1037.24H448.712V983.347H393.888V1037.24ZM393.888 982.247H448.712V928.36H393.888V982.247ZM393.888 927.26H448.712V873.373H393.888V927.26ZM393.888 872.273H448.712V818.385H393.888V872.273ZM393.888 817.285H448.712V763.398H393.888V817.285ZM393.888 762.298H448.712V708.41H393.888V762.298ZM393.888 707.31H448.712V653.422H393.888V707.31ZM393.888 652.322H448.712V598.435H393.888V652.322ZM393.888 597.335H448.712V543.446H393.888V597.335ZM393.888 542.346H448.712V488.458H393.888V542.346ZM449.831 488.458V542.346H504.655V488.458H449.831ZM505.774 488.458V542.346H560.598V488.458H505.774ZM561.717 488.458V542.346H616.54V488.458H561.717ZM617.659 488.458V542.346H672.482V488.458H617.659ZM673.601 488.458V542.346H728.425V488.458H673.601ZM729.544 488.458V542.346H784.367V488.458H729.544ZM785.486 488.458V542.346H840.31V488.458H785.486ZM841.428 488.458V542.346L896.252 542.347V488.458H841.428ZM897.371 488.458V542.347H952.194V488.458H897.371ZM953.313 488.458V542.347H1008.14V488.458H953.313ZM1009.26 488.458V542.347H1064.08V488.458H1009.26ZM1065.2 488.458V542.347H1120.02V488.458H1065.2ZM1121.14 488.458V542.347H1175.96V488.458H1121.14ZM1177.08 488.458V542.347H1231.91V488.458H1177.08ZM1233.02 488.458V542.347H1287.85V488.458H1233.02ZM1287.85 543.447H1233.02V597.335H1287.85V543.447ZM1287.85 598.435H1233.02V652.322H1287.85V598.435ZM1287.85 653.422H1233.02V707.31H1287.85V653.422ZM1287.85 708.41H1233.02V762.298H1287.85V708.41ZM1287.85 763.398H1233.02V817.285H1287.85V763.398ZM1287.85 818.385H1233.02V872.273H1287.85V818.385ZM1287.85 873.373H1233.02V927.26H1287.85V873.373ZM1287.85 928.36H1233.02V982.247H1287.85V928.36ZM1287.85 983.347H1233.02V1037.24H1287.85V983.347ZM1287.85 1038.33H1233.02V1092.22H1287.85V1038.33ZM1287.85 1093.32H1233.02V1147.21H1287.85V1093.32ZM1287.85 1148.31H1233.02V1202.2H1287.85V1148.31ZM1287.85 1203.3H1233.02V1257.19H1287.85V1203.3ZM1287.85 1258.29H1233.02V1312.17H1287.85V1258.29ZM1231.91 1312.17V1258.29H1177.08V1312.17H1231.91ZM1175.96 1312.17V1258.29H1121.14V1312.17H1175.96ZM1120.02 1312.17V1258.29H1065.2V1312.17H1120.02ZM1064.08 1312.17V1258.29H1009.26V1312.17H1064.08ZM1008.14 1312.17V1258.29H953.313V1312.17H1008.14ZM952.194 1312.17V1258.29H897.371V1312.17H952.194ZM896.252 1312.17V1258.29H841.428V1312.17H896.252ZM840.31 1312.17V1258.29H785.486V1312.17H840.31ZM784.367 1312.17V1258.29H729.544V1312.17H784.367ZM728.425 1312.17V1258.29H673.601V1312.17H728.425ZM672.482 1312.17V1258.29H617.659V1312.17H672.482ZM616.54 1312.17V1258.29H561.717V1312.17H616.54ZM560.598 1312.17V1258.29H505.773V1312.17H560.598ZM504.654 1312.17V1258.29H449.831V1312.17H504.654ZM449.831 1257.19H504.654V1203.3H449.831V1257.19ZM449.831 1202.2H504.654V1148.31H449.831V1202.2ZM449.831 1147.21H504.654V1093.32H449.831V1147.21ZM449.831 1092.22H504.654V1038.33H449.831V1092.22ZM449.831 1037.24H504.654V983.347H449.831V1037.24ZM449.831 982.247H504.654V928.36H449.831V982.247ZM449.831 927.26H504.654L504.655 873.373H449.831V927.26ZM449.831 872.273H504.655V818.385H449.831V872.273ZM449.831 817.285H504.655V763.398H449.831V817.285ZM449.831 762.298H504.655V708.41H449.831V762.298ZM449.831 707.31H504.655V653.422H449.831V707.31ZM449.831 652.322H504.655V598.435H449.831V652.322ZM449.831 597.335H504.655V543.446H449.831V597.335ZM505.774 543.446V597.335H560.598V543.446H505.774ZM561.717 543.446V597.335H616.54V543.446H561.717ZM617.659 543.446V597.335H672.482V543.446H617.659ZM673.601 543.446V597.335H728.425V543.446H673.601ZM729.544 543.446V597.335H784.367V543.446H729.544ZM785.486 543.446V597.335H840.31V543.446H785.486ZM841.428 543.446V597.335H896.252V543.447L841.428 543.446ZM897.371 543.447V597.335H952.194V543.447H897.371ZM953.313 543.447V597.335H1008.14V543.447H953.313ZM1009.26 543.447V597.335H1064.08V543.447H1009.26ZM1065.2 543.447V597.335H1120.02V543.447H1065.2ZM1121.14 543.447V597.335H1175.96V543.447H1121.14ZM1177.08 543.447V597.335H1231.91V543.447H1177.08ZM1231.91 598.435H1177.08V652.322H1231.91V598.435ZM1231.91 653.422H1177.08V707.31H1231.91V653.422ZM1231.91 708.41H1177.08V762.298H1231.91V708.41ZM1231.91 763.398H1177.08V817.285H1231.91V763.398ZM1231.91 818.385H1177.08V872.273H1231.91V818.385ZM1231.91 873.373H1177.08L1177.08 927.26H1231.91V873.373ZM1231.91 928.36H1177.08V982.247H1231.91V928.36ZM1231.91 983.347H1177.08V1037.24H1231.91V983.347ZM1231.91 1038.33H1177.08V1092.22H1231.91V1038.33ZM1231.91 1093.32H1177.08V1147.21H1231.91V1093.32ZM1231.91 1148.31H1177.08V1202.2H1231.91V1148.31ZM1231.91 1203.3H1177.08V1257.19H1231.91V1203.3ZM1175.96 1257.19V1203.3H1121.14V1257.19H1175.96ZM1120.02 1257.19V1203.3H1065.2V1257.19H1120.02ZM1064.08 1257.19V1203.3H1009.26V1257.19H1064.08ZM1008.14 1257.19V1203.3H953.313V1257.19H1008.14ZM952.194 1257.19V1203.3H897.371V1257.19H952.194ZM896.252 1257.19V1203.3H841.428V1257.19H896.252ZM840.31 1257.19V1203.3H785.486V1257.19H840.31ZM784.367 1257.19V1203.3H729.544V1257.19H784.367ZM728.425 1257.19V1203.3H673.601V1257.19H728.425ZM672.482 1257.19V1203.3H617.659V1257.19H672.482ZM616.54 1257.19V1203.3H561.717V1257.19H616.54ZM560.598 1257.19V1203.3H505.773V1257.19H560.598ZM505.773 1202.2H560.598V1148.31H505.773V1202.2ZM505.773 1147.21H560.598V1093.32H505.773V1147.21ZM505.773 1092.22H560.598V1038.33H505.773V1092.22ZM505.773 1037.24H560.598V983.347H505.773V1037.24ZM505.773 982.247H560.598V928.36H505.773V982.247ZM505.773 927.26H560.598V873.373H505.774L505.773 927.26ZM505.774 872.273H560.598V818.385H505.774V872.273ZM505.774 817.285H560.598V763.398H505.774V817.285ZM505.774 762.298H560.598V708.41H505.774V762.298ZM505.774 707.31H560.598V653.422H505.774V707.31ZM505.774 652.322H560.598V598.435H505.774V652.322ZM561.717 598.435V652.322H616.54V598.435H561.717ZM617.659 598.435V652.322H672.482V598.435H617.659ZM673.601 598.435V652.322H728.425V598.435H673.601ZM729.544 598.435V652.322H784.367V598.435H729.544ZM785.486 598.435V652.322H840.31V598.435H785.486ZM841.428 598.435V652.322H896.252V598.435H841.428ZM897.371 598.435V652.322H952.194V598.435H897.371ZM953.313 598.435V652.322H1008.14V598.435H953.313ZM1009.26 598.435V652.322H1064.08V598.435H1009.26ZM1065.2 598.435V652.322H1120.02V598.435H1065.2ZM1121.14 598.435V652.322H1175.96V598.435H1121.14ZM1175.96 653.422H1121.14V707.31H1175.96V653.422ZM1175.96 708.41H1121.14V762.298H1175.96V708.41ZM1175.96 763.398H1121.14V817.285H1175.96V763.398ZM1175.96 818.385H1121.14V872.273H1175.96V818.385ZM1175.96 873.373H1121.14V927.26H1175.96L1175.96 873.373ZM1175.96 928.36H1121.14V982.247H1175.96V928.36ZM1175.96 983.347H1121.14V1037.24H1175.96V983.347ZM1175.96 1038.33H1121.14V1092.22H1175.96V1038.33ZM1175.96 1093.32H1121.14V1147.21H1175.96V1093.32ZM1175.96 1148.31H1121.14V1202.2H1175.96V1148.31ZM1120.02 1202.2V1148.31H1065.2V1202.2H1120.02ZM1064.08 1202.2V1148.31H1009.26V1202.2H1064.08ZM1008.14 1202.2V1148.31H953.313V1202.2H1008.14ZM952.194 1202.2V1148.31H897.371V1202.2H952.194ZM896.252 1202.2V1148.31H841.428V1202.2H896.252ZM840.31 1202.2V1148.31H785.486V1202.2H840.31ZM784.367 1202.2V1148.31H729.544V1202.2H784.367ZM728.425 1202.2V1148.31H673.601V1202.2H728.425ZM672.482 1202.2V1148.31H617.659V1202.2H672.482ZM616.54 1202.2V1148.31H561.717V1202.2H616.54ZM561.717 1147.21H616.54V1093.32H561.717V1147.21ZM561.717 1092.22H616.54V1038.33H561.717V1092.22ZM561.717 1037.24H616.54V983.347H561.717V1037.24ZM561.717 982.247H616.54V928.36H561.717V982.247ZM561.717 927.26H616.54V873.373H561.717V927.26ZM561.717 872.273H616.54V818.385H561.717V872.273ZM561.717 817.285H616.54V763.398H561.717V817.285ZM561.717 762.298H616.54V708.41H561.717V762.298ZM561.717 707.31H616.54V653.422H561.717V707.31ZM617.659 653.422V707.31H672.482V653.422H617.659ZM673.601 653.422V707.31H728.425V653.422H673.601ZM729.544 653.422V707.31H784.367V653.422H729.544ZM785.486 653.422V707.31H840.31V653.422H785.486ZM841.428 653.422V707.31H896.252V653.422H841.428ZM897.371 653.422V707.31H952.194V653.422H897.371ZM953.313 653.422V707.31H1008.14V653.422H953.313ZM1009.26 653.422V707.31H1064.08V653.422H1009.26ZM1065.2 653.422V707.31H1120.02V653.422H1065.2ZM1120.02 708.41H1065.2V762.298H1120.02V708.41ZM1120.02 763.398H1065.2V817.285H1120.02V763.398ZM1120.02 818.385H1065.2V872.273H1120.02V818.385ZM1120.02 873.373H1065.2V927.26H1120.02V873.373ZM1120.02 928.36H1065.2V982.247H1120.02V928.36ZM1120.02 983.347H1065.2V1037.24H1120.02V983.347ZM1120.02 1038.33H1065.2V1092.22H1120.02V1038.33ZM1120.02 1093.32H1065.2V1147.21H1120.02V1093.32ZM1064.08 1147.21V1093.32H1009.26V1147.21H1064.08ZM1008.14 1147.21V1093.32H953.313V1147.21H1008.14ZM952.194 1147.21V1093.32H897.371V1147.21H952.194ZM896.252 1147.21V1093.32H841.428V1147.21H896.252ZM840.31 1147.21V1093.32H785.486V1147.21H840.31ZM784.367 1147.21V1093.32H729.544V1147.21H784.367ZM728.425 1147.21V1093.32H673.601V1147.21H728.425ZM672.482 1147.21V1093.32H617.659V1147.21H672.482ZM617.659 1092.22H672.482V1038.33H617.659V1092.22ZM617.659 1037.24H672.482V983.347H617.659V1037.24ZM617.659 982.247H672.482V928.36H617.659V982.247ZM617.659 927.26H672.482V873.373H617.659V927.26ZM617.659 872.273H672.482V818.385H617.659V872.273ZM617.659 817.285H672.482V763.398H617.659V817.285ZM617.659 762.298H672.482V708.41H617.659V762.298ZM673.601 708.41V762.298H728.425V708.41H673.601ZM729.544 708.41V762.298H784.367V708.41H729.544ZM785.486 708.41V762.298H840.31V708.41H785.486ZM841.428 708.41V762.298H896.252V708.41H841.428ZM897.371 708.41V762.298H952.194V708.41H897.371ZM953.313 708.41V762.298H1008.14V708.41H953.313ZM1009.26 708.41V762.298H1064.08V708.41H1009.26ZM1064.08 763.398H1009.26V817.285H1064.08V763.398ZM1064.08 818.385H1009.26V872.273H1064.08V818.385ZM1064.08 873.373H1009.26V927.26H1064.08V873.373ZM1064.08 928.36H1009.26V982.247H1064.08V928.36ZM1064.08 983.347H1009.26V1037.24H1064.08V983.347ZM1064.08 1038.33H1009.26V1092.22H1064.08V1038.33ZM1008.14 1092.22V1038.33H953.313V1092.22H1008.14ZM952.194 1092.22V1038.33H897.371V1092.22H952.194ZM896.252 1092.22V1038.33H841.428V1092.22H896.252ZM840.31 1092.22V1038.33H785.486V1092.22H840.31ZM784.367 1092.22V1038.33H729.544V1092.22H784.367ZM728.425 1092.22V1038.33H673.601V1092.22H728.425ZM673.601 1037.24H728.425V983.347H673.601V1037.24ZM673.601 982.247H728.425V928.36H673.601V982.247ZM673.601 927.26H728.425V873.373H673.601V927.26ZM673.601 872.273H728.425V818.385H673.601V872.273ZM673.601 817.285H728.425V763.398H673.601V817.285ZM729.544 763.398V817.285H784.367V763.398H729.544ZM785.486 763.398V817.285H840.31V763.398H785.486ZM841.428 763.398V817.285H896.252V763.398H841.428ZM897.371 763.398V817.285H952.194V763.398H897.371ZM953.313 763.398V817.285H1008.14V763.398H953.313ZM1008.14 818.385H953.313V872.273H1008.14V818.385ZM1008.14 873.373H953.313V927.26H1008.14V873.373ZM1008.14 928.36H953.313V982.247H1008.14V928.36ZM1008.14 983.347H953.313V1037.24H1008.14V983.347ZM952.194 1037.24V983.347H897.371V1037.24H952.194ZM896.252 1037.24V983.347H841.428V1037.24H896.252ZM840.31 1037.24V983.347H785.486V1037.24H840.31ZM784.367 1037.24V983.347H729.544V1037.24H784.367ZM729.544 982.247H784.367V928.36H729.544V982.247ZM729.544 927.26H784.367V873.373H729.544V927.26ZM729.544 872.273H784.367V818.385H729.544V872.273ZM785.486 818.385V872.273H840.31V818.385H785.486ZM841.428 818.385V872.273H896.252V818.385H841.428ZM897.371 818.385V872.273H952.194V818.385H897.371ZM952.194 873.373H897.371V927.26H952.194V873.373ZM952.194 928.36H897.371V982.247H952.194V928.36ZM896.252 982.247V928.36H841.428V982.247H896.252ZM840.31 982.247V928.36H785.486V982.247H840.31ZM785.486 927.26H840.31V873.373H785.486V927.26ZM841.428 873.373V927.26H896.252V873.373H841.428ZM169 1642.1H1623.5V1643.2H169L169 1642.1ZM1623.5 1642.1V212.42H1624.62V1642.1H1623.5Z" fill="url(#paint0_radial_1_1553)" fill-opacity="0.5"/>
</g>
<defs>
<filter id="filter0_f_1_1553" x="0.752701" y="0.752701" width="1701.35" height="1678.4" filterUnits="userSpaceOnUse" color-interpolation-filters="sRGB">
<feFlood flood-opacity="0" result="BackgroundImageFix"/>
<feBlend mode="normal" in="SourceGraphic" in2="BackgroundImageFix" result="shape"/>
<feGaussianBlur stdDeviation="89.1236" result="effect1_foregroundBlur_1_1553"/>
</filter>
<filter id="filter1_f_1_1553" x="346.782" y="-459.963" width="1646.68" height="2254.7" filterUnits="userSpaceOnUse" color-interpolation-filters="sRGB">
<feFlood flood-opacity="0" result="BackgroundImageFix"/>
<feBlend mode="normal" in="SourceGraphic" in2="BackgroundImageFix" result="shape"/>
<feGaussianBlur stdDeviation="66.0744" result="effect1_foregroundBlur_1_1553"/>
</filter>
<filter id="filter2_f_1_1553" x="174.765" y="304.23" width="1135.38" height="1238.09" filterUnits="userSpaceOnUse" color-interpolation-filters="sRGB">
<feFlood flood-opacity="0" result="BackgroundImageFix"/>
<feBlend mode="normal" in="SourceGraphic" in2="BackgroundImageFix" result="shape"/>
<feGaussianBlur stdDeviation="66.0744" result="effect1_foregroundBlur_1_1553"/>
</filter>
<filter id="filter3_f_1_1553" x="-707.687" y="-219.85" width="2581.71" height="1890.56" filterUnits="userSpaceOnUse" color-interpolation-filters="sRGB">
<feFlood flood-opacity="0" result="BackgroundImageFix"/>
<feBlend mode="normal" in="SourceGraphic" in2="BackgroundImageFix" result="shape"/>
<feGaussianBlur stdDeviation="89.1236" result="effect1_foregroundBlur_1_1553"/>
</filter>
<radialGradient id="paint0_radial_1_1553" cx="0" cy="0" r="1" gradientUnits="userSpaceOnUse" gradientTransform="translate(896.811 927.81) rotate(90) scale(763.228 776.479)">
<stop stop-color="white" stop-opacity="0.69"/>
<stop offset="1" stop-color="#F0F3F9" stop-opacity="0"/>
</radialGradient>
</defs>
</svg>
