<svg width="1222" height="1207" viewBox="0 0 1222 1207" fill="none" xmlns="http://www.w3.org/2000/svg">
<g opacity="0.5">
<g opacity="0.3" filter="url(#filter0_f_1_1539)">
<path d="M610.943 1028.62C849.841 1028.62 1043.51 838.26 1043.51 603.439C1043.51 368.619 849.841 178.259 610.943 178.259C372.046 178.259 178.381 368.619 178.381 603.439C178.381 838.26 372.046 1028.62 610.943 1028.62Z" fill="#944EFA"/>
<mask id="mask0_1_1539" style="mask-type:alpha" maskUnits="userSpaceOnUse" x="178" y="178" width="866" height="851">
<path d="M610.943 1028.62C849.841 1028.62 1043.51 838.26 1043.51 603.439C1043.51 368.619 849.841 178.259 610.943 178.259C372.046 178.259 178.381 368.619 178.381 603.439C178.381 838.26 372.046 1028.62 610.943 1028.62Z" fill="#944EFA"/>
</mask>
<g mask="url(#mask0_1_1539)">
<g filter="url(#filter1_f_1_1539)">
<path d="M649.669 874.536C593.792 906.075 432.584 791.05 374.955 739.844C362.507 897.543 374.955 825.156 527.096 1069.86C679.236 1314.57 1251.49 766.692 1260.13 739.844C1268.78 712.995 1154.33 67.2369 909.174 -105.078C664.021 -277.394 824.288 108.464 935.97 401.434C1047.65 694.404 719.515 835.11 649.669 874.536Z" fill="#976CE5"/>
</g>
<g filter="url(#filter2_f_1_1539)">
<path d="M260.666 788.22C262.312 790.172 264.048 792.203 265.869 794.29C400.982 933.701 842.267 71.5476 820.221 433.175C780.096 1091.34 594.318 919.021 530.013 964.504C480.072 999.827 326.369 863.592 265.869 794.29C264.08 792.443 262.345 790.42 260.666 788.22Z" fill="#2735FD"/>
</g>
<g filter="url(#filter3_f_1_1539)">
<path d="M381.429 952.215C236.657 1102.76 204.187 979.24 206.049 898.661L-241.254 816.249C-315.815 731.072 -324.573 476.19 236.873 138.092C938.683 -284.529 1320.73 759.221 1083.85 554.739C846.952 350.259 562.395 764.025 381.429 952.215Z" fill="#2BBFDA"/>
</g>
</g>
</g>
<path fill-rule="evenodd" clip-rule="evenodd" d="M143.72 142.85H143V143.557V1062.54H143.72V1027.88H178.987V1062.54H179.707V1027.88H214.974V1062.54H215.694V1027.88H250.961V1062.54H251.68V1027.88H286.948V1062.54H287.667V1027.88H322.935V1062.54H323.654V1027.88H358.921V1062.54H359.641V1027.88H394.909V1062.54H395.629V1027.88H430.896V1062.54H431.616V1027.88H466.883V1062.54H467.603V1027.88H502.87V1062.54H503.59V1027.88H538.857V1062.54H539.576V1027.88H574.844V1062.54H575.563V1027.88H610.831V1062.54H611.55V1027.88H646.817V1062.54H647.537V1027.88H682.804V1062.54H683.524V1027.88H718.791V1062.54H719.511V1027.88H754.778V1062.54H755.498V1027.88H790.765V1062.54H791.485V1027.88H826.751V1062.54H827.471V1027.88H862.738V1062.54H863.458V1027.88H898.725V1062.54H899.445V1027.88H934.712V1062.54H935.432V1027.88H970.699V1062.54H971.419V1027.88H1006.69V1062.54H1007.41V1027.88H1042.67V1062.54H1043.39V1027.88H1078.66V1027.17H1043.39V992.503H1078.66V991.796H1043.39V957.131H1078.66V956.423H1043.39V921.758H1078.66V921.05H1043.39V886.385H1078.66V885.678H1043.39V851.012H1078.66V850.305H1043.39V815.64H1078.66V814.932H1043.39V780.267H1078.66V779.559H1043.39V744.894H1078.66V744.187H1043.39V709.521H1078.66V708.814H1043.39V674.149H1078.66V673.441H1043.39V638.776H1078.66V638.068H1043.39V603.403H1078.66V602.696H1043.39V568.031H1078.66V567.324H1043.39V532.658H1078.66V531.951H1043.39V497.285H1078.66V496.578H1043.39V461.913H1078.66V461.205H1043.39V426.54H1078.66V425.832H1043.39V391.167H1078.66V390.46H1043.39V355.794H1078.66V355.087H1043.39V320.421H1078.66V319.713H1043.39V285.048H1078.66V284.341H1043.39V249.675H1078.66V248.968H1043.39V214.303H1078.66V213.595H1043.39V178.93H1078.66V178.222H1043.39V143.557H1078.66V142.85H1043.39H1042.67H1007.41H1006.69H971.419H970.699H935.432H934.712H899.445H898.725H863.458H862.738H827.471H826.751H791.486H790.766H755.498H754.778H719.511H718.791H683.524H682.804H647.537H646.817H611.55H610.831H575.563H574.844H539.576H538.857H503.59H502.87H467.603H466.883H431.616H430.896H395.629H394.909H359.642H358.922H323.654H322.935H287.667H286.948H251.68H250.961H215.694H214.974H179.707H178.987H143.72ZM143.72 143.557V178.222H178.987V143.557H143.72ZM179.707 143.557V178.222H214.974V143.557H179.707ZM215.694 143.557V178.222H250.961V143.557H215.694ZM251.68 143.557V178.222H286.948V143.557H251.68ZM287.667 143.557V178.222H322.935V143.557H287.667ZM323.654 143.557V178.222H358.922V143.557H323.654ZM359.642 143.557V178.222H394.909V143.557H359.642ZM395.629 143.557V178.222H430.896V143.557H395.629ZM431.616 143.557V178.222H466.883V143.557H431.616ZM467.603 143.557V178.222H502.87V143.557H467.603ZM503.59 143.557V178.222H538.857V143.557H503.59ZM539.576 143.557V178.222H574.844V143.557H539.576ZM575.563 143.557V178.222H610.831V143.557H575.563ZM611.55 143.557V178.222H646.817V143.557H611.55ZM647.537 143.557V178.222H682.804V143.557H647.537ZM683.524 143.557V178.222H718.791V143.557H683.524ZM719.511 143.557V178.222H754.778V143.557H719.511ZM755.498 143.557V178.222H790.766V143.557H755.498ZM791.486 143.557V178.222H826.751V143.557H791.486ZM827.471 143.557V178.222H862.738V143.557H827.471ZM863.458 143.557V178.222H898.725V143.557H863.458ZM899.445 143.557V178.222H934.712V143.557H899.445ZM935.432 143.557V178.222H970.699V143.557H935.432ZM971.419 143.557V178.222H1006.69V143.557H971.419ZM1007.41 143.557V178.222H1042.67V143.557H1007.41ZM1042.67 178.93H1007.41V213.595H1042.67V178.93ZM1042.67 214.303H1007.41V248.968H1042.67V214.303ZM1042.67 249.675H1007.41V284.341H1042.67V249.675ZM1042.67 285.048H1007.41V319.713H1042.67V285.048ZM1042.67 320.421H1007.41V355.087H1042.67V320.421ZM1042.67 355.794H1007.41V390.46H1042.67V355.794ZM1042.67 391.167H1007.41V425.832H1042.67V391.167ZM1042.67 426.54H1007.41V461.205H1042.67V426.54ZM1042.67 461.913H1007.41V496.578H1042.67V461.913ZM1042.67 497.285H1007.41V531.951H1042.67V497.285ZM1042.67 532.658H1007.41V567.324H1042.67V532.658ZM1042.67 568.031H1007.41V602.696H1042.67V568.031ZM1042.67 603.403H1007.41V638.068H1042.67V603.403ZM1042.67 638.776H1007.41V673.441H1042.67V638.776ZM1042.67 674.149H1007.41V708.814H1042.67V674.149ZM1042.67 709.521H1007.41V744.187H1042.67V709.521ZM1042.67 744.894H1007.41V779.559H1042.67V744.894ZM1042.67 780.267H1007.41V814.932H1042.67V780.267ZM1042.67 815.64H1007.41V850.305H1042.67V815.64ZM1042.67 851.012H1007.41V885.678H1042.67V851.012ZM1042.67 886.385H1007.41V921.05H1042.67V886.385ZM1042.67 921.758H1007.41V956.423H1042.67V921.758ZM1042.67 957.131H1007.41V991.796H1042.67V957.131ZM1042.67 992.503H1007.41V1027.17H1042.67V992.503ZM1006.69 1027.17V992.503H971.419V1027.17H1006.69ZM970.699 1027.17V992.503H935.432V1027.17H970.699ZM934.712 1027.17V992.503H899.445V1027.17H934.712ZM898.725 1027.17V992.503H863.458V1027.17H898.725ZM862.738 1027.17V992.503H827.471V1027.17H862.738ZM826.751 1027.17V992.503H791.485V1027.17H826.751ZM790.765 1027.17V992.503H755.498V1027.17H790.765ZM754.778 1027.17V992.503H719.511V1027.17H754.778ZM718.791 1027.17V992.503H683.524V1027.17H718.791ZM682.804 1027.17V992.503H647.537V1027.17H682.804ZM646.817 1027.17V992.503H611.55V1027.17H646.817ZM610.831 1027.17V992.503H575.563V1027.17H610.831ZM574.844 1027.17V992.503H539.576V1027.17H574.844ZM538.857 1027.17V992.503H503.59V1027.17H538.857ZM502.87 1027.17V992.503H467.603V1027.17H502.87ZM466.883 1027.17V992.503H431.616V1027.17H466.883ZM430.896 1027.17V992.503H395.629V1027.17H430.896ZM394.909 1027.17V992.503H359.641V1027.17H394.909ZM358.921 1027.17V992.503H323.654V1027.17H358.921ZM322.935 1027.17V992.503H287.667V1027.17H322.935ZM286.948 1027.17V992.503H251.68V1027.17H286.948ZM250.961 1027.17V992.503H215.694V1027.17H250.961ZM214.974 1027.17V992.503H179.707V1027.17H214.974ZM178.987 1027.17V992.503H143.72V1027.17H178.987ZM143.72 991.796H178.987V957.131H143.72V991.796ZM143.72 956.423H178.987V921.758H143.72V956.423ZM143.72 921.05H178.987V886.385H143.72V921.05ZM143.72 885.678H178.987V851.012H143.72V885.678ZM143.72 850.305H178.987V815.64H143.72V850.305ZM143.72 814.932H178.987V780.267H143.72V814.932ZM143.72 779.559H178.987V744.894H143.72V779.559ZM143.72 744.187H178.987V709.521H143.72V744.187ZM143.72 708.814H178.987V674.149H143.72V708.814ZM143.72 673.441H178.987V638.776H143.72V673.441ZM143.72 638.068H178.987V603.403H143.72V638.068ZM143.72 602.696H178.987V568.031H143.72L143.72 602.696ZM143.72 567.324H178.987V532.658H143.72V567.324ZM143.72 531.951H178.987V497.285H143.72V531.951ZM143.72 496.578H178.987V461.913H143.72V496.578ZM143.72 461.205H178.987V426.54H143.72V461.205ZM143.72 425.832H178.987V391.167H143.72V425.832ZM143.72 390.46H178.987V355.794H143.72V390.46ZM143.72 355.086H178.987V320.421H143.72V355.086ZM143.72 319.713H178.987V285.048H143.72V319.713ZM143.72 284.341H178.987V249.675H143.72V284.341ZM143.72 248.968H178.987V214.303H143.72V248.968ZM143.72 213.595H178.987V178.93H143.72V213.595ZM179.707 178.93V213.595H214.974V178.93H179.707ZM215.694 178.93V213.595H250.961V178.93H215.694ZM251.68 178.93V213.595H286.948V178.93H251.68ZM287.667 178.93V213.595H322.935V178.93H287.667ZM323.654 178.93V213.595H358.922V178.93H323.654ZM359.642 178.93V213.595H394.909V178.93H359.642ZM395.629 178.93V213.595H430.896V178.93H395.629ZM431.616 178.93V213.595H466.883V178.93H431.616ZM467.603 178.93V213.595H502.87V178.93H467.603ZM503.59 178.93V213.595H538.857V178.93H503.59ZM539.576 178.93V213.595H574.844V178.93H539.576ZM575.563 178.93V213.595H610.831V178.93H575.563ZM611.55 178.93V213.595H646.817V178.93H611.55ZM647.537 178.93V213.595H682.804V178.93H647.537ZM683.524 178.93V213.595H718.791V178.93H683.524ZM719.511 178.93V213.595H754.778V178.93H719.511ZM755.498 178.93V213.595H790.766V178.93H755.498ZM791.486 178.93V213.595H826.751V178.93H791.486ZM827.471 178.93V213.595H862.738V178.93H827.471ZM863.458 178.93V213.595H898.725V178.93H863.458ZM899.445 178.93V213.595H934.712V178.93H899.445ZM935.432 178.93V213.595H970.699V178.93H935.432ZM971.419 178.93V213.595H1006.69V178.93H971.419ZM1006.69 214.303H971.419V248.968H1006.69V214.303ZM1006.69 249.675H971.419V284.341H1006.69V249.675ZM1006.69 285.048H971.419V319.713H1006.69V285.048ZM1006.69 320.421H971.419V355.087H1006.69V320.421ZM1006.69 355.794H971.419V390.46H1006.69V355.794ZM1006.69 391.167H971.419V425.832H1006.69V391.167ZM1006.69 426.54H971.419V461.205H1006.69V426.54ZM1006.69 461.913H971.419V496.578H1006.69V461.913ZM1006.69 497.285H971.419V531.951H1006.69V497.285ZM1006.69 532.658H971.419V567.324H1006.69V532.658ZM1006.69 568.031H971.419V602.696H1006.69V568.031ZM1006.69 603.403H971.419V638.068H1006.69V603.403ZM1006.69 638.776H971.419V673.441H1006.69V638.776ZM1006.69 674.149H971.419V708.814H1006.69V674.149ZM1006.69 709.521H971.419V744.187H1006.69V709.521ZM1006.69 744.894H971.419V779.559H1006.69V744.894ZM1006.69 780.267H971.419V814.932H1006.69V780.267ZM1006.69 815.64H971.419V850.305H1006.69V815.64ZM1006.69 851.012H971.419V885.678H1006.69V851.012ZM1006.69 886.385H971.419V921.05H1006.69V886.385ZM1006.69 921.758H971.419V956.423H1006.69V921.758ZM1006.69 957.131H971.419V991.796H1006.69V957.131ZM970.699 991.796V957.131H935.432V991.796H970.699ZM934.712 991.796V957.131H899.445V991.796H934.712ZM898.725 991.796V957.131H863.458V991.796H898.725ZM862.738 991.796V957.131H827.471V991.796H862.738ZM826.751 991.796V957.131H791.485V991.796H826.751ZM790.765 991.796V957.131H755.498V991.796H790.765ZM754.778 991.796V957.131H719.511V991.796H754.778ZM718.791 991.796V957.131H683.524V991.796H718.791ZM682.804 991.796V957.131H647.537V991.796H682.804ZM646.817 991.796V957.131H611.55V991.796H646.817ZM610.831 991.796V957.131H575.563V991.796H610.831ZM574.844 991.796V957.131H539.576V991.796H574.844ZM538.857 991.796V957.131H503.59V991.796H538.857ZM502.87 991.796V957.131H467.603V991.796H502.87ZM466.883 991.796V957.131H431.616V991.796H466.883ZM430.896 991.796V957.131H395.629V991.796H430.896ZM394.909 991.796V957.131H359.641V991.796H394.909ZM358.921 991.796V957.131H323.654V991.796H358.921ZM322.935 991.796V957.131H287.667V991.796H322.935ZM286.948 991.796V957.131H251.68V991.796H286.948ZM250.961 991.796V957.131H215.694V991.796H250.961ZM214.974 991.796V957.131H179.707V991.796H214.974ZM179.707 956.423H214.974V921.758H179.707V956.423ZM179.707 921.05H214.974V886.385H179.707V921.05ZM179.707 885.678H214.974V851.012H179.707V885.678ZM179.707 850.305H214.974V815.64H179.707V850.305ZM179.707 814.932H214.974V780.267H179.707V814.932ZM179.707 779.559H214.974V744.894H179.707V779.559ZM179.707 744.187H214.974V709.521H179.707V744.187ZM179.707 708.814H214.974V674.149H179.707V708.814ZM179.707 673.441H214.974V638.776H179.707V673.441ZM179.707 638.068H214.974V603.403H179.707V638.068ZM179.707 602.696H214.974V568.031H179.707V602.696ZM179.707 567.324H214.974V532.658H179.707V567.324ZM179.707 531.951H214.974V497.285H179.707V531.951ZM179.707 496.578H214.974V461.913H179.707V496.578ZM179.707 461.205H214.974V426.54H179.707V461.205ZM179.707 425.832H214.974V391.167H179.707V425.832ZM179.707 390.46H214.974V355.794H179.707V390.46ZM179.707 355.086H214.974V320.421H179.707V355.086ZM179.707 319.713H214.974V285.048H179.707V319.713ZM179.707 284.341H214.974V249.675H179.707V284.341ZM179.707 248.968H214.974V214.303H179.707V248.968ZM215.694 214.303V248.968H250.961V214.303H215.694ZM251.68 214.303V248.968H286.948V214.303H251.68ZM287.667 214.303V248.968H322.935V214.303H287.667ZM323.654 214.303V248.968H358.922V214.303H323.654ZM359.642 214.303V248.968H394.909V214.303H359.642ZM395.629 214.303V248.968H430.896V214.303H395.629ZM431.616 214.303V248.968H466.883V214.303H431.616ZM467.603 214.303V248.968H502.87V214.303H467.603ZM503.59 214.303V248.968H538.857V214.303H503.59ZM539.576 214.303V248.968H574.844V214.303H539.576ZM575.563 214.303V248.968H610.831V214.303H575.563ZM611.55 214.303V248.968H646.817V214.303H611.55ZM647.537 214.303V248.968H682.804V214.303H647.537ZM683.524 214.303V248.968H718.791V214.303H683.524ZM719.511 214.303V248.968H754.778V214.303H719.511ZM755.498 214.303V248.968H790.766V214.303H755.498ZM791.486 214.303V248.968H826.751V214.303H791.486ZM827.471 214.303V248.968H862.738V214.303H827.471ZM863.458 214.303V248.968H898.725V214.303H863.458ZM899.445 214.303V248.968H934.712V214.303H899.445ZM935.432 214.303V248.968H970.699V214.303H935.432ZM970.699 249.675H935.432V284.341H970.699V249.675ZM970.699 285.048H935.432V319.713H970.699V285.048ZM970.699 320.421H935.432V355.087H970.699V320.421ZM970.699 355.794H935.432V390.46H970.699V355.794ZM970.699 391.167H935.432V425.832H970.699V391.167ZM970.699 426.54H935.432V461.205H970.699V426.54ZM970.699 461.913H935.432V496.578H970.699V461.913ZM970.699 497.285H935.432V531.951H970.699V497.285ZM970.699 532.658H935.432V567.324H970.699V532.658ZM970.699 568.031H935.432V602.696H970.699V568.031ZM970.699 603.403H935.432V638.068H970.699V603.403ZM970.699 638.776H935.432V673.441H970.699V638.776ZM970.699 674.149H935.432V708.814H970.699V674.149ZM970.699 709.521H935.432V744.187H970.699V709.521ZM970.699 744.894H935.432V779.559H970.699V744.894ZM970.699 780.267H935.432V814.932H970.699V780.267ZM970.699 815.64H935.432V850.305H970.699V815.64ZM970.699 851.012H935.432V885.678H970.699V851.012ZM970.699 886.385H935.432V921.05H970.699V886.385ZM970.699 921.758H935.432V956.423H970.699V921.758ZM934.712 956.423V921.758H899.445V956.423H934.712ZM898.725 956.423V921.758H863.458V956.423H898.725ZM862.738 956.423V921.758H827.471V956.423H862.738ZM826.751 956.423V921.758H791.485V956.423H826.751ZM790.765 956.423V921.758H755.498V956.423H790.765ZM754.778 956.423V921.758H719.511V956.423H754.778ZM718.791 956.423V921.758H683.524V956.423H718.791ZM682.804 956.423V921.758H647.537V956.423H682.804ZM646.817 956.423V921.758H611.55V956.423H646.817ZM610.831 956.423V921.758H575.563V956.423H610.831ZM574.844 956.423V921.758H539.576V956.423H574.844ZM538.857 956.423V921.758H503.59V956.423H538.857ZM502.87 956.423V921.758H467.603V956.423H502.87ZM466.883 956.423V921.758H431.616V956.423H466.883ZM430.896 956.423V921.758H395.629V956.423H430.896ZM394.909 956.423V921.758H359.641V956.423H394.909ZM358.921 956.423V921.758H323.654V956.423H358.921ZM322.935 956.423V921.758H287.667V956.423H322.935ZM286.948 956.423V921.758H251.68V956.423H286.948ZM250.961 956.423V921.758H215.694V956.423H250.961ZM215.694 921.05H250.961V886.385H215.694V921.05ZM215.694 885.678H250.961V851.012H215.694V885.678ZM215.694 850.305H250.961V815.64H215.694V850.305ZM215.694 814.932H250.961V780.267H215.694V814.932ZM215.694 779.559H250.961V744.894H215.694V779.559ZM215.694 744.187H250.961V709.521H215.694V744.187ZM215.694 708.814H250.961V674.149H215.694V708.814ZM215.694 673.441H250.961V638.776H215.694V673.441ZM215.694 638.068H250.961V603.403H215.694V638.068ZM215.694 602.696H250.961V568.031H215.694V602.696ZM215.694 567.324H250.961V532.658H215.694V567.324ZM215.694 531.951H250.961V497.285H215.694V531.951ZM215.694 496.578H250.961V461.913H215.694V496.578ZM215.694 461.205H250.961V426.54H215.694V461.205ZM215.694 425.832H250.961V391.167H215.694V425.832ZM215.694 390.46H250.961V355.794H215.694V390.46ZM215.694 355.086H250.961V320.421H215.694V355.086ZM215.694 319.713H250.961V285.048H215.694V319.713ZM215.694 284.341H250.961V249.675H215.694V284.341ZM251.68 249.675V284.341H286.948V249.675H251.68ZM287.667 249.675V284.341H322.935V249.675H287.667ZM323.654 249.675V284.341H358.922V249.675H323.654ZM359.642 249.675V284.341H394.909V249.675H359.642ZM395.629 249.675V284.341H430.896V249.675H395.629ZM431.616 249.675V284.341H466.883V249.675H431.616ZM467.603 249.675V284.341H502.87V249.675H467.603ZM503.59 249.675V284.341H538.857V249.675H503.59ZM539.576 249.675V284.341H574.844V249.675H539.576ZM575.563 249.675V284.341H610.831V249.675H575.563ZM611.55 249.675V284.341H646.817V249.675H611.55ZM647.537 249.675V284.341H682.804V249.675H647.537ZM683.524 249.675V284.341H718.791V249.675H683.524ZM719.511 249.675V284.341H754.778V249.675H719.511ZM755.498 249.675V284.341H790.766V249.675H755.498ZM791.486 249.675V284.341H826.751V249.675H791.486ZM827.471 249.675V284.341H862.738V249.675H827.471ZM863.458 249.675V284.341H898.725V249.675H863.458ZM899.445 249.675V284.341H934.712V249.675H899.445ZM934.712 285.048H899.445V319.713H934.712V285.048ZM934.712 320.421H899.445V355.087H934.712V320.421ZM934.712 355.794H899.445V390.46H934.712V355.794ZM934.712 391.167H899.445V425.832H934.712V391.167ZM934.712 426.54H899.445V461.205H934.712V426.54ZM934.712 461.913H899.445V496.578H934.712V461.913ZM934.712 497.285H899.445V531.951H934.712V497.285ZM934.712 532.658H899.445V567.324H934.712V532.658ZM934.712 568.031H899.445V602.696H934.712V568.031ZM934.712 603.403H899.445V638.068H934.712V603.403ZM934.712 638.776H899.445V673.441H934.712V638.776ZM934.712 674.149H899.445V708.814H934.712V674.149ZM934.712 709.521H899.445V744.187H934.712V709.521ZM934.712 744.894H899.445V779.559H934.712V744.894ZM934.712 780.267H899.445V814.932H934.712V780.267ZM934.712 815.64H899.445V850.305H934.712V815.64ZM934.712 851.012H899.445V885.678H934.712V851.012ZM934.712 886.385H899.445V921.05H934.712V886.385ZM898.725 921.05V886.385H863.458V921.05H898.725ZM862.738 921.05V886.385H827.471V921.05H862.738ZM826.751 921.05V886.385H791.485V921.05H826.751ZM790.765 921.05V886.385H755.498V921.05H790.765ZM754.778 921.05V886.385H719.511V921.05H754.778ZM718.791 921.05V886.385H683.524V921.05H718.791ZM682.804 921.05V886.385H647.537V921.05H682.804ZM646.817 921.05V886.385H611.55V921.05H646.817ZM610.831 921.05V886.385H575.563V921.05H610.831ZM574.844 921.05V886.385H539.576V921.05H574.844ZM538.857 921.05V886.385H503.59V921.05H538.857ZM502.87 921.05V886.385H467.603V921.05H502.87ZM466.883 921.05V886.385H431.616V921.05H466.883ZM430.896 921.05V886.385H395.629V921.05H430.896ZM394.909 921.05V886.385H359.641V921.05H394.909ZM358.921 921.05V886.385H323.654V921.05H358.921ZM322.935 921.05V886.385H287.667V921.05H322.935ZM286.948 921.05V886.385H251.68V921.05H286.948ZM251.68 885.678H286.948V851.012H251.68V885.678ZM251.68 850.305H286.948V815.64H251.68V850.305ZM251.68 814.932H286.948V780.267H251.68V814.932ZM251.68 779.559H286.948V744.894H251.68V779.559ZM251.68 744.187H286.948V709.521H251.68V744.187ZM251.68 708.814H286.948V674.149H251.68V708.814ZM251.68 673.441H286.948V638.776H251.68V673.441ZM251.68 638.068H286.948V603.403H251.68V638.068ZM251.68 602.696H286.948V568.031H251.68V602.696ZM251.68 567.324H286.948V532.658H251.68V567.324ZM251.68 531.951H286.948V497.285H251.68V531.951ZM251.68 496.578H286.948V461.913H251.68V496.578ZM251.68 461.205H286.948V426.54H251.68V461.205ZM251.68 425.832H286.948V391.167H251.68V425.832ZM251.68 390.46H286.948V355.794H251.68V390.46ZM251.68 355.086H286.948V320.421H251.68V355.086ZM251.68 319.713H286.948V285.048H251.68V319.713ZM287.667 285.048V319.713H322.935V285.048H287.667ZM323.654 285.048V319.713H358.922V285.048H323.654ZM359.642 285.048V319.713H394.909V285.048H359.642ZM395.629 285.048V319.713H430.896V285.048H395.629ZM431.616 285.048V319.713H466.883V285.048H431.616ZM467.603 285.048V319.713H502.87V285.048H467.603ZM503.59 285.048V319.713H538.857V285.048H503.59ZM539.576 285.048V319.713H574.844V285.048H539.576ZM575.563 285.048V319.713H610.831V285.048H575.563ZM611.55 285.048V319.713H646.817V285.048H611.55ZM647.537 285.048V319.713H682.804V285.048H647.537ZM683.524 285.048V319.713H718.791V285.048H683.524ZM719.511 285.048V319.713H754.778V285.048H719.511ZM755.498 285.048V319.713H790.766V285.048H755.498ZM791.486 285.048V319.713H826.751V285.048H791.486ZM827.471 285.048V319.713H862.738V285.048H827.471ZM863.458 285.048V319.713H898.725V285.048H863.458ZM898.725 320.421H863.458V355.087H898.725V320.421ZM898.725 355.794H863.458V390.46H898.725V355.794ZM898.725 391.167H863.458V425.832H898.725V391.167ZM898.725 426.54H863.458V461.205H898.725V426.54ZM898.725 461.913H863.458V496.578H898.725V461.913ZM898.725 497.285H863.458V531.951H898.725V497.285ZM898.725 532.658H863.458V567.324H898.725V532.658ZM898.725 568.031H863.458V602.696H898.725V568.031ZM898.725 603.403H863.458V638.068H898.725V603.403ZM898.725 638.776H863.458V673.441H898.725V638.776ZM898.725 674.149H863.458V708.814H898.725V674.149ZM898.725 709.521H863.458V744.187H898.725V709.521ZM898.725 744.894H863.458V779.559H898.725V744.894ZM898.725 780.267H863.458V814.932H898.725V780.267ZM898.725 815.64H863.458V850.305H898.725V815.64ZM898.725 851.012H863.458V885.678H898.725V851.012ZM862.738 885.678V851.012H827.471V885.678H862.738ZM826.751 885.678V851.012H791.485V885.678H826.751ZM790.765 885.678V851.012H755.498V885.678H790.765ZM754.778 885.678V851.012H719.511V885.678H754.778ZM718.791 885.678V851.012H683.524V885.678H718.791ZM682.804 885.678V851.012H647.537V885.678H682.804ZM646.817 885.678V851.012H611.55V885.678H646.817ZM610.831 885.678V851.012H575.563V885.678H610.831ZM574.844 885.678V851.012H539.576V885.678H574.844ZM538.857 885.678V851.012H503.59V885.678H538.857ZM502.87 885.678V851.012H467.603V885.678H502.87ZM466.883 885.678V851.012H431.616V885.678H466.883ZM430.896 885.678V851.012H395.629V885.678H430.896ZM394.909 885.678V851.012H359.641V885.678H394.909ZM358.921 885.678V851.012H323.654V885.678H358.921ZM322.935 885.678V851.012H287.667V885.678H322.935ZM287.667 850.305H322.935V815.64H287.667V850.305ZM287.667 814.932H322.935V780.267H287.667V814.932ZM287.667 779.559H322.935V744.894H287.667V779.559ZM287.667 744.187H322.935V709.521H287.667V744.187ZM287.667 708.814H322.935V674.149H287.667V708.814ZM287.667 673.441H322.935V638.776H287.667V673.441ZM287.667 638.068H322.935V603.403H287.667V638.068ZM287.667 602.696H322.935V568.031H287.667V602.696ZM287.667 567.324H322.935V532.658H287.667V567.324ZM287.667 531.951H322.935V497.285H287.667V531.951ZM287.667 496.578H322.935V461.913H287.667V496.578ZM287.667 461.205H322.935V426.54H287.667V461.205ZM287.667 425.832H322.935V391.167H287.667V425.832ZM287.667 390.46H322.935V355.794H287.667V390.46ZM287.667 355.086H322.935V320.421H287.667V355.086ZM323.654 320.421V355.086H358.922V320.421H323.654ZM359.642 320.421V355.086H394.909V320.421H359.642ZM395.629 320.421V355.086H430.896V320.421H395.629ZM431.616 320.421V355.086H466.883V320.421H431.616ZM467.603 320.421V355.086H502.87V320.421H467.603ZM503.59 320.421V355.086H538.857V320.421H503.59ZM539.576 320.421V355.086H574.844V320.421H539.576ZM575.563 320.421V355.086L610.831 355.087V320.421H575.563ZM611.55 320.421V355.087H646.817V320.421H611.55ZM647.537 320.421V355.087H682.804V320.421H647.537ZM683.524 320.421V355.087H718.791V320.421H683.524ZM719.511 320.421V355.087H754.778V320.421H719.511ZM755.498 320.421V355.087H790.766V320.421H755.498ZM791.486 320.421V355.087H826.751V320.421H791.486ZM827.471 320.421V355.087H862.738V320.421H827.471ZM862.738 355.794H827.471V390.46H862.738V355.794ZM862.738 391.167H827.471V425.832H862.738V391.167ZM862.738 426.54H827.471V461.205H862.738V426.54ZM862.738 461.913H827.471V496.578H862.738V461.913ZM862.738 497.285H827.471V531.951H862.738V497.285ZM862.738 532.658H827.471V567.324H862.738V532.658ZM862.738 568.031H827.471V602.696H862.738V568.031ZM862.738 603.403H827.471V638.068H862.738V603.403ZM862.738 638.776H827.471V673.441H862.738V638.776ZM862.738 674.149H827.471V708.814H862.738V674.149ZM862.738 709.521H827.471V744.187H862.738V709.521ZM862.738 744.894H827.471V779.559H862.738V744.894ZM862.738 780.267H827.471V814.932H862.738V780.267ZM862.738 815.64H827.471V850.305H862.738V815.64ZM826.751 850.305V815.64H791.485V850.305H826.751ZM790.765 850.305V815.64H755.498V850.305H790.765ZM754.778 850.305V815.64H719.511V850.305H754.778ZM718.791 850.305V815.64H683.524V850.305H718.791ZM682.804 850.305V815.64H647.537V850.305H682.804ZM646.817 850.305V815.64H611.55V850.305H646.817ZM610.831 850.305V815.64H575.563V850.305H610.831ZM574.844 850.305V815.64H539.576V850.305H574.844ZM538.857 850.305V815.64H503.59V850.305H538.857ZM502.87 850.305V815.64H467.603V850.305H502.87ZM466.883 850.305V815.64H431.616V850.305H466.883ZM430.896 850.305V815.64H395.629V850.305H430.896ZM394.909 850.305V815.64H359.641V850.305H394.909ZM358.921 850.305V815.64H323.654V850.305H358.921ZM323.654 814.932H358.921V780.267H323.654V814.932ZM323.654 779.559H358.921V744.894H323.654V779.559ZM323.654 744.187H358.921V709.521H323.654V744.187ZM323.654 708.814H358.921V674.149H323.654V708.814ZM323.654 673.441H358.921V638.776H323.654V673.441ZM323.654 638.068H358.921V603.403H323.654V638.068ZM323.654 602.696H358.921L358.922 568.031H323.654V602.696ZM323.654 567.324H358.922V532.658H323.654V567.324ZM323.654 531.951H358.922V497.285H323.654V531.951ZM323.654 496.578H358.922V461.913H323.654V496.578ZM323.654 461.205H358.922V426.54H323.654V461.205ZM323.654 425.832H358.922V391.167H323.654V425.832ZM323.654 390.46H358.922V355.794H323.654V390.46ZM359.642 355.794V390.46H394.909V355.794H359.642ZM395.629 355.794V390.46H430.896V355.794H395.629ZM431.616 355.794V390.46H466.883V355.794H431.616ZM467.603 355.794V390.46H502.87V355.794H467.603ZM503.59 355.794V390.46H538.857V355.794H503.59ZM539.576 355.794V390.46H574.844V355.794H539.576ZM575.563 355.794V390.46H610.831V355.794L575.563 355.794ZM611.55 355.794V390.46H646.817V355.794H611.55ZM647.537 355.794V390.46H682.804V355.794H647.537ZM683.524 355.794V390.46H718.791V355.794H683.524ZM719.511 355.794V390.46H754.778V355.794H719.511ZM755.498 355.794V390.46H790.766V355.794H755.498ZM791.486 355.794V390.46H826.751V355.794H791.486ZM826.751 391.167H791.486V425.832H826.751V391.167ZM826.751 426.54H791.486V461.205H826.751V426.54ZM826.751 461.913H791.486V496.578H826.751V461.913ZM826.751 497.285H791.486V531.951H826.751V497.285ZM826.751 532.658H791.486V567.324H826.751V532.658ZM826.751 568.031H791.486L791.485 602.696H826.751V568.031ZM826.751 603.403H791.485V638.068H826.751V603.403ZM826.751 638.776H791.485V673.441H826.751V638.776ZM826.751 674.149H791.485V708.814H826.751V674.149ZM826.751 709.521H791.485V744.187H826.751V709.521ZM826.751 744.894H791.485V779.559H826.751V744.894ZM826.751 780.267H791.485V814.932H826.751V780.267ZM790.765 814.932V780.267H755.498V814.932H790.765ZM754.778 814.932V780.267H719.511V814.932H754.778ZM718.791 814.932V780.267H683.524V814.932H718.791ZM682.804 814.932V780.267H647.537V814.932H682.804ZM646.817 814.932V780.267H611.55V814.932H646.817ZM610.831 814.932V780.267H575.563V814.932H610.831ZM574.844 814.932V780.267H539.576V814.932H574.844ZM538.857 814.932V780.267H503.59V814.932H538.857ZM502.87 814.932V780.267H467.603V814.932H502.87ZM466.883 814.932V780.267H431.616V814.932H466.883ZM430.896 814.932V780.267H395.629V814.932H430.896ZM394.909 814.932V780.267H359.641V814.932H394.909ZM359.641 779.559H394.909V744.894H359.641V779.559ZM359.641 744.187H394.909V709.521H359.641V744.187ZM359.641 708.814H394.909V674.149H359.641V708.814ZM359.641 673.441H394.909V638.776H359.641V673.441ZM359.641 638.068H394.909V603.403H359.641V638.068ZM359.641 602.696H394.909V568.031H359.642L359.641 602.696ZM359.642 567.324H394.909V532.658H359.642V567.324ZM359.642 531.951H394.909V497.285H359.642V531.951ZM359.642 496.578H394.909V461.913H359.642V496.578ZM359.642 461.205H394.909V426.54H359.642V461.205ZM359.642 425.832H394.909V391.167H359.642V425.832ZM395.629 391.167V425.832H430.896V391.167H395.629ZM431.616 391.167V425.832H466.883V391.167H431.616ZM467.603 391.167V425.832H502.87V391.167H467.603ZM503.59 391.167V425.832H538.857V391.167H503.59ZM539.576 391.167V425.832H574.844V391.167H539.576ZM575.563 391.167V425.832H610.831V391.167H575.563ZM611.55 391.167V425.832H646.817V391.167H611.55ZM647.537 391.167V425.832H682.804V391.167H647.537ZM683.524 391.167V425.832H718.791V391.167H683.524ZM719.511 391.167V425.832H754.778V391.167H719.511ZM755.498 391.167V425.832H790.766V391.167H755.498ZM790.766 426.54H755.498V461.205H790.766V426.54ZM790.766 461.913H755.498V496.578H790.766V461.913ZM790.766 497.285H755.498V531.951H790.766V497.285ZM790.766 532.658H755.498V567.324H790.766V532.658ZM790.766 568.031H755.498V602.696H790.765L790.766 568.031ZM790.765 603.403H755.498V638.068H790.765V603.403ZM790.765 638.776H755.498V673.441H790.765V638.776ZM790.765 674.149H755.498V708.814H790.765V674.149ZM790.765 709.521H755.498V744.187H790.765V709.521ZM790.765 744.894H755.498V779.559H790.765V744.894ZM754.778 779.559V744.894H719.511V779.559H754.778ZM718.791 779.559V744.894H683.524V779.559H718.791ZM682.804 779.559V744.894H647.537V779.559H682.804ZM646.817 779.559V744.894H611.55V779.559H646.817ZM610.831 779.559V744.894H575.563V779.559H610.831ZM574.844 779.559V744.894H539.576V779.559H574.844ZM538.857 779.559V744.894H503.59V779.559H538.857ZM502.87 779.559V744.894H467.603V779.559H502.87ZM466.883 779.559V744.894H431.616V779.559H466.883ZM430.896 779.559V744.894H395.629V779.559H430.896ZM395.629 744.187H430.896V709.521H395.629V744.187ZM395.629 708.814H430.896V674.149H395.629V708.814ZM395.629 673.441H430.896V638.776H395.629V673.441ZM395.629 638.068H430.896V603.403H395.629V638.068ZM395.629 602.696H430.896V568.031H395.629V602.696ZM395.629 567.324H430.896V532.658H395.629V567.324ZM395.629 531.951H430.896V497.285H395.629V531.951ZM395.629 496.578H430.896V461.913H395.629V496.578ZM395.629 461.205H430.896V426.54H395.629V461.205ZM431.616 426.54V461.205H466.883V426.54H431.616ZM467.603 426.54V461.205H502.87V426.54H467.603ZM503.59 426.54V461.205H538.857V426.54H503.59ZM539.576 426.54V461.205H574.844V426.54H539.576ZM575.563 426.54V461.205H610.831V426.54H575.563ZM611.55 426.54V461.205H646.817V426.54H611.55ZM647.537 426.54V461.205H682.804V426.54H647.537ZM683.524 426.54V461.205H718.791V426.54H683.524ZM719.511 426.54V461.205H754.778V426.54H719.511ZM754.778 461.913H719.511V496.578H754.778V461.913ZM754.778 497.285H719.511V531.951H754.778V497.285ZM754.778 532.658H719.511V567.324H754.778V532.658ZM754.778 568.031H719.511V602.696H754.778V568.031ZM754.778 603.403H719.511V638.068H754.778V603.403ZM754.778 638.776H719.511V673.441H754.778V638.776ZM754.778 674.149H719.511V708.814H754.778V674.149ZM754.778 709.521H719.511V744.187H754.778V709.521ZM718.791 744.187V709.521H683.524V744.187H718.791ZM682.804 744.187V709.521H647.537V744.187H682.804ZM646.817 744.187V709.521H611.55V744.187H646.817ZM610.831 744.187V709.521H575.563V744.187H610.831ZM574.844 744.187V709.521H539.576V744.187H574.844ZM538.857 744.187V709.521H503.59V744.187H538.857ZM502.87 744.187V709.521H467.603V744.187H502.87ZM466.883 744.187V709.521H431.616V744.187H466.883ZM431.616 708.814H466.883V674.149H431.616V708.814ZM431.616 673.441H466.883V638.776H431.616V673.441ZM431.616 638.068H466.883V603.403H431.616V638.068ZM431.616 602.696H466.883V568.031H431.616V602.696ZM431.616 567.324H466.883V532.658H431.616V567.324ZM431.616 531.951H466.883V497.285H431.616V531.951ZM431.616 496.578H466.883V461.913H431.616V496.578ZM467.603 461.913V496.578H502.87V461.913H467.603ZM503.59 461.913V496.578H538.857V461.913H503.59ZM539.576 461.913V496.578H574.844V461.913H539.576ZM575.563 461.913V496.578H610.831V461.913H575.563ZM611.55 461.913V496.578H646.817V461.913H611.55ZM647.537 461.913V496.578H682.804V461.913H647.537ZM683.524 461.913V496.578H718.791V461.913H683.524ZM718.791 497.285H683.524V531.951H718.791V497.285ZM718.791 532.658H683.524V567.324H718.791V532.658ZM718.791 568.031H683.524V602.696H718.791V568.031ZM718.791 603.403H683.524V638.068H718.791V603.403ZM718.791 638.776H683.524V673.441H718.791V638.776ZM718.791 674.149H683.524V708.814H718.791V674.149ZM682.804 708.814V674.149H647.537V708.814H682.804ZM646.817 708.814V674.149H611.55V708.814H646.817ZM610.831 708.814V674.149H575.563V708.814H610.831ZM574.844 708.814V674.149H539.576V708.814H574.844ZM538.857 708.814V674.149H503.59V708.814H538.857ZM502.87 708.814V674.149H467.603V708.814H502.87ZM467.603 673.441H502.87V638.776H467.603V673.441ZM467.603 638.068H502.87V603.403H467.603V638.068ZM467.603 602.696H502.87V568.031H467.603V602.696ZM467.603 567.324H502.87V532.658H467.603V567.324ZM467.603 531.951H502.87V497.285H467.603V531.951ZM503.59 497.285V531.951H538.857V497.285H503.59ZM539.576 497.285V531.951H574.844V497.285H539.576ZM575.563 497.285V531.951H610.831V497.285H575.563ZM611.55 497.285V531.951H646.817V497.285H611.55ZM647.537 497.285V531.951H682.804V497.285H647.537ZM682.804 532.658H647.537V567.324H682.804V532.658ZM682.804 568.031H647.537V602.696H682.804V568.031ZM682.804 603.403H647.537V638.068H682.804V603.403ZM682.804 638.776H647.537V673.441H682.804V638.776ZM646.817 673.441V638.776H611.55V673.441H646.817ZM610.831 673.441V638.776H575.563V673.441H610.831ZM574.844 673.441V638.776H539.576V673.441H574.844ZM538.857 673.441V638.776H503.59V673.441H538.857ZM503.59 638.068H538.857V603.403H503.59V638.068ZM503.59 602.696H538.857V568.031H503.59V602.696ZM503.59 567.324H538.857V532.658H503.59V567.324ZM539.576 532.658V567.324H574.844V532.658H539.576ZM575.563 532.658V567.324H610.831V532.658H575.563ZM611.55 532.658V567.324H646.817V532.658H611.55ZM646.817 568.031H611.55V602.696H646.817V568.031ZM646.817 603.403H611.55V638.068H646.817V603.403ZM610.831 638.068V603.403H575.563V638.068H610.831ZM574.844 638.068V603.403H539.576V638.068H574.844ZM539.576 602.696H574.844V568.031H539.576V602.696ZM575.563 568.031V602.696H610.831V568.031H575.563ZM143 1062.54H1078.66V1063.25H143L143 1062.54ZM1078.66 1062.54V142.85H1079.38V1062.54H1078.66Z" fill="url(#paint0_radial_1_1539)" fill-opacity="0.5"/>
</g>
<defs>
<filter id="filter0_f_1_1539" x="0.133316" y="0.0114899" width="1221.62" height="1206.86" filterUnits="userSpaceOnUse" color-interpolation-filters="sRGB">
<feFlood flood-opacity="0" result="BackgroundImageFix"/>
<feBlend mode="normal" in="SourceGraphic" in2="BackgroundImageFix" result="shape"/>
<feGaussianBlur stdDeviation="89.1236" result="effect1_foregroundBlur_1_1539"/>
</filter>
<filter id="filter1_f_1_1539" x="239.173" y="-279.916" width="1153.56" height="1544.69" filterUnits="userSpaceOnUse" color-interpolation-filters="sRGB">
<feFlood flood-opacity="0" result="BackgroundImageFix"/>
<feBlend mode="normal" in="SourceGraphic" in2="BackgroundImageFix" result="shape"/>
<feGaussianBlur stdDeviation="66.0744" result="effect1_foregroundBlur_1_1539"/>
</filter>
<filter id="filter2_f_1_1539" x="128.517" y="211.678" width="824.651" height="890.722" filterUnits="userSpaceOnUse" color-interpolation-filters="sRGB">
<feFlood flood-opacity="0" result="BackgroundImageFix"/>
<feBlend mode="normal" in="SourceGraphic" in2="BackgroundImageFix" result="shape"/>
<feGaussianBlur stdDeviation="66.0744" result="effect1_foregroundBlur_1_1539"/>
</filter>
<filter id="filter3_f_1_1539" x="-455.595" y="-141.899" width="1787.95" height="1343.33" filterUnits="userSpaceOnUse" color-interpolation-filters="sRGB">
<feFlood flood-opacity="0" result="BackgroundImageFix"/>
<feBlend mode="normal" in="SourceGraphic" in2="BackgroundImageFix" result="shape"/>
<feGaussianBlur stdDeviation="89.1236" result="effect1_foregroundBlur_1_1539"/>
</filter>
<radialGradient id="paint0_radial_1_1539" cx="0" cy="0" r="1" gradientUnits="userSpaceOnUse" gradientTransform="translate(611.19 603.049) rotate(90) scale(490.973 499.498)">
<stop stop-color="white" stop-opacity="0.69"/>
<stop offset="1" stop-color="#F0F3F9" stop-opacity="0"/>
</radialGradient>
</defs>
</svg>
