<svg width="119" height="32" viewBox="0 0 119 32" fill="none" xmlns="http://www.w3.org/2000/svg">
<path d="M16.1098 31.2682C16.7345 31.8341 17.7238 31.8112 18.3189 31.2174C18.9142 30.6232 18.89 29.683 18.2652 29.1173L5.24139 17.3244H35.9375C36.8005 17.3244 37.5 16.6595 37.5 15.8391C37.5 15.0189 36.8005 14.3538 35.9375 14.3538H5.24119L18.2652 2.56085C18.89 1.99507 18.9139 1.05487 18.3189 0.460899C17.7238 -0.133101 16.7345 -0.15596 16.1098 0.409819L0.653734 14.4052C0.301797 14.7238 0.0935624 15.1302 0.0290155 15.5527C0.00998429 15.6454 0 15.7411 0 15.8391C0 15.9374 0.0100157 16.0332 0.0291251 16.1261C0.0937969 16.5484 0.302 16.9546 0.653734 17.273L16.1098 31.2682Z" fill="#1C0309"/>
<path d="M102.39 0.410382C101.765 -0.155427 100.776 -0.132657 100.181 0.461284C99.5858 1.05542 99.61 1.99553 100.235 2.56135L113.259 14.3542H82.5625C81.6996 14.3542 81 15.0191 81 15.8395C81 16.6597 81.6996 17.3248 82.5625 17.3248H113.259L100.235 29.1178C99.61 29.6836 99.5861 30.6238 100.181 31.2178C100.776 31.8117 101.765 31.8346 102.39 31.2687L117.846 17.2734C118.198 16.9548 118.406 16.5485 118.471 16.1259C118.49 16.0332 118.5 15.9375 118.5 15.8395C118.5 15.7412 118.49 15.6454 118.471 15.5525C118.406 15.1303 118.198 14.724 117.846 14.4056L102.39 0.410382Z" fill="#1C0309"/>
</svg>
