<svg width="61" height="54" viewBox="0 0 61 54" fill="none" xmlns="http://www.w3.org/2000/svg">
<path d="M60.1176 27.3623C60.1176 23.4354 55.2021 19.7165 47.6685 17.4097C49.4083 9.72704 48.6351 3.61481 45.231 1.65779C44.4449 1.19753 43.5281 0.982126 42.5247 0.982126V3.67556C43.0807 3.67556 43.5281 3.78418 43.9018 3.98854C45.544 4.93115 46.2583 8.51748 45.7005 13.133C45.5529 14.326 45.3477 15.5111 45.0856 16.6843C42.5616 16.0758 40 15.6361 37.4177 15.368C35.8797 13.2456 34.2019 11.2283 32.3953 9.32938C36.3315 5.66756 40.0264 3.66267 42.5394 3.66267V0.969238C39.2182 0.969238 34.8715 3.33681 30.4751 7.44416C26.0806 3.36074 21.7339 1.01895 18.4145 1.01895V3.71054C20.9128 3.71054 24.6188 5.70438 28.5568 9.34042C26.7583 11.2331 25.092 13.247 23.5694 15.368C20.841 15.657 18.2562 16.1044 15.8904 16.6954C15.6243 15.5391 15.4148 14.3704 15.2626 13.1937C14.6956 8.57824 15.3952 4.9919 17.0245 4.0364C17.3872 3.81916 17.8585 3.72343 18.4145 3.72343V1.02999C17.4001 1.02999 16.4814 1.24539 15.6842 1.70565C12.2931 3.66267 11.5309 9.76202 13.2817 17.4207C5.77211 19.7404 0.882324 23.4483 0.882324 27.3623C0.882324 31.2874 5.79789 35.0081 13.3314 37.315C11.5916 44.9976 12.3649 51.1098 15.7689 53.0668C16.5551 53.5253 17.4719 53.7425 18.4863 53.7425C21.8075 53.7425 26.1542 51.3749 30.5488 47.2676C34.9433 51.351 39.29 53.6928 42.6094 53.6928C43.6238 53.6928 44.5425 53.4774 45.3396 53.0171C48.7327 51.0601 49.493 44.9608 47.7422 37.3021C55.2278 34.9952 60.1176 31.2764 60.1176 27.3605V27.3623ZM44.397 19.3059C43.9279 20.9203 43.3842 22.512 42.7677 24.0761C41.758 22.1127 40.6495 20.2017 39.4465 18.3504C41.1605 18.6045 42.8137 18.9193 44.397 19.3059ZM38.8666 32.1693C37.9626 33.7475 36.9921 35.2868 35.9577 36.7829C32.3344 37.1026 28.6902 37.1069 25.0662 36.7958C24.0301 35.3063 23.0554 33.7751 22.1444 32.2061C21.2386 30.64 20.4008 29.0356 19.6333 27.3973C21.1669 24.1058 22.9763 20.9501 25.0422 17.9638C28.6656 17.6447 32.3098 17.641 35.9338 17.9528C36.9698 19.4422 37.9445 20.9734 38.8555 22.5425C39.7723 24.1258 40.6045 25.7312 41.3667 27.3494C40.6063 28.9695 39.7723 30.5878 38.8666 32.1693ZM42.7677 30.5989C43.4194 32.219 43.9754 33.8354 44.4338 35.4058C42.8506 35.7924 41.1863 36.1201 39.4594 36.3723C40.6569 34.5043 41.761 32.5762 42.7677 30.5989ZM30.5248 43.4861C29.4018 42.3262 28.2788 41.0357 27.1668 39.6218C28.253 39.6696 29.365 39.7065 30.488 39.7065C31.6221 39.7065 32.7451 39.6825 33.8442 39.6218C32.8083 40.9694 31.7002 42.2582 30.5248 43.4861ZM21.5406 36.3723C19.8766 36.131 18.2246 35.8128 16.59 35.4187C17.0374 33.8612 17.5934 32.2539 18.2212 30.6467C18.7164 31.6133 19.2338 32.5798 19.8026 33.5464C20.3697 34.5129 20.9496 35.4555 21.5406 36.3723ZM30.4641 11.2367C31.5871 12.3965 32.7101 13.6889 33.8203 15.1029C32.7146 15.0494 31.6079 15.0206 30.5009 15.0163C29.365 15.0163 28.2419 15.0421 27.1428 15.101C28.2291 13.6889 29.3521 12.3965 30.4641 11.2367ZM21.5295 18.3486C20.3318 20.2133 19.2276 22.1365 18.2212 24.111C17.5874 22.537 17.0313 20.9327 16.5551 19.3041C18.1365 18.9285 19.8026 18.6045 21.5295 18.3486ZM10.6011 33.4727C6.3281 31.6482 3.56287 29.2567 3.56287 27.3605C3.56287 25.4642 6.3281 23.0598 10.6011 21.2482C11.6395 20.8009 12.7736 20.4014 13.9463 20.0276C14.6852 22.5384 15.593 24.9962 16.6637 27.3844C15.6048 29.7606 14.7092 32.2063 13.9831 34.7044C12.8363 34.3488 11.7076 33.9372 10.6011 33.4709V33.4727ZM17.0982 50.7324C15.456 49.7916 14.7416 46.2035 15.2995 41.5898C15.432 40.4539 15.6493 39.2572 15.9144 38.0366C18.2819 38.6184 20.8649 39.0639 23.5823 39.3548C25.1202 41.4772 26.7981 43.4945 28.6046 45.3934C24.6685 49.0534 20.9735 51.0583 18.4605 51.0583C17.9193 51.0472 17.4608 50.9386 17.0982 50.7324ZM45.7373 41.5272C46.3043 46.1427 45.6047 49.7309 43.9754 50.6845C43.6127 50.9018 43.1414 50.9975 42.5854 50.9975C40.0872 50.9975 36.3812 49.0055 32.4432 45.3695C34.2416 43.4768 35.908 41.4629 37.4305 39.3419C40.159 39.0529 42.7438 38.6055 45.1095 38.0145C45.3857 39.2333 45.6047 40.4042 45.7373 41.5272ZM50.3859 33.4727C49.3476 33.9182 48.2135 34.3177 47.0408 34.6915C46.3024 32.1814 45.3952 29.7242 44.3252 27.3365C45.3841 24.9603 46.2797 22.5147 47.0058 20.0166C48.1556 20.3734 49.2878 20.7844 50.3988 21.2482C54.6718 23.0709 57.4371 25.4642 57.4371 27.3605C57.4242 29.2567 54.6608 31.6593 50.3859 33.4727Z" fill="#36DFFF"/>
<path d="M29.9617 33.2796C32.9358 33.2796 35.3467 30.8686 35.3467 27.8945C35.3467 24.9205 32.9358 22.5095 29.9617 22.5095C26.9876 22.5095 24.5767 24.9205 24.5767 27.8945C24.5767 30.8686 26.9876 33.2796 29.9617 33.2796Z" fill="#36DFFF"/>
</svg>
