<svg width="841" height="833" viewBox="0 0 841 833" fill="none" xmlns="http://www.w3.org/2000/svg">
<g opacity="0.5">
<g opacity="0.3" filter="url(#filter0_f_1_1595)">
<path d="M420.673 654.32C554.264 654.32 662.561 547.872 662.561 416.561C662.561 285.249 554.264 178.801 420.673 178.801C287.082 178.801 178.785 285.249 178.785 416.561C178.785 547.872 287.082 654.32 420.673 654.32Z" fill="#944EFA"/>
<mask id="mask0_1_1595" style="mask-type:alpha" maskUnits="userSpaceOnUse" x="178" y="178" width="485" height="477">
<path d="M420.673 654.32C554.264 654.32 662.561 547.872 662.561 416.561C662.561 285.249 554.264 178.801 420.673 178.801C287.082 178.801 178.785 285.249 178.785 416.561C178.785 547.872 287.082 654.32 420.673 654.32Z" fill="#944EFA"/>
</mask>
<g mask="url(#mask0_1_1595)">
<g filter="url(#filter1_f_1_1595)">
<path d="M442.329 568.158C411.083 585.794 320.935 521.472 288.71 492.838C281.749 581.023 288.71 540.544 373.786 677.381C458.862 814.221 778.864 507.851 783.698 492.838C788.532 477.824 724.534 116.718 587.443 20.3599C450.355 -75.9985 539.975 139.772 602.427 303.6C664.879 467.428 481.387 546.11 442.329 568.158Z" fill="#976CE5"/>
</g>
<g filter="url(#filter2_f_1_1595)">
<path d="M224.8 519.89C225.72 520.982 226.691 522.117 227.709 523.284C303.264 601.242 550.029 119.129 537.702 321.35C515.264 689.392 411.377 593.034 375.418 618.467C347.491 638.22 261.541 562.038 227.709 523.284C226.709 522.252 225.739 521.12 224.8 519.89Z" fill="#2735FD"/>
</g>
<g filter="url(#filter3_f_1_1595)">
<path d="M292.33 611.595C211.374 695.78 193.216 626.707 194.258 581.648L-55.8729 535.564C-97.5669 487.932 -102.465 345.403 211.494 156.34C603.945 -79.9883 817.587 503.674 685.12 389.328C552.649 274.983 393.525 506.36 292.33 611.595Z" fill="#2BBFDA"/>
</g>
</g>
</g>
<path fill-rule="evenodd" clip-rule="evenodd" d="M159.403 159H159V159.396V673.289H159.402V653.904H179.124V673.289H179.526V653.904H199.248V673.289H199.65V653.904H219.371V673.289H219.774V653.904H239.495V673.289H239.898V653.904H259.619V673.289H260.021V653.904H279.743V673.289H280.145V653.904H299.867V673.289H300.269V653.904H319.991V673.289H320.393V653.904H340.114V673.289H340.517V653.904H360.238V673.289H360.641V653.904H380.362V673.289H380.764V653.904H400.486V673.289H400.888V653.904H420.609V673.289H421.012V653.904H440.733V673.289H441.136V653.904H460.857V673.289H461.259V653.904H480.981V673.289H481.383V653.904H501.105V673.289H501.507V653.904H521.228V673.289H521.631V653.904H541.352V673.289H541.754V653.904H561.475V673.289H561.878V653.904H581.599V673.289H582.002V653.904H601.723V673.289H602.125V653.904H621.847V673.289H622.249V653.904H641.971V673.289H642.373V653.904H662.094V673.289H662.497V653.904H682.218V653.509H662.497V634.124H682.218V633.728H662.497V614.344H682.218V613.948H662.497V594.563H682.218V594.168H662.497V574.783H682.218V574.387H662.497V555.003H682.218V554.607H662.497V535.222H682.218V534.827H662.497V515.442H682.218V515.046H662.497V495.662H682.218V495.266H662.497V475.881H682.218V475.486H662.497V456.101H682.218V455.705H662.497V436.32H682.218V435.925H662.497V416.54H682.218V416.145H662.497V396.76H682.218V396.365H662.497V376.98H682.218V376.584H662.497V357.199H682.218V356.804H662.497V337.419H682.218V337.024H662.497V317.639H682.218V317.243H662.497V297.858H682.218V297.463H662.497V278.078H682.218V277.682H662.497V258.297H682.218V257.902H662.497V238.517H682.218V238.121H662.497V218.737H682.218V218.341H662.497V198.956H682.218V198.561H662.497V179.176H682.218V178.78H662.497V159.396H682.218V159H662.497H662.094H642.373H641.971H622.249H621.847H602.125H601.723H582.002H581.599H561.878H561.475H541.754H541.352H521.631H521.229H501.507H501.105H481.383H480.981H461.259H460.857H441.136H440.733H421.012H420.609H400.888H400.486H380.764H380.362H360.641H360.238H340.517H340.114H320.393H319.991H300.269H299.867H280.146H279.743H260.021H259.619H239.898H239.495H219.774H219.371H199.65H199.248H179.526H179.124H159.403ZM159.403 159.396V178.78H179.124V159.396H159.403ZM179.526 159.396V178.78H199.248V159.396H179.526ZM199.65 159.396V178.78H219.371V159.396H199.65ZM219.774 159.396V178.78H239.495V159.396H219.774ZM239.898 159.396V178.78H259.619V159.396H239.898ZM260.021 159.396V178.78H279.743V159.396H260.021ZM280.146 159.396V178.78H299.867V159.396H280.146ZM300.269 159.396V178.78H319.991V159.396H300.269ZM320.393 159.396V178.78H340.114V159.396H320.393ZM340.517 159.396V178.78H360.238V159.396H340.517ZM360.641 159.396V178.78H380.362V159.396H360.641ZM380.764 159.396V178.78H400.486V159.396H380.764ZM400.888 159.396V178.78H420.609V159.396H400.888ZM421.012 159.396V178.78H440.733V159.396H421.012ZM441.136 159.396V178.78H460.857V159.396H441.136ZM461.259 159.396V178.78H480.981V159.396H461.259ZM481.383 159.396V178.78H501.105V159.396H481.383ZM501.507 159.396V178.78H521.229V159.396H501.507ZM521.631 159.396V178.78H541.352V159.396H521.631ZM541.754 159.396V178.78H561.475V159.396H541.754ZM561.878 159.396V178.78H581.599V159.396H561.878ZM582.002 159.396V178.78H601.723V159.396H582.002ZM602.125 159.396V178.78H621.847V159.396H602.125ZM622.249 159.396V178.78H641.971V159.396H622.249ZM642.373 159.396V178.78H662.094V159.396H642.373ZM662.094 179.176H642.373V198.561H662.094V179.176ZM662.094 198.956H642.373V218.341H662.094V198.956ZM662.094 218.737H642.373V238.121H662.094V218.737ZM662.094 238.517H642.373V257.902H662.094V238.517ZM662.094 258.297H642.373V277.682H662.094V258.297ZM662.094 278.078H642.373V297.463H662.094V278.078ZM662.094 297.858H642.373V317.243H662.094V297.858ZM662.094 317.639H642.373V337.024H662.094V317.639ZM662.094 337.419H642.373V356.804H662.094V337.419ZM662.094 357.199H642.373V376.584H662.094V357.199ZM662.094 376.98H642.373V396.365H662.094V376.98ZM662.094 396.76H642.373V416.145H662.094V396.76ZM662.094 416.54H642.373V435.925H662.094V416.54ZM662.094 436.32H642.373V455.705H662.094V436.32ZM662.094 456.101H642.373V475.486H662.094V456.101ZM662.094 475.881H642.373V495.266H662.094V475.881ZM662.094 495.662H642.373V515.046H662.094V495.662ZM662.094 515.442H642.373V534.827H662.094V515.442ZM662.094 535.222H642.373V554.607H662.094V535.222ZM662.094 555.003H642.373V574.387H662.094V555.003ZM662.094 574.783H642.373V594.168H662.094V574.783ZM662.094 594.563H642.373V613.948H662.094V594.563ZM662.094 614.344H642.373V633.728H662.094V614.344ZM662.094 634.124H642.373V653.509H662.094V634.124ZM641.971 653.509V634.124H622.249V653.509H641.971ZM621.847 653.509V634.124H602.125V653.509H621.847ZM601.723 653.509V634.124H582.002V653.509H601.723ZM581.599 653.509V634.124H561.878V653.509H581.599ZM561.475 653.509V634.124H541.754V653.509H561.475ZM541.352 653.509V634.124H521.631V653.509H541.352ZM521.228 653.509V634.124H501.507V653.509H521.228ZM501.105 653.509V634.124H481.383V653.509H501.105ZM480.981 653.509V634.124H461.259V653.509H480.981ZM460.857 653.509V634.124H441.136V653.509H460.857ZM440.733 653.509V634.124H421.012V653.509H440.733ZM420.609 653.509V634.124H400.888V653.509H420.609ZM400.486 653.509V634.124H380.764V653.509H400.486ZM380.362 653.509V634.124H360.641V653.509H380.362ZM360.238 653.509V634.124H340.517V653.509H360.238ZM340.114 653.509V634.124H320.393V653.509H340.114ZM319.991 653.509V634.124H300.269V653.509H319.991ZM299.867 653.509V634.124H280.145V653.509H299.867ZM279.743 653.509V634.124H260.021V653.509H279.743ZM259.619 653.509V634.124H239.898V653.509H259.619ZM239.495 653.509V634.124H219.774V653.509H239.495ZM219.371 653.509V634.124H199.65V653.509H219.371ZM199.248 653.509V634.124H179.526V653.509H199.248ZM179.124 653.509V634.124H159.402V653.509H179.124ZM159.402 633.728H179.124V614.344H159.402V633.728ZM159.402 613.948H179.124V594.563H159.402V613.948ZM159.402 594.168H179.124V574.783H159.402V594.168ZM159.402 574.387H179.124V555.003H159.402V574.387ZM159.402 554.607H179.124V535.222H159.402V554.607ZM159.402 534.827H179.124V515.442H159.402V534.827ZM159.402 515.046H179.124V495.662H159.402V515.046ZM159.402 495.266H179.124V475.881H159.402V495.266ZM159.402 475.486H179.124V456.101H159.402V475.486ZM159.402 455.705H179.124V436.32H159.402V455.705ZM159.402 435.925H179.124V416.54H159.402V435.925ZM159.402 416.145H179.124V396.76H159.403L159.402 416.145ZM159.403 396.365H179.124V376.98H159.403V396.365ZM159.403 376.584H179.124V357.199H159.403V376.584ZM159.403 356.804H179.124V337.419H159.403V356.804ZM159.403 337.024H179.124V317.639H159.403V337.024ZM159.403 317.243H179.124V297.858H159.403V317.243ZM159.403 297.463H179.124V278.078H159.403V297.463ZM159.403 277.682H179.124V258.297H159.403V277.682ZM159.403 257.902H179.124V238.517H159.403V257.902ZM159.403 238.121H179.124V218.737H159.403V238.121ZM159.403 218.341H179.124V198.956H159.403V218.341ZM159.403 198.561H179.124V179.176H159.403V198.561ZM179.526 179.176V198.561H199.248V179.176H179.526ZM199.65 179.176V198.561H219.371V179.176H199.65ZM219.774 179.176V198.561H239.495V179.176H219.774ZM239.898 179.176V198.561H259.619V179.176H239.898ZM260.021 179.176V198.561H279.743V179.176H260.021ZM280.146 179.176V198.561H299.867V179.176H280.146ZM300.269 179.176V198.561H319.991V179.176H300.269ZM320.393 179.176V198.561H340.114V179.176H320.393ZM340.517 179.176V198.561H360.238V179.176H340.517ZM360.641 179.176V198.561H380.362V179.176H360.641ZM380.764 179.176V198.561H400.486V179.176H380.764ZM400.888 179.176V198.561H420.609V179.176H400.888ZM421.012 179.176V198.561H440.733V179.176H421.012ZM441.136 179.176V198.561H460.857V179.176H441.136ZM461.259 179.176V198.561H480.981V179.176H461.259ZM481.383 179.176V198.561H501.105V179.176H481.383ZM501.507 179.176V198.561H521.229V179.176H501.507ZM521.631 179.176V198.561H541.352V179.176H521.631ZM541.754 179.176V198.561H561.475V179.176H541.754ZM561.878 179.176V198.561H581.599V179.176H561.878ZM582.002 179.176V198.561H601.723V179.176H582.002ZM602.125 179.176V198.561H621.847V179.176H602.125ZM622.249 179.176V198.561H641.971V179.176H622.249ZM641.971 198.956H622.249V218.341H641.971V198.956ZM641.971 218.737H622.249V238.121H641.971V218.737ZM641.971 238.517H622.249V257.902H641.971V238.517ZM641.971 258.297H622.249V277.682H641.971V258.297ZM641.971 278.078H622.249V297.463H641.971V278.078ZM641.971 297.858H622.249V317.243H641.971V297.858ZM641.971 317.639H622.249V337.024H641.971V317.639ZM641.971 337.419H622.249V356.804H641.971V337.419ZM641.971 357.199H622.249V376.584H641.971V357.199ZM641.971 376.98H622.249V396.365H641.971V376.98ZM641.971 396.76H622.249V416.145H641.971V396.76ZM641.971 416.54H622.249V435.925H641.971V416.54ZM641.971 436.32H622.249V455.705H641.971V436.32ZM641.971 456.101H622.249V475.486H641.971V456.101ZM641.971 475.881H622.249V495.266H641.971V475.881ZM641.971 495.662H622.249V515.046H641.971V495.662ZM641.971 515.442H622.249V534.827H641.971V515.442ZM641.971 535.222H622.249V554.607H641.971V535.222ZM641.971 555.003H622.249V574.387H641.971V555.003ZM641.971 574.783H622.249V594.168H641.971V574.783ZM641.971 594.563H622.249V613.948H641.971V594.563ZM641.971 614.344H622.249V633.728H641.971V614.344ZM621.847 633.728V614.344H602.125V633.728H621.847ZM601.723 633.728V614.344H582.002V633.728H601.723ZM581.599 633.728V614.344H561.878V633.728H581.599ZM561.475 633.728V614.344H541.754V633.728H561.475ZM541.352 633.728V614.344H521.631V633.728H541.352ZM521.228 633.728V614.344H501.507V633.728H521.228ZM501.105 633.728V614.344H481.383V633.728H501.105ZM480.981 633.728V614.344H461.259V633.728H480.981ZM460.857 633.728V614.344H441.136V633.728H460.857ZM440.733 633.728V614.344H421.012V633.728H440.733ZM420.609 633.728V614.344H400.888V633.728H420.609ZM400.486 633.728V614.344H380.764V633.728H400.486ZM380.362 633.728V614.344H360.641V633.728H380.362ZM360.238 633.728V614.344H340.517V633.728H360.238ZM340.114 633.728V614.344H320.393V633.728H340.114ZM319.991 633.728V614.344H300.269V633.728H319.991ZM299.867 633.728V614.344H280.145V633.728H299.867ZM279.743 633.728V614.344H260.021V633.728H279.743ZM259.619 633.728V614.344H239.898V633.728H259.619ZM239.495 633.728V614.344H219.774V633.728H239.495ZM219.371 633.728V614.344H199.65V633.728H219.371ZM199.248 633.728V614.344H179.526V633.728H199.248ZM179.526 613.948H199.248V594.563H179.526V613.948ZM179.526 594.168H199.248V574.783H179.526V594.168ZM179.526 574.387H199.248V555.003H179.526V574.387ZM179.526 554.607H199.248V535.222H179.526V554.607ZM179.526 534.827H199.248V515.442H179.526V534.827ZM179.526 515.046H199.248V495.662H179.526V515.046ZM179.526 495.266H199.248V475.881H179.526V495.266ZM179.526 475.486H199.248V456.101H179.526V475.486ZM179.526 455.705H199.248V436.32H179.526V455.705ZM179.526 435.925H199.248V416.54H179.526V435.925ZM179.526 416.145H199.248V396.76H179.526V416.145ZM179.526 396.365H199.248V376.98H179.526V396.365ZM179.526 376.584H199.248V357.199H179.526V376.584ZM179.526 356.804H199.248V337.419H179.526V356.804ZM179.526 337.024H199.248V317.639H179.526V337.024ZM179.526 317.243H199.248V297.858H179.526V317.243ZM179.526 297.463H199.248V278.078H179.526V297.463ZM179.526 277.682H199.248V258.297H179.526V277.682ZM179.526 257.902H199.248V238.517H179.526V257.902ZM179.526 238.121H199.248V218.737H179.526V238.121ZM179.526 218.341H199.248V198.956H179.526V218.341ZM199.65 198.956V218.341H219.371V198.956H199.65ZM219.774 198.956V218.341H239.495V198.956H219.774ZM239.898 198.956V218.341H259.619V198.956H239.898ZM260.021 198.956V218.341H279.743V198.956H260.021ZM280.146 198.956V218.341H299.867V198.956H280.146ZM300.269 198.956V218.341H319.991V198.956H300.269ZM320.393 198.956V218.341H340.114V198.956H320.393ZM340.517 198.956V218.341H360.238V198.956H340.517ZM360.641 198.956V218.341H380.362V198.956H360.641ZM380.764 198.956V218.341H400.486V198.956H380.764ZM400.888 198.956V218.341H420.609V198.956H400.888ZM421.012 198.956V218.341H440.733V198.956H421.012ZM441.136 198.956V218.341H460.857V198.956H441.136ZM461.259 198.956V218.341H480.981V198.956H461.259ZM481.383 198.956V218.341H501.105V198.956H481.383ZM501.507 198.956V218.341H521.229V198.956H501.507ZM521.631 198.956V218.341H541.352V198.956H521.631ZM541.754 198.956V218.341H561.475V198.956H541.754ZM561.878 198.956V218.341H581.599V198.956H561.878ZM582.002 198.956V218.341H601.723V198.956H582.002ZM602.125 198.956V218.341H621.847V198.956H602.125ZM621.847 218.737H602.125V238.121H621.847V218.737ZM621.847 238.517H602.125V257.902H621.847V238.517ZM621.847 258.297H602.125V277.682H621.847V258.297ZM621.847 278.078H602.125V297.463H621.847V278.078ZM621.847 297.858H602.125V317.243H621.847V297.858ZM621.847 317.639H602.125V337.024H621.847V317.639ZM621.847 337.419H602.125V356.804H621.847V337.419ZM621.847 357.199H602.125V376.584H621.847V357.199ZM621.847 376.98H602.125V396.365H621.847V376.98ZM621.847 396.76H602.125V416.145H621.847V396.76ZM621.847 416.54H602.125V435.925H621.847V416.54ZM621.847 436.32H602.125V455.705H621.847V436.32ZM621.847 456.101H602.125V475.486H621.847V456.101ZM621.847 475.881H602.125V495.266H621.847V475.881ZM621.847 495.662H602.125V515.046H621.847V495.662ZM621.847 515.442H602.125V534.827H621.847V515.442ZM621.847 535.222H602.125V554.607H621.847V535.222ZM621.847 555.003H602.125V574.387H621.847V555.003ZM621.847 574.783H602.125V594.168H621.847V574.783ZM621.847 594.563H602.125V613.948H621.847V594.563ZM601.723 613.948V594.563H582.002V613.948H601.723ZM581.599 613.948V594.563H561.878V613.948H581.599ZM561.475 613.948V594.563H541.754V613.948H561.475ZM541.352 613.948V594.563H521.631V613.948H541.352ZM521.228 613.948V594.563H501.507V613.948H521.228ZM501.105 613.948V594.563H481.383V613.948H501.105ZM480.981 613.948V594.563H461.259V613.948H480.981ZM460.857 613.948V594.563H441.136V613.948H460.857ZM440.733 613.948V594.563H421.012V613.948H440.733ZM420.609 613.948V594.563H400.888V613.948H420.609ZM400.486 613.948V594.563H380.764V613.948H400.486ZM380.362 613.948V594.563H360.641V613.948H380.362ZM360.238 613.948V594.563H340.517V613.948H360.238ZM340.114 613.948V594.563H320.393V613.948H340.114ZM319.991 613.948V594.563H300.269V613.948H319.991ZM299.867 613.948V594.563H280.145V613.948H299.867ZM279.743 613.948V594.563H260.021V613.948H279.743ZM259.619 613.948V594.563H239.898V613.948H259.619ZM239.495 613.948V594.563H219.774V613.948H239.495ZM219.371 613.948V594.563H199.65V613.948H219.371ZM199.65 594.168H219.371V574.783H199.65V594.168ZM199.65 574.387H219.371V555.003H199.65V574.387ZM199.65 554.607H219.371V535.222H199.65V554.607ZM199.65 534.827H219.371V515.442H199.65V534.827ZM199.65 515.046H219.371V495.662H199.65V515.046ZM199.65 495.266H219.371V475.881H199.65V495.266ZM199.65 475.486H219.371V456.101H199.65V475.486ZM199.65 455.705H219.371V436.32H199.65V455.705ZM199.65 435.925H219.371V416.54H199.65V435.925ZM199.65 416.145H219.371V396.76H199.65V416.145ZM199.65 396.365H219.371V376.98H199.65V396.365ZM199.65 376.584H219.371V357.199H199.65V376.584ZM199.65 356.804H219.371V337.419H199.65V356.804ZM199.65 337.024H219.371V317.639H199.65V337.024ZM199.65 317.243H219.371V297.858H199.65V317.243ZM199.65 297.463H219.371V278.078H199.65V297.463ZM199.65 277.682H219.371V258.297H199.65V277.682ZM199.65 257.902H219.371V238.517H199.65V257.902ZM199.65 238.121H219.371V218.737H199.65V238.121ZM219.774 218.737V238.121H239.495V218.737H219.774ZM239.898 218.737V238.121H259.619V218.737H239.898ZM260.021 218.737V238.121H279.743V218.737H260.021ZM280.146 218.737V238.121H299.867V218.737H280.146ZM300.269 218.737V238.121H319.991V218.737H300.269ZM320.393 218.737V238.121H340.114V218.737H320.393ZM340.517 218.737V238.121H360.238V218.737H340.517ZM360.641 218.737V238.121H380.362V218.737H360.641ZM380.764 218.737V238.121H400.486V218.737H380.764ZM400.888 218.737V238.121H420.609V218.737H400.888ZM421.012 218.737V238.121H440.733V218.737H421.012ZM441.136 218.737V238.121H460.857V218.737H441.136ZM461.259 218.737V238.121H480.981V218.737H461.259ZM481.383 218.737V238.121H501.105V218.737H481.383ZM501.507 218.737V238.121H521.229V218.737H501.507ZM521.631 218.737V238.121H541.352V218.737H521.631ZM541.754 218.737V238.121H561.475V218.737H541.754ZM561.878 218.737V238.121H581.599V218.737H561.878ZM582.002 218.737V238.121H601.723V218.737H582.002ZM601.723 238.517H582.002V257.902H601.723V238.517ZM601.723 258.297H582.002V277.682H601.723V258.297ZM601.723 278.078H582.002V297.463H601.723V278.078ZM601.723 297.858H582.002V317.243H601.723V297.858ZM601.723 317.639H582.002V337.024H601.723V317.639ZM601.723 337.419H582.002V356.804H601.723V337.419ZM601.723 357.199H582.002V376.584H601.723V357.199ZM601.723 376.98H582.002V396.365H601.723V376.98ZM601.723 396.76H582.002V416.145H601.723V396.76ZM601.723 416.54H582.002V435.925H601.723V416.54ZM601.723 436.32H582.002V455.705H601.723V436.32ZM601.723 456.101H582.002V475.486H601.723V456.101ZM601.723 475.881H582.002V495.266H601.723V475.881ZM601.723 495.662H582.002V515.046H601.723V495.662ZM601.723 515.442H582.002V534.827H601.723V515.442ZM601.723 535.222H582.002V554.607H601.723V535.222ZM601.723 555.003H582.002V574.387H601.723V555.003ZM601.723 574.783H582.002V594.168H601.723V574.783ZM581.599 594.168V574.783H561.878V594.168H581.599ZM561.475 594.168V574.783H541.754V594.168H561.475ZM541.352 594.168V574.783H521.631V594.168H541.352ZM521.228 594.168V574.783H501.507V594.168H521.228ZM501.105 594.168V574.783H481.383V594.168H501.105ZM480.981 594.168V574.783H461.259V594.168H480.981ZM460.857 594.168V574.783H441.136V594.168H460.857ZM440.733 594.168V574.783H421.012V594.168H440.733ZM420.609 594.168V574.783H400.888V594.168H420.609ZM400.486 594.168V574.783H380.764V594.168H400.486ZM380.362 594.168V574.783H360.641V594.168H380.362ZM360.238 594.168V574.783H340.517V594.168H360.238ZM340.114 594.168V574.783H320.393V594.168H340.114ZM319.991 594.168V574.783H300.269V594.168H319.991ZM299.867 594.168V574.783H280.145V594.168H299.867ZM279.743 594.168V574.783H260.021V594.168H279.743ZM259.619 594.168V574.783H239.898V594.168H259.619ZM239.495 594.168V574.783H219.774V594.168H239.495ZM219.774 574.387H239.495V555.003H219.774V574.387ZM219.774 554.607H239.495V535.222H219.774V554.607ZM219.774 534.827H239.495V515.442H219.774V534.827ZM219.774 515.046H239.495V495.662H219.774V515.046ZM219.774 495.266H239.495V475.881H219.774V495.266ZM219.774 475.486H239.495V456.101H219.774V475.486ZM219.774 455.705H239.495V436.32H219.774V455.705ZM219.774 435.925H239.495V416.54H219.774V435.925ZM219.774 416.145H239.495V396.76H219.774V416.145ZM219.774 396.365H239.495V376.98H219.774V396.365ZM219.774 376.584H239.495V357.199H219.774V376.584ZM219.774 356.804H239.495V337.419H219.774V356.804ZM219.774 337.024H239.495V317.639H219.774V337.024ZM219.774 317.243H239.495V297.858H219.774V317.243ZM219.774 297.463H239.495V278.078H219.774V297.463ZM219.774 277.682H239.495V258.297H219.774V277.682ZM219.774 257.902H239.495V238.517H219.774V257.902ZM239.898 238.517V257.902H259.619V238.517H239.898ZM260.021 238.517V257.902H279.743V238.517H260.021ZM280.146 238.517V257.902H299.867V238.517H280.146ZM300.269 238.517V257.902H319.991V238.517H300.269ZM320.393 238.517V257.902H340.114V238.517H320.393ZM340.517 238.517V257.902H360.238V238.517H340.517ZM360.641 238.517V257.902H380.362V238.517H360.641ZM380.764 238.517V257.902H400.486V238.517H380.764ZM400.888 238.517V257.902H420.609V238.517H400.888ZM421.012 238.517V257.902H440.733V238.517H421.012ZM441.136 238.517V257.902H460.857V238.517H441.136ZM461.259 238.517V257.902H480.981V238.517H461.259ZM481.383 238.517V257.902H501.105V238.517H481.383ZM501.507 238.517V257.902H521.229V238.517H501.507ZM521.631 238.517V257.902H541.352V238.517H521.631ZM541.754 238.517V257.902H561.475V238.517H541.754ZM561.878 238.517V257.902H581.599V238.517H561.878ZM581.599 258.297H561.878V277.682H581.599V258.297ZM581.599 278.078H561.878V297.463H581.599V278.078ZM581.599 297.858H561.878V317.243H581.599V297.858ZM581.599 317.639H561.878V337.024H581.599V317.639ZM581.599 337.419H561.878V356.804H581.599V337.419ZM581.599 357.199H561.878V376.584H581.599V357.199ZM581.599 376.98H561.878V396.365H581.599V376.98ZM581.599 396.76H561.878V416.145H581.599V396.76ZM581.599 416.54H561.878V435.925H581.599V416.54ZM581.599 436.32H561.878V455.705H581.599V436.32ZM581.599 456.101H561.878V475.486H581.599V456.101ZM581.599 475.881H561.878V495.266H581.599V475.881ZM581.599 495.662H561.878V515.046H581.599V495.662ZM581.599 515.442H561.878V534.827H581.599V515.442ZM581.599 535.222H561.878V554.607H581.599V535.222ZM581.599 555.003H561.878V574.387H581.599V555.003ZM561.475 574.387V555.003H541.754V574.387H561.475ZM541.352 574.387V555.003H521.631V574.387H541.352ZM521.228 574.387V555.003H501.507V574.387H521.228ZM501.105 574.387V555.003H481.383V574.387H501.105ZM480.981 574.387V555.003H461.259V574.387H480.981ZM460.857 574.387V555.003H441.136V574.387H460.857ZM440.733 574.387V555.003H421.012V574.387H440.733ZM420.609 574.387V555.003H400.888V574.387H420.609ZM400.486 574.387V555.003H380.764V574.387H400.486ZM380.362 574.387V555.003H360.641V574.387H380.362ZM360.238 574.387V555.003H340.517V574.387H360.238ZM340.114 574.387V555.003H320.393V574.387H340.114ZM319.991 574.387V555.003H300.269V574.387H319.991ZM299.867 574.387V555.003H280.145V574.387H299.867ZM279.743 574.387V555.003H260.021V574.387H279.743ZM259.619 574.387V555.003H239.898V574.387H259.619ZM239.898 554.607H259.619V535.222H239.898V554.607ZM239.898 534.827H259.619V515.442H239.898V534.827ZM239.898 515.046H259.619V495.662H239.898V515.046ZM239.898 495.266H259.619V475.881H239.898V495.266ZM239.898 475.486H259.619V456.101H239.898V475.486ZM239.898 455.705H259.619V436.32H239.898V455.705ZM239.898 435.925H259.619V416.54H239.898V435.925ZM239.898 416.145H259.619V396.76H239.898V416.145ZM239.898 396.365H259.619V376.98H239.898V396.365ZM239.898 376.584H259.619V357.199H239.898V376.584ZM239.898 356.804H259.619V337.419H239.898V356.804ZM239.898 337.024H259.619V317.639H239.898V337.024ZM239.898 317.243H259.619V297.858H239.898V317.243ZM239.898 297.463H259.619V278.078H239.898V297.463ZM239.898 277.682H259.619V258.297H239.898V277.682ZM260.021 258.297V277.682H279.743V258.297H260.021ZM280.146 258.297V277.682H299.867V258.297H280.146ZM300.269 258.297V277.682H319.991V258.297H300.269ZM320.393 258.297V277.682H340.114V258.297H320.393ZM340.517 258.297V277.682H360.238V258.297H340.517ZM360.641 258.297V277.682H380.362V258.297H360.641ZM380.764 258.297V277.682H400.486V258.297H380.764ZM400.888 258.297V277.682L420.609 277.682V258.297H400.888ZM421.012 258.297V277.682H440.733V258.297H421.012ZM441.136 258.297V277.682H460.857V258.297H441.136ZM461.259 258.297V277.682H480.981V258.297H461.259ZM481.383 258.297V277.682H501.105V258.297H481.383ZM501.507 258.297V277.682H521.229V258.297H501.507ZM521.631 258.297V277.682H541.352V258.297H521.631ZM541.754 258.297V277.682H561.475V258.297H541.754ZM561.475 278.078H541.754V297.463H561.475V278.078ZM561.475 297.858H541.754V317.243H561.475V297.858ZM561.475 317.639H541.754V337.024H561.475V317.639ZM561.475 337.419H541.754V356.804H561.475V337.419ZM561.475 357.199H541.754V376.584H561.475V357.199ZM561.475 376.98H541.754V396.365H561.475V376.98ZM561.475 396.76H541.754V416.145H561.475V396.76ZM561.475 416.54H541.754V435.925H561.475V416.54ZM561.475 436.32H541.754V455.705H561.475V436.32ZM561.475 456.101H541.754V475.486H561.475V456.101ZM561.475 475.881H541.754V495.266H561.475V475.881ZM561.475 495.662H541.754V515.046H561.475V495.662ZM561.475 515.442H541.754V534.827H561.475V515.442ZM561.475 535.222H541.754V554.607H561.475V535.222ZM541.352 554.607V535.222H521.631V554.607H541.352ZM521.228 554.607V535.222H501.507V554.607H521.228ZM501.105 554.607V535.222H481.383V554.607H501.105ZM480.981 554.607V535.222H461.259V554.607H480.981ZM460.857 554.607V535.222H441.136V554.607H460.857ZM440.733 554.607V535.222H421.012V554.607H440.733ZM420.609 554.607V535.222H400.888V554.607H420.609ZM400.486 554.607V535.222H380.764V554.607H400.486ZM380.362 554.607V535.222H360.641V554.607H380.362ZM360.238 554.607V535.222H340.517V554.607H360.238ZM340.114 554.607V535.222H320.393V554.607H340.114ZM319.991 554.607V535.222H300.269V554.607H319.991ZM299.867 554.607V535.222H280.145V554.607H299.867ZM279.743 554.607V535.222H260.021V554.607H279.743ZM260.021 534.827H279.743V515.442H260.021V534.827ZM260.021 515.046H279.743V495.662H260.021V515.046ZM260.021 495.266H279.743V475.881H260.021V495.266ZM260.021 475.486H279.743V456.101H260.021V475.486ZM260.021 455.705H279.743V436.32H260.021V455.705ZM260.021 435.925H279.743V416.54H260.021V435.925ZM260.021 416.145H279.743L279.743 396.76H260.021V416.145ZM260.021 396.365H279.743V376.98H260.021V396.365ZM260.021 376.584H279.743V357.199H260.021V376.584ZM260.021 356.804H279.743V337.419H260.021V356.804ZM260.021 337.024H279.743V317.639H260.021V337.024ZM260.021 317.243H279.743V297.858H260.021V317.243ZM260.021 297.463H279.743V278.078H260.021V297.463ZM280.146 278.078V297.463H299.867V278.078H280.146ZM300.269 278.078V297.463H319.991V278.078H300.269ZM320.393 278.078V297.463H340.114V278.078H320.393ZM340.517 278.078V297.463H360.238V278.078H340.517ZM360.641 278.078V297.463H380.362V278.078H360.641ZM380.764 278.078V297.463H400.486V278.078H380.764ZM400.888 278.078V297.463H420.609V278.078L400.888 278.078ZM421.012 278.078V297.463H440.733V278.078H421.012ZM441.136 278.078V297.463H460.857V278.078H441.136ZM461.259 278.078V297.463H480.981V278.078H461.259ZM481.383 278.078V297.463H501.105V278.078H481.383ZM501.507 278.078V297.463H521.229V278.078H501.507ZM521.631 278.078V297.463H541.352V278.078H521.631ZM541.352 297.858H521.631V317.243H541.352V297.858ZM541.352 317.639H521.631V337.024H541.352V317.639ZM541.352 337.419H521.631V356.804H541.352V337.419ZM541.352 357.199H521.631V376.584H541.352V357.199ZM541.352 376.98H521.631V396.365H541.352V376.98ZM541.352 396.76H521.631L521.631 416.145H541.352V396.76ZM541.352 416.54H521.631V435.925H541.352V416.54ZM541.352 436.32H521.631V455.705H541.352V436.32ZM541.352 456.101H521.631V475.486H541.352V456.101ZM541.352 475.881H521.631V495.266H541.352V475.881ZM541.352 495.662H521.631V515.046H541.352V495.662ZM541.352 515.442H521.631V534.827H541.352V515.442ZM521.228 534.827V515.442H501.507V534.827H521.228ZM501.105 534.827V515.442H481.383V534.827H501.105ZM480.981 534.827V515.442H461.259V534.827H480.981ZM460.857 534.827V515.442H441.136V534.827H460.857ZM440.733 534.827V515.442H421.012V534.827H440.733ZM420.609 534.827V515.442H400.888V534.827H420.609ZM400.486 534.827V515.442H380.764V534.827H400.486ZM380.362 534.827V515.442H360.641V534.827H380.362ZM360.238 534.827V515.442H340.517V534.827H360.238ZM340.114 534.827V515.442H320.393V534.827H340.114ZM319.991 534.827V515.442H300.269V534.827H319.991ZM299.867 534.827V515.442H280.145V534.827H299.867ZM280.145 515.046H299.867V495.662H280.145V515.046ZM280.145 495.266H299.867V475.881H280.145V495.266ZM280.145 475.486H299.867V456.101H280.145V475.486ZM280.145 455.705H299.867V436.32H280.145V455.705ZM280.145 435.925H299.867V416.54H280.145V435.925ZM280.145 416.145H299.867V396.76H280.146L280.145 416.145ZM280.146 396.365H299.867V376.98H280.146V396.365ZM280.146 376.584H299.867V357.199H280.146V376.584ZM280.146 356.804H299.867V337.419H280.146V356.804ZM280.146 337.024H299.867V317.639H280.146V337.024ZM280.146 317.243H299.867V297.858H280.146V317.243ZM300.269 297.858V317.243H319.991V297.858H300.269ZM320.393 297.858V317.243H340.114V297.858H320.393ZM340.517 297.858V317.243H360.238V297.858H340.517ZM360.641 297.858V317.243H380.362V297.858H360.641ZM380.764 297.858V317.243H400.486V297.858H380.764ZM400.888 297.858V317.243H420.609V297.858H400.888ZM421.012 297.858V317.243H440.733V297.858H421.012ZM441.136 297.858V317.243H460.857V297.858H441.136ZM461.259 297.858V317.243H480.981V297.858H461.259ZM481.383 297.858V317.243H501.105V297.858H481.383ZM501.507 297.858V317.243H521.229V297.858H501.507ZM521.229 317.639H501.507V337.024H521.229V317.639ZM521.229 337.419H501.507V356.804H521.229V337.419ZM521.229 357.199H501.507V376.584H521.229V357.199ZM521.229 376.98H501.507V396.365H521.229V376.98ZM521.229 396.76H501.507V416.145H521.228L521.229 396.76ZM521.228 416.54H501.507V435.925H521.228V416.54ZM521.228 436.32H501.507V455.705H521.228V436.32ZM521.228 456.101H501.507V475.486H521.228V456.101ZM521.228 475.881H501.507V495.266H521.228V475.881ZM521.228 495.662H501.507V515.046H521.228V495.662ZM501.105 515.046V495.662H481.383V515.046H501.105ZM480.981 515.046V495.662H461.259V515.046H480.981ZM460.857 515.046V495.662H441.136V515.046H460.857ZM440.733 515.046V495.662H421.012V515.046H440.733ZM420.609 515.046V495.662H400.888V515.046H420.609ZM400.486 515.046V495.662H380.764V515.046H400.486ZM380.362 515.046V495.662H360.641V515.046H380.362ZM360.238 515.046V495.662H340.517V515.046H360.238ZM340.114 515.046V495.662H320.393V515.046H340.114ZM319.991 515.046V495.662H300.269V515.046H319.991ZM300.269 495.266H319.991V475.881H300.269V495.266ZM300.269 475.486H319.991V456.101H300.269V475.486ZM300.269 455.705H319.991V436.32H300.269V455.705ZM300.269 435.925H319.991V416.54H300.269V435.925ZM300.269 416.145H319.991V396.76H300.269V416.145ZM300.269 396.365H319.991V376.98H300.269V396.365ZM300.269 376.584H319.991V357.199H300.269V376.584ZM300.269 356.804H319.991V337.419H300.269V356.804ZM300.269 337.024H319.991V317.639H300.269V337.024ZM320.393 317.639V337.024H340.114V317.639H320.393ZM340.517 317.639V337.024H360.238V317.639H340.517ZM360.641 317.639V337.024H380.362V317.639H360.641ZM380.764 317.639V337.024H400.486V317.639H380.764ZM400.888 317.639V337.024H420.609V317.639H400.888ZM421.012 317.639V337.024H440.733V317.639H421.012ZM441.136 317.639V337.024H460.857V317.639H441.136ZM461.259 317.639V337.024H480.981V317.639H461.259ZM481.383 317.639V337.024H501.105V317.639H481.383ZM501.105 337.419H481.383V356.804H501.105V337.419ZM501.105 357.199H481.383V376.584H501.105V357.199ZM501.105 376.98H481.383V396.365H501.105V376.98ZM501.105 396.76H481.383V416.145H501.105V396.76ZM501.105 416.54H481.383V435.925H501.105V416.54ZM501.105 436.32H481.383V455.705H501.105V436.32ZM501.105 456.101H481.383V475.486H501.105V456.101ZM501.105 475.881H481.383V495.266H501.105V475.881ZM480.981 495.266V475.881H461.259V495.266H480.981ZM460.857 495.266V475.881H441.136V495.266H460.857ZM440.733 495.266V475.881H421.012V495.266H440.733ZM420.609 495.266V475.881H400.888V495.266H420.609ZM400.486 495.266V475.881H380.764V495.266H400.486ZM380.362 495.266V475.881H360.641V495.266H380.362ZM360.238 495.266V475.881H340.517V495.266H360.238ZM340.114 495.266V475.881H320.393V495.266H340.114ZM320.393 475.486H340.114V456.101H320.393V475.486ZM320.393 455.705H340.114V436.32H320.393V455.705ZM320.393 435.925H340.114V416.54H320.393V435.925ZM320.393 416.145H340.114V396.76H320.393V416.145ZM320.393 396.365H340.114V376.98H320.393V396.365ZM320.393 376.584H340.114V357.199H320.393V376.584ZM320.393 356.804H340.114V337.419H320.393V356.804ZM340.517 337.419V356.804H360.238V337.419H340.517ZM360.641 337.419V356.804H380.362V337.419H360.641ZM380.764 337.419V356.804H400.486V337.419H380.764ZM400.888 337.419V356.804H420.609V337.419H400.888ZM421.012 337.419V356.804H440.733V337.419H421.012ZM441.136 337.419V356.804H460.857V337.419H441.136ZM461.259 337.419V356.804H480.981V337.419H461.259ZM480.981 357.199H461.259V376.584H480.981V357.199ZM480.981 376.98H461.259V396.365H480.981V376.98ZM480.981 396.76H461.259V416.145H480.981V396.76ZM480.981 416.54H461.259V435.925H480.981V416.54ZM480.981 436.32H461.259V455.705H480.981V436.32ZM480.981 456.101H461.259V475.486H480.981V456.101ZM460.857 475.486V456.101H441.136V475.486H460.857ZM440.733 475.486V456.101H421.012V475.486H440.733ZM420.609 475.486V456.101H400.888V475.486H420.609ZM400.486 475.486V456.101H380.764V475.486H400.486ZM380.362 475.486V456.101H360.641V475.486H380.362ZM360.238 475.486V456.101H340.517V475.486H360.238ZM340.517 455.705H360.238V436.32H340.517V455.705ZM340.517 435.925H360.238V416.54H340.517V435.925ZM340.517 416.145H360.238V396.76H340.517V416.145ZM340.517 396.365H360.238V376.98H340.517V396.365ZM340.517 376.584H360.238V357.199H340.517V376.584ZM360.641 357.199V376.584H380.362V357.199H360.641ZM380.764 357.199V376.584H400.486V357.199H380.764ZM400.888 357.199V376.584H420.609V357.199H400.888ZM421.012 357.199V376.584H440.733V357.199H421.012ZM441.136 357.199V376.584H460.857V357.199H441.136ZM460.857 376.98H441.136V396.365H460.857V376.98ZM460.857 396.76H441.136V416.145H460.857V396.76ZM460.857 416.54H441.136V435.925H460.857V416.54ZM460.857 436.32H441.136V455.705H460.857V436.32ZM440.733 455.705V436.32H421.012V455.705H440.733ZM420.609 455.705V436.32H400.888V455.705H420.609ZM400.486 455.705V436.32H380.764V455.705H400.486ZM380.362 455.705V436.32H360.641V455.705H380.362ZM360.641 435.925H380.362V416.54H360.641V435.925ZM360.641 416.145H380.362V396.76H360.641V416.145ZM360.641 396.365H380.362V376.98H360.641V396.365ZM380.764 376.98V396.365H400.486V376.98H380.764ZM400.888 376.98V396.365H420.609V376.98H400.888ZM421.012 376.98V396.365H440.733V376.98H421.012ZM440.733 396.76H421.012V416.145H440.733V396.76ZM440.733 416.54H421.012V435.925H440.733V416.54ZM420.609 435.925V416.54H400.888V435.925H420.609ZM400.486 435.925V416.54H380.764V435.925H400.486ZM380.764 416.145H400.486V396.76H380.764V416.145ZM400.888 396.76V416.145H420.609V396.76H400.888ZM159 673.289H682.218V673.685H159L159 673.289ZM682.218 673.289V159H682.621V673.289H682.218Z" fill="url(#paint0_radial_1_1595)" fill-opacity="0.5"/>
</g>
<defs>
<filter id="filter0_f_1_1595" x="0.537857" y="0.553482" width="840.27" height="832.014" filterUnits="userSpaceOnUse" color-interpolation-filters="sRGB">
<feFlood flood-opacity="0" result="BackgroundImageFix"/>
<feBlend mode="normal" in="SourceGraphic" in2="BackgroundImageFix" result="shape"/>
<feGaussianBlur stdDeviation="89.1236" result="effect1_foregroundBlur_1_1595"/>
</filter>
<filter id="filter1_f_1_1595" x="154.529" y="-135.661" width="761.572" height="980.291" filterUnits="userSpaceOnUse" color-interpolation-filters="sRGB">
<feFlood flood-opacity="0" result="BackgroundImageFix"/>
<feBlend mode="normal" in="SourceGraphic" in2="BackgroundImageFix" result="shape"/>
<feGaussianBlur stdDeviation="66.0744" result="effect1_foregroundBlur_1_1595"/>
</filter>
<filter id="filter2_f_1_1595" x="92.6509" y="139.238" width="577.645" height="614.592" filterUnits="userSpaceOnUse" color-interpolation-filters="sRGB">
<feFlood flood-opacity="0" result="BackgroundImageFix"/>
<feBlend mode="normal" in="SourceGraphic" in2="BackgroundImageFix" result="shape"/>
<feGaussianBlur stdDeviation="66.0744" result="effect1_foregroundBlur_1_1595"/>
</filter>
<filter id="filter3_f_1_1595" x="-254.304" y="-78.802" width="1156.96" height="908.333" filterUnits="userSpaceOnUse" color-interpolation-filters="sRGB">
<feFlood flood-opacity="0" result="BackgroundImageFix"/>
<feBlend mode="normal" in="SourceGraphic" in2="BackgroundImageFix" result="shape"/>
<feGaussianBlur stdDeviation="89.1236" result="effect1_foregroundBlur_1_1595"/>
</filter>
<radialGradient id="paint0_radial_1_1595" cx="0" cy="0" r="1" gradientUnits="userSpaceOnUse" gradientTransform="translate(420.811 416.342) rotate(90) scale(274.551 279.318)">
<stop stop-color="white" stop-opacity="0.69"/>
<stop offset="1" stop-color="#F0F3F9" stop-opacity="0"/>
</radialGradient>
</defs>
</svg>
