<svg width="148" height="19" viewBox="0 0 148 19" fill="none" xmlns="http://www.w3.org/2000/svg">
<path d="M67.825 19L69.45 11.975L64 7.25L71.2 6.625L74 0L76.8 6.625L84 7.25L78.55 11.975L80.175 19L74 15.275L67.825 19Z" fill="#FFB800"/>
<path d="M3.825 19L5.45 11.975L0 7.25L7.2 6.625L10 0L12.8 6.625L20 7.25L14.55 11.975L16.175 19L10 15.275L3.825 19Z" fill="#FFB800"/>
<path d="M99.825 19L101.45 11.975L96 7.25L103.2 6.625L106 0L108.8 6.625L116 7.25L110.55 11.975L112.175 19L106 15.275L99.825 19Z" fill="#FFB800"/>
<path d="M131.825 19L133.45 11.975L128 7.25L135.2 6.625L138 0L140.8 6.625L148 7.25L142.55 11.975L144.175 19L138 15.275L131.825 19Z" fill="#FFB800"/>
<path d="M35.825 19L37.45 11.975L32 7.25L39.2 6.625L42 0L44.8 6.625L52 7.25L46.55 11.975L48.175 19L42 15.275L35.825 19Z" fill="#FFB800"/>
</svg>
