<svg width="16" height="16" viewBox="0 0 16 16" fill="none" xmlns="http://www.w3.org/2000/svg">
<path d="M14.6515 4.2855L11.4287 5.71408V3.99979C11.4287 3.69669 11.3083 3.406 11.0939 3.19167C10.8796 2.97734 10.5889 2.85693 10.2858 2.85693H1.71439C1.41129 2.85693 1.1206 2.97734 0.906268 3.19167C0.691941 3.406 0.571533 3.69669 0.571533 3.99979V11.9998C0.571533 12.3029 0.691941 12.5936 0.906268 12.8079C1.1206 13.0222 1.41129 13.1426 1.71439 13.1426H10.2858C10.5889 13.1426 10.8796 13.0222 11.0939 12.8079C11.3083 12.5936 11.4287 12.3029 11.4287 11.9998V10.2855L14.6515 11.7141C14.7384 11.7476 14.8322 11.7594 14.9247 11.7484C15.0172 11.7374 15.1055 11.704 15.1822 11.651C15.2588 11.5981 15.3213 11.5272 15.3643 11.4446C15.4072 11.3619 15.4293 11.2701 15.4287 11.1769V4.82265C15.4293 4.72952 15.4072 4.63764 15.3643 4.555C15.3213 4.47237 15.2588 4.4015 15.1822 4.34854C15.1055 4.29559 15.0172 4.26216 14.9247 4.25118C14.8322 4.24019 14.7384 4.25197 14.6515 4.2855Z" stroke="white" stroke-linecap="round" stroke-linejoin="round"/>
</svg>
