<svg width="19" height="23" viewBox="0 0 19 23" fill="none" xmlns="http://www.w3.org/2000/svg">
<path d="M2.01242 19.5H12.0745V20.5H2.01242V19.5ZM2.01242 2.5H12.0745V3.5H2.01242V2.5Z" fill="black"/>
<path d="M12.0745 17.5H2.01242V5.5H12.0745V6.5H14.087V2.5C14.087 1.4 13.1814 0.5 12.0745 0.5H2.01242C0.90559 0.5 0 1.4 0 2.5V20.5C0 21.6 0.90559 22.5 2.01242 22.5H12.0745C13.1814 22.5 14.087 21.6 14.087 20.5V16.5H12.0745V17.5ZM2.01242 2.5H12.0745V3.5H2.01242V2.5ZM12.0745 20.5H2.01242V19.5H12.0745V20.5ZM15.4755 9.12L16.0994 10.5L16.7232 9.12L18.1118 8.5L16.7232 7.88L16.0994 6.5L15.4755 7.88L14.087 8.5L15.4755 9.12Z" fill="black"/>
<path d="M11.0683 7.5L9.81056 10.25L7.04348 11.5L9.81056 12.75L11.0683 15.5L12.3261 12.75L15.0932 11.5L12.3261 10.25L11.0683 7.5ZM16.0994 12.5L15.4755 13.88L14.087 14.5L15.4755 15.12L16.0994 16.5L16.7232 15.12L18.1118 14.5L16.7232 13.88L16.0994 12.5Z" fill="black"/>
</svg>
