<svg width="24" height="25" viewBox="0 0 24 25" fill="none" xmlns="http://www.w3.org/2000/svg">
<path fill-rule="evenodd" clip-rule="evenodd" d="M14.1818 5.83333C13.8925 5.83333 13.615 5.97381 13.4104 6.22386C13.2058 6.47391 13.0909 6.81304 13.0909 7.16667V17.8333C13.0909 18.187 13.2058 18.5261 13.4104 18.7761C13.615 19.0262 13.8925 19.1667 14.1818 19.1667H18.5455C18.8348 19.1667 19.1123 19.0262 19.3168 18.7761C19.5214 18.5261 19.6364 18.187 19.6364 17.8333V7.16667C19.6364 6.81304 19.5214 6.47391 19.3168 6.22386C19.1123 5.97381 18.8348 5.83333 18.5455 5.83333H14.1818ZM17.4545 8.5H15.2727V16.5H17.4545V8.5Z" fill="black"/>
<path d="M5.45455 5.83333C5.16522 5.83333 4.88774 5.97381 4.68316 6.22386C4.47857 6.47391 4.36364 6.81304 4.36364 7.16667C4.36364 7.52029 4.47857 7.85943 4.68316 8.10948C4.88774 8.35952 5.16522 8.5 5.45455 8.5H9.81818C10.1075 8.5 10.385 8.35952 10.5896 8.10948C10.7942 7.85943 10.9091 7.52029 10.9091 7.16667C10.9091 6.81304 10.7942 6.47391 10.5896 6.22386C10.385 5.97381 10.1075 5.83333 9.81818 5.83333H5.45455ZM5.45455 11.1667C5.16522 11.1667 4.88774 11.3071 4.68316 11.5572C4.47857 11.8072 4.36364 12.1464 4.36364 12.5C4.36364 12.8536 4.47857 13.1928 4.68316 13.4428C4.88774 13.6929 5.16522 13.8333 5.45455 13.8333H9.81818C10.1075 13.8333 10.385 13.6929 10.5896 13.4428C10.7942 13.1928 10.9091 12.8536 10.9091 12.5C10.9091 12.1464 10.7942 11.8072 10.5896 11.5572C10.385 11.3071 10.1075 11.1667 9.81818 11.1667H5.45455ZM4.36364 17.8333C4.36364 17.4797 4.47857 17.1406 4.68316 16.8905C4.88774 16.6405 5.16522 16.5 5.45455 16.5H9.81818C10.1075 16.5 10.385 16.6405 10.5896 16.8905C10.7942 17.1406 10.9091 17.4797 10.9091 17.8333C10.9091 18.187 10.7942 18.5261 10.5896 18.7761C10.385 19.0262 10.1075 19.1667 9.81818 19.1667H5.45455C5.16522 19.1667 4.88774 19.0262 4.68316 18.7761C4.47857 18.5261 4.36364 18.187 4.36364 17.8333Z" fill="black"/>
<path fill-rule="evenodd" clip-rule="evenodd" d="M3.27273 0.5C2.40475 0.5 1.57232 0.921428 0.95856 1.67157C0.344804 2.42172 0 3.43913 0 4.5V20.5C0 21.5609 0.344804 22.5783 0.95856 23.3284C1.57232 24.0786 2.40475 24.5 3.27273 24.5H20.7273C21.5953 24.5 22.4277 24.0786 23.0414 23.3284C23.6552 22.5783 24 21.5609 24 20.5V4.5C24 3.43913 23.6552 2.42172 23.0414 1.67157C22.4277 0.921428 21.5953 0.5 20.7273 0.5H3.27273ZM20.7273 3.16667H3.27273C2.9834 3.16667 2.70592 3.30714 2.50134 3.55719C2.29675 3.80724 2.18182 4.14638 2.18182 4.5V20.5C2.18182 20.8536 2.29675 21.1928 2.50134 21.4428C2.70592 21.6929 2.9834 21.8333 3.27273 21.8333H20.7273C21.0166 21.8333 21.2941 21.6929 21.4987 21.4428C21.7032 21.1928 21.8182 20.8536 21.8182 20.5V4.5C21.8182 4.14638 21.7032 3.80724 21.4987 3.55719C21.2941 3.30714 21.0166 3.16667 20.7273 3.16667Z" fill="black"/>
</svg>
